<svg width="32" height="32" viewBox="0 0 32 32" fill="none" xmlns="http://www.w3.org/2000/svg">
<path d="M28.9414 7.056L24.9427 3.05733C24.6934 2.80667 24.3547 2.66667 24.0001 2.66667H8.00008C7.64675 2.66667 7.30675 2.80667 7.05741 3.05733L3.05875 7.056C2.81608 7.29733 2.66675 7.632 2.66675 8V25.3333C2.66675 26.804 3.86275 28 5.33341 28H26.6667C28.1374 28 29.3334 26.804 29.3334 25.3333V8C29.3334 7.63067 29.1841 7.29733 28.9414 7.056ZM8.55208 5.33333H23.4481L24.7814 6.66667H7.21875L8.55208 5.33333ZM16.0001 24L9.33341 17.3333H13.3334V13.3333H18.6667V17.3333H22.6667L16.0001 24Z" fill="white"/>
</svg>
