<svg width="32" height="32" viewBox="0 0 32 32" fill="none" xmlns="http://www.w3.org/2000/svg">
<path d="M14.6667 28C14.6667 27.4696 14.456 26.9609 14.081 26.5858C13.7059 26.2107 13.1972 26 12.6667 26C12.1363 26 11.6276 26.2107 11.2525 26.5858C10.8775 26.9609 10.6667 27.4696 10.6667 28H4.00008C3.64646 28 3.30732 27.8595 3.05727 27.6095C2.80722 27.3594 2.66675 27.0203 2.66675 26.6667V5.33333C2.66675 4.97971 2.80722 4.64057 3.05727 4.39052C3.30732 4.14048 3.64646 4 4.00008 4H10.6667C10.6667 4.53043 10.8775 5.03914 11.2525 5.41421C11.6276 5.78929 12.1363 6 12.6667 6C13.1972 6 13.7059 5.78929 14.081 5.41421C14.456 5.03914 14.6667 4.53043 14.6667 4H28.0001C28.3537 4 28.6928 4.14048 28.9429 4.39052C29.1929 4.64057 29.3334 4.97971 29.3334 5.33333V12.6667C28.4494 12.6667 27.6015 13.0179 26.9764 13.643C26.3513 14.2681 26.0001 15.1159 26.0001 16C26.0001 16.8841 26.3513 17.7319 26.9764 18.357C27.6015 18.9821 28.4494 19.3333 29.3334 19.3333V26.6667C29.3334 27.0203 29.1929 27.3594 28.9429 27.6095C28.6928 27.8595 28.3537 28 28.0001 28H14.6667ZM12.6667 14C13.1972 14 13.7059 13.7893 14.081 13.4142C14.456 13.0391 14.6667 12.5304 14.6667 12C14.6667 11.4696 14.456 10.9609 14.081 10.5858C13.7059 10.2107 13.1972 10 12.6667 10C12.1363 10 11.6276 10.2107 11.2525 10.5858C10.8775 10.9609 10.6667 11.4696 10.6667 12C10.6667 12.5304 10.8775 13.0391 11.2525 13.4142C11.6276 13.7893 12.1363 14 12.6667 14ZM12.6667 22C13.1972 22 13.7059 21.7893 14.081 21.4142C14.456 21.0391 14.6667 20.5304 14.6667 20C14.6667 19.4696 14.456 18.9609 14.081 18.5858C13.7059 18.2107 13.1972 18 12.6667 18C12.1363 18 11.6276 18.2107 11.2525 18.5858C10.8775 18.9609 10.6667 19.4696 10.6667 20C10.6667 20.5304 10.8775 21.0391 11.2525 21.4142C11.6276 21.7893 12.1363 22 12.6667 22Z" fill="white"/>
</svg>
