<svg fill="none" height="310" viewBox="0 0 343 310" width="343" xmlns="http://www.w3.org/2000/svg" xmlns:xlink="http://www.w3.org/1999/xlink"><clipPath id="a"><path d="m0 0h343v310h-343z" transform="matrix(-1 0 0 1 343 0)"/></clipPath><g clip-path="url(#a)" fill="#8d3099"><path d="m346.144 358.367 1.422-.003c-18.562-21.225-60.224-36.818-106.842-39.94-12.623-.832-20.774-5.554-23.597-13.667-2.073-5.979-1.234-13.495 2.485-21.763 3.718-8.233 9.89-16.435 17.876-23.714 3.053-2.783 6.531-6.315 10.222-10.097 17.141-17.516 40.635-41.454 61.525-30.523 11.424 5.997 13.577 17.353 15.839 29.35 2.297 12.175 4.667 24.777 17.655 30.807 3.914 1.809 8.432 3.083 13.553 3.822l-.004-2.172c-4.801-.704-8.998-1.907-12.664-3.61-11.991-5.569-14.181-17.103-16.479-29.278-2.261-11.997-4.595-24.385-16.944-30.844-16.299-8.517-33.559 2.304-48.539 15.793-11.893 9.529-22.786 21.443-30.809 28.402-27.618 23.91-36.086 59.963.65 64.384 36.166 4.386 69.148 16.717 89.976 33.062z"/><path d="m281.408-29.0013c-4.161-.5979-8.501-1.872-13.09-3.217-7.862-2.3005-15.901-4.636-23.686-3.8384-6.935-.6641-13.76-.1177-20.011 3.3479-7.459 4.1446-9.894 14.1557-6.788 21.5215 9.748 23.0939 44.487 24.2417 49.335 50.5852v.0354c3.006 10.9985-3.158 23.5802-9.934 31.8188-11.53 13.9447-32.557 25.4498-51.574 27.8344-.854-.0338-1.742-.0323-2.596-.0664-7.609-.1997-16.036-.3982-24.39.1867-14.221.0972-29.009 1.5122-40.303 8.5482-17.828 11.072-12.8 39.41 3.973 34.358.783.604 1.638 1.136 2.527 1.491 3.487 1.454 9.425 1.764 17.661-5.196 8.946-7.53 17.296-10.928 26.255-10.766 7.894.164 16.432 3.104 27.679 9.493 9.965 5.68 19.545 14.067 29.658 22.987 15.633 13.717 31.837 27.932 50.119 31.923 11.203 2.437 24.038 2.057 38.183-1.173 6.93-1.579 14.215-3.836 21.747-6.77l-.004-2.279c-7.71 3.041-15.137 5.369-22.209 6.984-13.825 3.159-26.375 3.538-37.259 1.172-17.749-3.885-33.738-17.887-49.193-31.462-10.22-8.956-19.871-17.449-30.014-23.235-11.567-6.603-20.426-9.614-28.675-9.777-9.529-.196-18.304 3.381-27.676 11.268-5.893 4.96-11.223 6.608-15.458 4.835-3.771-1.595-6.303-5.828-6.74-11.383-.509-6.302 1.999-15.53 10.628-20.923 14.739-9.179 36.215-8.612 53.459-8.181 1.778.033 3.52.101 5.227.133 20.622.426 46.661-11.9073 60.497-28.6696 6.954-8.417 13.259-21.4264 10.145-32.7805v-.0357c-3.221-11.3541-15.003-18.9891-26.429-26.3399-8.223-5.32668-15.983-10.33376-20.474-16.52194-4.312-5.9036-6.03-12.06116-4.866-17.29816.987-4.4176 3.896-8.0195 8.691-10.699 9.91-5.5377 21.115-2.2464 31.93.9035 4.66 1.3803 9.071 2.6543 13.374 3.2875 12.376 1.7937 26.951.3785 41.023-3.956 13.289-4.1193 25.046-10.6575 33.565-18.6144l-.006-2.9556c-8.375 8.3483-20.451 15.2431-34.203 19.5058-13.574 4.2266-28.185 5.642-40.098 3.9187z"/><path d="m192.127 326.845c-19.466-10.114-37.901-19.661-44.215-31.08-3.888-7.044-4.645-13.097-2.344-18.514 6.302-14.576 34.342-21.714 59.076-28.026 18.658-4.734 34.756-8.859 41.18-15.494 7.7-7.955 10.707-16.436 8.949-25.193-4.987-25.062-46.977-45.07-59.751-50.602-20.247-8.795-34.715-7.309-51.722 5.257-2.131 1.571-4.368 3.427-6.746 5.39-10.438 8.601-23.467 19.272-36.9506 14.382-10.5667-3.826-21.4775-1.421-31.5241 6.966-8.3781 7.031-15.7891 18.048-20.2826 30.235-1.6272 4.419-3.0411 9.015-4.4199 13.469-5.0898 16.533-9.9324 32.14-25.3457 42.103-4.9713 3.214-10.90406 6.394-17.370201 9.219l.006209 2.315c6.928222-2.969 13.248592-6.327 18.542392-9.756 16.0506-10.391 21.2112-27.103 26.2306-43.279 1.3788-4.418 2.757-8.979 4.3845-13.362 4.3517-11.866 11.5144-22.563 19.6441-29.344 6.5678-5.496 17.0104-11.106 29.4273-6.606 14.622 5.316 28.148-5.784 39.012-14.742 2.343-1.927 4.58-3.748 6.675-5.318 16.262-12.031 30.161-13.445 49.589-5.005 7.259 3.156 21.35 9.826 34.237 19.061 14.17 10.195 22.33 20.294 24.267 29.976 1.579 8.046-1.215 15.885-8.384 23.305-5.998 6.207-22.629 10.44-40.185 14.923-25.232 6.42-53.804 13.701-60.496 29.24-2.585 5.987-1.755 12.823 2.419 20.4 6.635 11.989 25.318 21.678 45.105 31.934 17.652 9.154 35.73 18.56 45.564 29.829l2.773-.006c-9.8-12.195-28.768-22.06-47.345-31.677z"/><path d="m151.911 339.487c-11.565-5.712-22.49-11.142-27.73-18.326-8.198-11.237-11.421-24.123-9.061-36.306 2.395-12.433 10.446-23.487 22.628-31.059 4.901-3.035 14.459-5.973 24.623-9.089 20.325-6.234 43.352-13.291 46.387-25.475.989-3.99.52-7.586-1.406-10.681-5.134-8.288-19.611-11.431-31.206-13.938-5.015-1.095-9.355-2.013-12.023-3.184-14.446-6.277-24.791-5.19-36.934 3.771-1.811 1.356-3.586 2.855-5.503 4.461-4.935 4.176-10.011 8.529-15.875 9.786-2.879.611-5.618.082-8.5341-.483-3.4855-.67-7.1134-1.376-10.8085.091-14.709 5.725-20.0761 26.282-24.3837 42.813-1.2005 4.596-2.3306 8.943-3.533 12.435-7.8521 22.734-18.5688 53.841-41.5815 68.733-4.4751 2.895-10.01395 5.718-16.055216 8.079l.003104 2.277c6.503352-2.467 12.470212-5.47 17.230612-8.577 23.6146-15.285 34.5081-46.82 42.4306-69.839 1.2381-3.599 2.3679-7.981 3.604-12.613 4.2019-16.068 9.3922-36.055 23.1066-41.386 3.1621-1.217 6.2919-.617 9.635.018 2.9878.564 6.1171 1.164 9.3871.481 6.397-1.364 11.687-5.861 16.799-10.215 1.846-1.57 3.621-3.069 5.361-4.354 11.433-8.461 21.173-9.44 34.837-3.518 2.846 1.242 7.292 2.195 12.414 3.325 11.24 2.437 25.183 5.474 29.854 12.98 1.64 2.632 2.001 5.552 1.154 9.043-2.753 11.044-26.135 18.209-44.969 23.941-10.731 3.296-20.006 6.126-25.12 9.304-12.678 7.929-21.084 19.447-23.585 32.485-2.465 12.789.866 26.244 9.42 37.98 5.56 7.61 16.699 13.145 28.513 18.963 10.427 5.147 21.067 10.434 27.906 17.292l2.987-.003c-7.019-7.859-18.62-13.605-29.972-19.212z"/><path d="m114.441 343.364-.89-1.066c-11.082-13.549-23.6252-28.875-17.8634-47.331 1.4142-4.561 3.7882-9.016 6.0554-13.294 4.997-9.446 10.17-19.213 5.811-30.992-2.644-7.153-6.381-9.034-9.0833-9.385-4.3387-.526-9.0263 2.545-13.1398 8.642-6.2407 9.234-9.0296 20.279-11.7122 30.967-1.3063 5.166-2.6476 10.51-4.3452 15.463-6.8972 19.956-15.9867 46.359-33.699 62.595l3.0932-.006c16.9649-16.662 25.8426-42.353 32.5981-61.88 1.733-5.06 3.1099-10.44 4.4158-15.641 2.6476-10.51 5.4012-21.341 11.4294-30.29 3.6167-5.313 7.6648-8.134 11.1144-7.713 2.9876.351 5.5166 3.124 7.3386 8 4.037 10.889-.711 19.8-5.7067 29.246-2.303 4.385-4.7127 8.912-6.1973 13.651v.035c-6.08 19.561 6.855 35.35 18.257 49.325l.891 1.065c.285.358.713.855 1.212 1.46 3.813 4.585 7.127 8.782 9.907 12.587l2.666-.003c-3.493-4.874-7.413-9.745-10.94-13.978-.535-.603-.927-1.1-1.212-1.457z"/><path d="m207.882 8.28159c-9.824-3.9278-18.737-5.27232-25.094-3.82449-9.048 2.06343-14.019 9.0488-18.796 15.8245-1.737 2.4158-3.545 4.9605-5.491 7.1833-5.095 5.806-11.21 8.8314-17.695 12.0489-6.756 3.3547-13.735 6.7939-19.39 13.6313l-.095.155c-2.213 3.6706-3.708 7.0843-4.487 10.1408-5.422 12.5233-5.631 26.948 6.745 31.7275 15.597 6.0076 33.027-15.4814 46.46-21.0533 18.232-7.5851 36.277 2.8574 54.977-2.5042 13.379-3.8306 22.029-18.6047 21.1-24.6398-.105-.7265-.287-1.4751-.493-2.1976-.019-.4529-.062-.8794-.131-1.3301-.934-6.1863-5.11-12.8432-12.094-19.2829-6.829-6.3453-16.126-12.1095-25.516-15.87891zm-66.09 33.15711c6.386-3.1628 12.969-6.4345 18.353-12.555 2.018-2.3014 3.85-4.8723 5.609-7.3646 4.78-6.7254 9.323-13.08819 17.524-14.96527 12.114-2.77006 34.443 6.00777 48.7 19.15247 6.617 6.1022 10.549 12.3407 11.413 18.0257.93 6.0857-4.509 10.8475-16.072 14.1743-8.008 2.2973-16.395 3.3255-24.532 4.2924-10.841 1.3314-22.033 2.677-32.571 7.0452-3.835 1.5954-7.57 3.7663-11.156 5.8807-9.261 5.4492-18.032 10.5757-28.771 6.4339-3.35-1.2978-6.057-2.8742-7.967-4.6348-5.493-5.065-5.244-12.4344.781-22.5129 5.398-6.3981 12.154-9.7525 18.689-12.9721z"/><path d="m298.357 262.014c-.926-.568-1.958-.993-3.06-1.312-6.973-1.981-15.182.099-22.496 5.668-8.522 6.497-14.05 16.335-14.035 25.06.002.926.075 1.887.183 2.777.54 3.845 2.537 6.904 5.954 9.141 6.835 4.439 18.461 4.525 25.959 2.375 4.336-1.254 8.276-4.929 11.075-10.347 2.551-4.919 3.997-10.976 3.987-16.638-.049-7.799-2.798-13.919-7.567-16.724zm-8.067 41.644c-6.006 1.756-17.489 2.24-24.217-2.128-2.883-1.882-4.559-4.443-4.991-7.647-.108-.819-.181-1.638-.183-2.493-.014-8.084 5.16-17.28 13.185-23.349 6.781-5.14 14.315-7.077 20.647-5.308.925.248 1.779.638 2.562 1.099 4.129 2.45 6.485 7.859 6.498 14.91-.017 10.113-5.15 22.515-13.501 24.916z"/><path d="m301.175 142.724c1.04.308 2.147.452 3.294.474 7.247.106 14.639-4.031 20.265-11.306 6.552-8.485 9.35-19.421 7.08-27.845-.24-.893-.559-1.803-.894-2.635-1.515-3.5741-4.234-6.011-8.113-7.2864-7.749-2.516-19.001.4153-25.688 4.436-3.864 2.3354-6.72 6.9064-8.024 12.8654-1.193 5.413-1.025 11.638.448 17.105 2.063 7.52 6.3 12.719 11.632 14.192zm-2.97-42.317c5.347-3.2525 16.314-6.6967 23.941-4.2216 3.272 1.0704 5.552 3.1099 6.798 6.0926.316.763.598 1.535.82 2.36 2.103 7.805-.518 18.03-6.701 25.972-5.222 6.723-11.999 10.547-18.573 10.479-.957.001-1.883-.155-2.758-.397-4.621-1.296-8.295-5.91-10.129-12.717-2.597-9.773-.844-23.084 6.602-27.568z"/><path d="m245.723 111.354c-1.508.876-3.234 2.652-2.867 6.071.341 3.199 2.637 7.92 4.907 10.1 3.266 3.148 9.779 2.393 14.153-.147 3.116-1.809 4.938-4.347 4.932-6.967.008-.509-.064-1.039-.201-1.566-.691-2.76-3.413-5.316-7.423-7.023-4.13-1.739-9.907-2.555-13.501-.468zm19.259 7.921c.088.385.138.76.147 1.125-.02 1.996-1.499 3.965-4.088 5.468-4.825 2.802-10.006 2.38-12.094.397-1.95-1.861-4.057-6.254-4.359-9.039-.214-1.994.451-3.456 2.009-4.361 2.639-1.533 7.548-1.289 11.985.574 3.436 1.469 5.835 3.641 6.4 5.836z"/><path d="m282.834 18.8628c-.132 5.8405 2.331 11.6406 7.498 17.8275 8.124 9.6715 19.938 15.2409 31.325 20.6333.712.319 1.388.6383 2.064.9933 24.874 11.7779 45.089 22.923 62.824 39.0582.784.7107 1.674 1.4925 2.636 2.3812 1.424 1.2797 3.062 2.7367 4.807 4.3357l-.005-2.884c-1.211-1.102-2.35-2.0972-3.383-3.0213-.962-.8529-1.852-1.6702-2.635-2.3455-17.949-16.3129-38.306-27.5291-63.358-39.4135-.676-.319-1.388-.6383-2.1-.993-11.209-5.2859-22.774-10.7491-30.613-20.0649-4.81-5.7602-7.131-11.1332-6.998-16.4039.13-6.9088 1.932-12.75228 5.196-16.88909 3.547-4.49343 8.556-6.74603 14.921-6.61513 11.271.1932 21.484 5.195851 31.377 10.05661 9.857 4.82521 19.999 9.79231 31.484 10.30571 9.707.4097 18.664-.8886 25.948-3.6794l-.004-2.27917c-7.106 2.86177-16.063 4.23127-25.841 3.82167-11.023-.4785-20.987-5.37477-30.631-10.09354-10.071-4.93167-20.497-10.04074-32.266-10.26868-13.369-.2962-21.92 9.51236-22.246 25.53792z"/></g></svg>