<svg fill="none" height="140" viewBox="0 0 154 140" width="154" xmlns="http://www.w3.org/2000/svg"><path d="m79.2119 95.6033s-2.8492 14.5467-20.3247 17.8437c0 0-4.5638 3.662-6.0826 5.829-1.5188 2.168-9.608 5.852-17.8487 17.346-8.2407 11.495-20.5094-25.007-20.5094-25.007l27.1168-35.4282z" fill="#000" fill-opacity=".7" opacity=".2"/><path d="m94.7436 27.3015s9.4234-4.6358 11.4964-3.8365 4.065 5.5949-3.862 10.186c-7.9263 4.5911-5.5613 13.1451-5.5613 13.1451h5.6543s3.392 1.3904 4.711 3.1785c1.32 1.7881 2.262 7.8848 3.016 9.9518.754 2.0669.369 4.1376-1.696 4.8104 0 0-1.32 5.7845-.943 8.3496.377 2.565.189 4.2156-2.261 4.5279-.617.0646-1.24-.0063-1.826-.208-.587-.2016-1.123-.5292-1.571-.9599s-.798-.9543-1.025-1.5345-.326-1.2031-.29-1.8255l-1.8846 6.8699 1.3196 2.6395c1.863.7256 3.586 1.775 5.088 3.1004 2.639 2.2751 5.277 2.8959 4.523 5.4312-.754 2.5354-2.261 5.2678-10.1768 2.1005-7.9155-3.1674-14.5117-15.6136-14.5117-15.6136l-4.756-43.3982z" fill="#fff"/><path d="m104.662 52.2311c-4.272 5.8588.455 12.6061.455 12.6061s-2.957 1.658-3.042 5.8885c-.033 1.7584.407 4.2157.932 6.4908-.769-.3651-1.41-.9542-1.841-1.6908-.431-.7365-.632-1.5865-.576-2.4393l-1.8886 6.8699 1.3196 2.6357c1.388.5344 2.696 1.2587 3.887 2.1525-1.171 2.7063-1.53 6.0521-1.426 9.502-1.029-.275-2.04-.6152-3.0268-1.0186-7.9155-3.1711-14.5117-15.6136-14.5117-15.6136l-4.756-43.402 14.5561-6.9108s5.1477-2.5317 8.6734-3.5317c-.274 3.3161.369 6.7473.835 8.6581-.601.4427-1.227.851-1.874 1.2231-7.9152 4.5911-5.5613 13.1451-5.5613 13.1451h5.6573s3.223 1.3234 4.605 3.0447c-.945.64-1.765 1.4504-2.417 2.3903z" fill="#1eb0d9" opacity=".4"/><path d="m80.021 88.6107s-10.251 20.2193-28.7279 24.8073c0 0-.7058 4-3.8321 5.717-1.6704.915-8.4107 11.075-14.327 20.35l-32.770719-20.223c2.017679-2.008 4.316209-4.32 6.651699-6.733 6.83642-7.011 14.13112-14.8699 16.36312-18.7584 1.9955-3.4573 4.5195-9.4573 6.7183-15.0968 2.8158-7.212 5.107-13.8366 5.107-13.8366l10.9235-12.2157 17.1725-19.2084.7391 2.4573z" fill="#fff"/><path d="m63.3143 33.4131 16.7068 55.1976s-10.251 20.2193-28.7279 24.8073c0 0-.7058 4-3.8321 5.717-1.5004.822-7.0841 9.093-12.4867 17.473 2.0029-6.915 7.8009-17.937 7.8009-17.937-3.7212-4.435-2.6348-9.108-1.1455-7.778 1.4892 1.331 5.2326 5.071 5.4691 5.305-1.6444-1.948-2.0251-5-2.0251-5s4.6119 3.086 4.9851-1.858c.3733-4.945-2.7641-17.0266-2.7641-17.0266l-8.237-31.7699z" fill="#1eb0d9" opacity=".4"/><g stroke="#263238" stroke-linecap="round" stroke-linejoin="round"><path d="m80.1875 34.2161 14.5561-6.9146s9.4234-4.6358 11.4964-3.8365 4.065 5.5949-3.862 10.186c-7.9263 4.5911-5.5613 13.1451-5.5613 13.1451h5.6543s3.392 1.3904 4.711 3.1785c1.32 1.7881 2.262 7.8848 3.016 9.9518.754 2.0669.369 4.1376-1.696 4.8104 0 0-1.32 5.7845-.943 8.3496.377 2.565.189 4.2156-2.261 4.5279-.617.0646-1.24-.0063-1.826-.208-.587-.2016-1.123-.5292-1.571-.9599s-.798-.9543-1.025-1.5345-.326-1.2031-.29-1.8255l-1.8846 6.8699 1.3196 2.6395c1.863.7256 3.586 1.775 5.088 3.1004 2.639 2.2751 5.277 2.8959 4.523 5.4312-.754 2.5354-2.261 5.2678-10.1768 2.1005-7.9155-3.1674-14.5117-15.6136-14.5117-15.6136" stroke-width=".5"/><path d="m108.501 64.7368c-2.827.7696-6.123.2008-7.35-4.8327-1.2267-5.0335 1.227-10.4091 2.827-10.9035"/><path d="m100.586 73.0863s-.189-6.4721 2.169-8.0707"/></g><path d="m31.8406 105.232s-6.9067-.866-8.4476-3.974c-1.275-2.5728-8.1853 7.063-16.36321 11.271 6.83641-7.011 14.13111-14.8698 16.36321-18.7583 1.9955-3.4573 4.5194-9.4574 6.7182-15.0969-.1109 4.6767-2.5868 11.8366-1.881 15.5653-.7563.2012-1.4034.694-1.8011 1.3717s-.514 1.4858-.3237 2.2491c.5284 2.9631 5.7352 7.3721 5.7352 7.3721z" fill="#1eb0d9" opacity=".4"/><g stroke="#263238" stroke-linecap="round" stroke-linejoin="round"><path d="m80.0211 88.6107s-10.251 20.2193-28.7316 24.8073c0 0-.7021 4-3.8284 5.717-1.6703.915-8.407 11.075-14.3307 20.35" stroke-width=".5"/><path d="m.363281 119.262c7.893339-7.848 20.025319-20.2906 23.029619-25.4914 4.5453-7.8699 11.8252-28.9371 11.8252-28.9371l28.085-31.4204" stroke-width=".5"/><path d="m47.2764 57.4096s4.3162 3.8885 5.543 7.435"/></g><path d="m98.2245.773315h-46.4399c-1.3735 0-2.487 1.120135-2.487 2.501885v99.4548c0 1.382 1.1135 2.502 2.487 2.502h46.4399c1.3735 0 2.4865-1.12 2.4865-2.502v-99.4548c0-1.38175-1.113-2.501885-2.4865-2.501885z" fill="#263238"/><path d="m85.1948 3.61726-.983 1.81042c-.1039.19647-.2588.361-.4481.47618s-.406.17672-.6273.17811h-16.2597c-.2208-.00118-.4373-.06178-.6271-.17552-.1897-.11374-.3458-.27648-.4519-.47133l-.9793-1.81043c-.1052-.19563-.261-.35902-.451-.47288-.1899-.11386-.4069-.17397-.628-.17397h-11.3633c-.1619.00049-.3222.03312-.4715.09601-.1494.0629-.2849.15482-.3989.27052-.114.11569-.2041.25287-.2653.40368s-.0922.31228-.0912.47516v97.77079c0 .327.1291.642.3591.874s.542.363.8678.364h45.2536c.1623.001.3231-.031.4732-.092.1502-.062.2867-.153.4018-.268.115-.115.2063-.252.2686-.403.0623-.15.0944-.312.0944-.475v-97.77079c0-.32832-.1297-.64319-.3604-.87535-.2308-.23216-.5438-.36258-.8702-.36258h-11.3596c-.2202-.00214-.437.05542-.6275.16662s-.3478.27194-.4552.46536z" fill="#1eb0d9" stroke="#263238" stroke-linecap="round" stroke-linejoin="round" stroke-width=".5"/><path d="m71.4774 4.49457c.3653 0 .6615-.29793.6615-.66544s-.2962-.66543-.6615-.66543-.6615.29792-.6615.66543.2962.66544.6615.66544z" stroke="#fff" stroke-miterlimit="10"/><path d="m79.1897 3.82908c-.0007.08145-.0254.16086-.0709.22823s-.1098.11968-.1848.15034c-.075.03067-.1574.03831-.2367.02197s-.1521-.05593-.2091-.11378c-.057-.05786-.0957-.13139-.1112-.21133s-.0072-.16272.024-.2379c.0311-.07519.0837-.13942.1511-.1846.0673-.04518.1465-.06929.2275-.06929.0541 0 .1078.01079.1578.03176s.0954.0517.1335.09041c.0382.03871.0683.08464.0887.13514.0204.05049.0306.10455.0301.15905z" stroke="#fff" stroke-miterlimit="10"/><path d="m77.3493 3.56891h-4.0206c-.0338 0-.0672.00675-.0984.01988-.0312.01312-.0595.03234-.0832.05656-.0237.02421-.0424.05293-.055.08448s-.0188.06531-.0183.09931c0 .06803.0268.13327.0746.18137.0479.04811.1127.07513.1803.07513h4.0206c.0676 0 .1325-.02702.1803-.07513.0478-.0481.0747-.11334.0747-.18137.0005-.034-.0057-.06776-.0183-.09931s-.0313-.06027-.0551-.08448c-.0237-.02422-.052-.04344-.0831-.05656-.0312-.01313-.0647-.01988-.0985-.01988z" fill="#fff"/><g stroke="#263238" stroke-linecap="round" stroke-linejoin="round"><path d="m59.5634 5.4574h-4.3346v1.85132h4.3346z"/><path d="m60.2324 5.76965h-.6726v1.2305h.6726z"/><path d="m90.2796 6.63959h-.7686v.67287h.7686z"/><path d="m91.7799 5.96295h-.7687v1.34946h.7687z"/><path d="m93.2801 5.28638h-.7686v2.02232h.7686z"/><path d="m94.7767 4.6098h-.7686v2.69892h.7686z"/></g><path d="m98.5498 24.5803h-47.094v45.1863h47.094z" fill="#fff" opacity=".5"/><g fill="#263238"><path d="m64.4635 17.3646v.7843c0 .9703-.462 1.4871-1.408 1.4871h-.4471v2.2714h-.946v-6.041h1.3931c.946 0 1.408.5279 1.408 1.4982zm-1.8477-.632v2.0483h.4471c.2993 0 .4619-.1375.4619-.5688v-.9107c0-.4313-.1626-.5688-.4619-.5688z"/><path d="m67.8523 21.9185h-.9534l-.1663-1.0967h-1.1566l-.1663 1.0967h-.8684l.9645-6.0521h1.382zm-2.1581-1.9182h.9128l-.4472-3.0595h-.0184z"/><path d="m68.7539 19.9148-1.1936-4.0484h1.0051l.7133 2.7584h.0184l.7132-2.7584h.9017l-1.1936 4.0484v2.0037h-.946z"/><path d="m73.2661 20.1638h.0185l.6356-4.2974h1.3155v6.0521h-.8943v-4.3383l-.6356 4.3383h-.8942l-.6874-4.2789v4.2789h-.861v-6.0521h1.3155z"/><path d="m76.8689 18.4166h1.3044v.8662h-1.297v1.7732h1.6333v.8625h-2.5867v-6.0521h2.5867v.8662h-1.6333z"/><path d="m79.947 17.5356h-.0185v4.3829h-.8499v-6.0521h1.1862l.9534 3.6246v-3.6246h.8426v6.0521h-.9682z"/><path d="m82.4822 15.8664h2.923v.8662h-.9903v5.1859h-.9461v-5.1859h-.9866z"/><path d="m87.0904 15.7995c.9165 0 1.3895.5539 1.3895 1.5205v.1896h-.8943v-.2491c0-.435-.17-.5985-.473-.5985s-.4693.1635-.4693.5985c0 .4349.1884.7695.8056 1.3123.7908.7026 1.0421 1.2007 1.0421 1.8922 0 .9702-.4841 1.5242-1.4117 1.5242-.9275 0-1.4079-.554-1.4079-1.5242v-.3718h.8943v.435c0 .4312.1884.5873.4878.5873.2993 0 .4914-.1561.4914-.5873 0-.4313-.1884-.7695-.8092-1.316-.7909-.6989-1.0385-1.2008-1.0385-1.8922 0-.9666.4731-1.5205 1.3932-1.5205z"/></g><g fill="#fff" stroke="#263238" stroke-linecap="round" stroke-linejoin="round" stroke-width=".5"><path d="m94.7768 30.0562h-39.548v5.9443h39.548z"/><path d="m94.7768 41.205h-39.548v5.9443h39.548z"/><path d="m94.7768 51.3427h-39.548v5.9443h39.548z"/><path d="m73.9533 59.4542h-18.7245v6.9592h18.7245z"/><path d="m94.7807 59.4542h-18.7245v6.9592h18.7245z"/></g><g fill="#263238"><path d="m57.6935 29.0189v.1599h-1.2379v-1.7584h1.201v.1599h-1.0126v.6282h.9017v.1562h-.9017v.6542z"/><path d="m60.2583 28.413v.7659h-.1922v-.7436c0-.2788-.1404-.4237-.3695-.4237-.0617-.0027-.1232.0082-.1802.0319-.0571.0237-.1083.0597-.1502.1053-.0418.0456-.0733.0999-.0922.159s-.0248.1217-.0172.1833v.6915h-.1774v-.7435c0-.2789-.1404-.4238-.3695-.4238-.0617-.0027-.1232.0083-.1802.032-.0571.0237-.1083.0596-.1501.1052-.0419.0457-.0734.0999-.0923.159-.0189.0592-.0247.1217-.0171.1833v.6915h-.1774v-1.3197h.17v.2416c.0505-.0822.1221-.149.2074-.1935.0852-.0445.1808-.065.2767-.0593.0968-.0082.1937.0143.2772.0643s.1494.125.1884.2145c.0538-.0894.1306-.1625.2223-.2115.0918-.0491.195-.0724.2987-.0673.0728-.0049.1457.0064.2136.0331s.1291.0682.1793.1215c.0501.0532.0879.117.1107.1867.0228.0696.03.1435.0212.2163z"/><path d="m61.7328 28.361v.8179h-.17v-.2045c-.0498.0736-.1181.1326-.1979.1711s-.1683.0552-.2566.0482c-.2956 0-.4767-.1561-.4767-.3717s.1293-.3718.5063-.3718h.4065v-.0818c0-.2267-.1294-.3494-.3696-.3494-.1593-.0025-.3141.0529-.436.1561l-.0813-.1338c.1532-.1192.3422-.1821.5358-.1784.0696-.0115.1409-.0069.2085.0134.0675.0203.1297.0557.1816.1037.052.048.0924.1072.1183.1732s.0365.1371.0311.2078zm-.1774.4238v-.2193h-.4138c-.255 0-.3363.1003-.3363.2379 0 .1375.1219.2491.3326.2491.0868.0025.1723-.0218.245-.0697.0727-.0478.129-.1169.1615-.198z"/><path d="m62.1724 27.4427c.0009-.0338.015-.066.0391-.0896.0242-.0236.0565-.0368.0902-.0368.0333 0 .0653.0134.0888.0371.0236.0237.0368.0558.0368.0893 0 .0336-.0132.0657-.0368.0894-.0235.0237-.0555.037-.0888.037-.0337.0001-.066-.0131-.0902-.0367-.0241-.0236-.0382-.0558-.0391-.0897zm.0406.4164h.1774v1.3197h-.1774z"/><path d="m62.8857 27.3163h.1782v1.8588h-.1782z"/><path d="m58.9169 33.5915v.1599h-1.2379v-1.7584h1.201v.1598h-1.0311v.6246h.9054v.1598h-.9054v.6543z"/><path d="m61.4813 32.9781v.7659h-.1774v-.7436c0-.2788-.1404-.4237-.3695-.4237-.0615-.0032-.1229.0072-.18.0304-.0571.0233-.1083.0589-.1503.1042-.0419.0454-.0734.0994-.0923.1584-.019.0589-.0248.1213-.0172.1828v.6952h-.1773v-.7435c0-.2788-.1405-.4238-.3696-.4238-.0615-.0032-.1229.0072-.18.0304-.057.0233-.1083.0589-.1502.1042-.042.0454-.0735.0995-.0924.1584-.0189.059-.0248.1213-.0171.1828v.6952h-.1811v-1.3235h.17v.2417c.0513-.0812.1232-.1471.2083-.1909s.1803-.0639.2758-.0582c.0966-.0071.1931.0158.2764.0657s.1493.1243.1892.2131c.0535-.0896.1303-.163.2221-.2121s.1951-.0722.299-.0667c.0718-.0032.1435.0093.21.0368.0666.0275.1264.0692.1752.1223.0489.053.0857.1162.1079.185.0222.0689.0292.1417.0205.2135z"/><path d="m62.9521 32.9261v.8179h-.17v-.2045c-.0492.0732-.1169.1318-.1962.1697s-.1672.0538-.2547.0459c-.2956 0-.4804-.1561-.4804-.3717 0-.2157.1331-.3718.51-.3718h.4176v-.0781c0-.2267-.1294-.3494-.3696-.3494-.1603-.0021-.3162.0533-.4397.1561l-.0776-.1338c.152-.1214.3418-.1846.5358-.1784.0685-.009.1381-.0026.2038.0188s.1259.0573.1761.105c.0502.0476.0893.106.1143.1707.0251.0648.0355.1343.0306.2036zm-.1737.4201v-.2156h-.4139c-.255 0-.3363.1003-.3363.2379 0 .1375.122.2491.3326.2491.0892.0051.1778-.0184.2528-.0672.0751-.0487.1328-.1203.1648-.2042z"/><path d="m63.3918 32.0041c.001-.0338.0151-.066.0392-.0896.0242-.0236.0565-.0368.0902-.0368.0168-.0005.0335.0024.0492.0086.0157.0061.03.0153.042.0271.0121.0118.0217.0259.0282.0415.0066.0156.0099.0323.0099.0492 0 .0345-.0136.0676-.0379.092-.0242.0244-.0571.0381-.0914.0381s-.0672-.0137-.0915-.0381c-.0242-.0244-.0379-.0575-.0379-.092zm.0407.4164h.1774v1.3234h-.1774z"/><path d="m64.1089 31.8777h.1745v1.8588h-.1745z"/><path d="m65.9787 32.9781v.7658h-.1774v-.7435c.0078-.0549.0034-.1109-.0131-.1639-.0165-.0529-.0445-.1015-.0821-.1422-.0375-.0406-.0837-.0723-.135-.0926-.0513-.0204-.1065-.029-.1615-.0251-.063-.0053-.1263.0035-.1855.0257s-.1128.0573-.1569.1028c-.0442.0454-.0778.1002-.0984.1602-.0207.0601-.0279.124-.0212.1872v.6952h-.1773v-1.3235h.17v.2454c.0534-.0828.1278-.1498.2154-.1943.0877-.0444.1855-.0646.2834-.0585.074-.006.1484.0046.2178.031.0694.0263.1322.0678.1837.1215.0516.0537.0907.1182.1146.1889.0239.0706.0319.1458.0235.2199z"/><path d="m67.4569 32.9261v.8179h-.17v-.2045c-.0491.0732-.1168.1318-.1961.1697s-.1672.0538-.2547.0459c-.2993 0-.4804-.1561-.4804-.3717s.1293-.3718.5063-.3718h.4176v-.078c0-.2268-.1257-.3495-.3696-.3495-.1593-.0025-.3141.053-.436.1562l-.0813-.1339c.1523-.1208.3419-.1839.5358-.1784.0688-.0096.1388-.0036.205.0175.0661.0211.1268.0569.1774.1046.0507.0478.0901.1063.1154.1714.0252.0651.0357.135.0306.2046zm-.1773.4201v-.2156h-.4102c-.255 0-.34.1004-.34.2379 0 .1376.1219.2491.3326.2491.0898.006.1792-.0172.255-.066s.1341-.1208.1663-.2054z"/><path d="m70.11 32.9781v.7658h-.1773v-.7435c0-.2788-.1405-.4238-.3696-.4238-.0615-.0032-.1229.0072-.18.0305-.057.0233-.1083.0588-.1502.1042-.042.0453-.0735.0994-.0924.1583-.0189.059-.0248.1214-.0171.1829v.6951h-.1885v-.7435c0-.2788-.1404-.4238-.3695-.4238-.0615-.0032-.123.0072-.18.0305-.0571.0233-.1084.0588-.1503.1042s-.0735.0994-.0924.1584c-.0189.0589-.0247.1213-.0171.1828v.6951h-.1774v-1.3234h.17v.2417c.0513-.0812.1232-.1472.2083-.1909.0852-.0438.1804-.0639.2758-.0582.0969-.0082.1938.0142.2773.0642s.1494.1251.1883.2146c.0539-.0894.1307-.1625.2224-.2116s.1949-.0723.2987-.0672c.0724-.0044.145.0073.2124.0343.0675.027.1282.0685.1779.1218.0497.0532.0872.1167.1098.1861s.0297.1429.0209.2154z"/><path d="m71.7397 33.138h-1.1086c.0095.1296.0696.2501.1673.3351.0977.0851.2249.1276.3538.1184.0757.0021.151-.0124.2205-.0426.0696-.0302.1318-.0753.1823-.1321l.0997.1152c-.0943.0996-.2157.169-.3491.1995-.1333.0305-.2726.0207-.4005-.0281-.1278-.0488-.2385-.1345-.3181-.2463-.0796-.1119-.1247-.2448-.1296-.3823-.0046-.0872.0088-.1744.0392-.2562s.0772-.1564.1375-.2192.1329-.1124.2131-.1457c.0802-.0334.1664-.0497.2532-.0481.0865-.0017.1724.0147.2523.0481.0798.0334.1519.0831.2117.146.0597.063.1058.1377.1354.2194.0295.0818.0419.1689.0362.2557 0 0 .0037.0446.0037.0632zm-1.1086-.1338h.9312c0-.1243-.049-.2434-.1363-.3312-.0874-.0879-.2058-.1372-.3293-.1372s-.2419.0493-.3292.1372c-.0873.0878-.1364.2069-.1364.3312z"/><path d="m74.3119 33.0785c0 .4275-.1589.6766-.4176.6766-.0365.002-.073-.0035-.1073-.0163-.0342-.0128-.0655-.0325-.0918-.0579-.0264-.0255-.0473-.0561-.0613-.0901-.0141-.0339-.021-.0704-.0205-.1071-.0514.086-.1248.1565-.2126.2042-.0877.0477-.1866.0709-.2862.0672-.1706 0-.3341-.0682-.4547-.1895s-.1883-.2858-.1883-.4574c0-.1715.0677-.3361.1883-.4574s.2841-.1894.4547-.1894c.0984-.0043.1961.018.2831.0644.0871.0464.1602.1152.212.1995v-.2491h.1626v.9517c0 .1413.0702.1933.1552.1933.1515 0 .2513-.1933.2513-.5316.004-.1343-.0201-.2679-.0707-.3922-.0507-.1243-.1267-.2366-.2232-.3295-.0965-.0928-.2113-.1643-.337-.2097-.1257-.0453-.2595-.0637-.3927-.0537-.132 0-.2627.0262-.3846.077-.122.0508-.2328.1253-.3261.2192-.0934.0939-.1674.2053-.2179.328s-.0765.2542-.0765.387c0 .1327.026.2642.0765.3869s.1245.2342.2179.3281c.0933.0939.2041.1683.3261.2192.1219.0508.2526.0769.3846.0769.1664-.0004.3306-.0385.4804-.1115l.0407.1227c-.163.0771-.341.1165-.5211.1152-.2999 0-.5875-.1198-.7996-.3332-.212-.2133-.3312-.5026-.3312-.8043s.1192-.5911.3312-.8044c.2121-.2133.4997-.3332.7996-.3332.1493-.0109.2993.0097.4403.0603.1411.0506.2701.1302.3789.2337s.1949.2286.253.3675c.0581.1388.0869.2883.0845.4389zm-.7022.026c.0058-.0663-.0021-.133-.0233-.196-.0212-.0631-.0553-.1209-.0999-.17-.0447-.0491-.099-.0883-.1595-.1151-.0606-.0268-.126-.0406-.1921-.0406-.0662 0-.1316.0138-.1921.0406s-.1149.066-.1595.1151c-.0447.0491-.0787.1069-.0999.17-.0212.063-.0292.1297-.0234.196-.0058.0663.0022.1331.0234.1961s.0552.1209.0999.1699c.0446.0491.099.0883.1595.1151s.1259.0407.1921.0407c.0661 0 .1315-.0139.1921-.0407.0605-.0268.1148-.066.1595-.1151.0446-.049.0787-.1069.0999-.1699s.0291-.1298.0233-.1961z"/><path d="m75.8267 33.1379h-1.1086c.0037.0645.0201.1276.0482.1857.028.0581.0672.1101.1153.1529.048.0428.104.0757.1648.0967.0607.021.1249.0297.189.0257.0757.0021.151-.0125.2206-.0426.0695-.0302.1317-.0753.1822-.1321l.0998.1152c-.0943.0996-.2158.169-.3491.1995s-.2727.0207-.4005-.0281c-.1278-.0489-.2385-.1345-.3182-.2464-.0796-.1118-.1247-.2447-.1295-.3822-.0046-.0872.0087-.1744.0391-.2562s.0772-.1564.1376-.2192c.0603-.0628.1328-.1124.2131-.1457.0802-.0334.1664-.0497.2532-.0481.0865-.0017.1723.0147.2522.0481s.152.0831.2117.146c.0598.0629.1059.1376.1354.2194.0296.0818.0419.1689.0363.2557 0 0 .0074.0372.0074.0557zm-1.1086-.1338h.9312c0-.1242-.0491-.2434-.1364-.3312s-.2057-.1372-.3292-.1372-.2419.0494-.3293.1372c-.0873.0878-.1363.207-.1363.3312z"/><path d="m78.3618 32.9781v.7658h-.1885v-.7435c0-.2788-.1404-.4238-.3696-.4238-.0614-.0032-.1229.0072-.1799.0305-.0571.0233-.1084.0588-.1503.1042-.0419.0453-.0735.0994-.0924.1583-.0189.059-.0247.1214-.0171.1829v.6951h-.1774v-.7435c0-.2788-.1404-.4238-.3695-.4238-.0615-.0032-.1229.0072-.18.0305s-.1084.0588-.1503.1042-.0734.0994-.0924.1584c-.0189.0589-.0247.1213-.0171.1828v.6951h-.1773v-1.3234h.1699v.2417c.0507-.0809.122-.1467.2065-.1905.0844-.0438.179-.064.2739-.0586.0972-.0074.1943.0154.2782.0653.0839.0498.1506.1243.1912.2135.0526-.0897.1286-.1631.2199-.2122.0912-.0492.1941-.0722.2974-.0666.0728-.0049.1457.0064.2136.0331s.1291.0682.1793.1214c.0501.0533.0879.1171.1107.1867.0228.0697.03.1436.0212.2164z"/><path d="m79.8325 32.9261v.8179h-.1811v-.2045c-.0494.0729-.1172.1313-.1964.1691-.0792.0379-.167.054-.2544.0465-.2993 0-.4804-.1561-.4804-.3717s.1294-.3718.5063-.3718h.4249v-.0781c0-.2267-.1256-.3494-.3695-.3494-.1593-.0025-.3141.053-.436.1561l-.0813-.1338c.1523-.1208.3419-.1839.5358-.1784.069-.0103.1395-.0047.2061.0161.0667.0209.1278.0565.1789.1044.0511.0478.0908.1066.1163.1719.0255.0654.036.1357.0308.2057zm-.1774.4201v-.2156h-.4101c-.255 0-.34.1003-.34.2379 0 .1375.1219.2491.3326.2491.0886.0043.1763-.0195.2506-.0683.0743-.0487.1314-.1198.1632-.2031z"/><path d="m80.2761 32.0041c0-.0257.0076-.0509.0218-.0722.0142-.0214.0344-.0381.0581-.048.0236-.0098.0496-.0124.0747-.0074s.0481.0174.0662.0356.0304.0414.0354.0667c.005.0252.0024.0514-.0073.0751-.0098.0238-.0264.0441-.0477.0584s-.0463.022-.0718.022c-.0343 0-.0672-.0138-.0915-.0382s-.0379-.0575-.0379-.092zm.037.4164h.1774v1.3234h-.1774z"/><path d="m80.9858 31.8777h.1782v1.8588h-.1782z"/><path d="m81.5435 33.6175c-.0005-.0177.0026-.0353.0091-.0518s.0163-.0314.0287-.044c.0125-.0125.0274-.0223.0437-.0289.0164-.0065.0339-.0096.0516-.0091.0352 0 .0691.0141.094.0392.025.0251.039.0591.039.0946 0 .0359-.0139.0703-.0387.096-.0249.0257-.0587.0406-.0943.0416-.0178 0-.0354-.0036-.0518-.0106-.0164-.0069-.0313-.0171-.0437-.0299-.0124-.0129-.0221-.028-.0285-.0447-.0065-.0167-.0096-.0345-.0091-.0524z"/><path d="m82.0165 33.0822c-.0026-.0895.0132-.1787.0464-.2618s.0831-.1585.1465-.2213c.0635-.0628.1392-.1118.2224-.1438s.172-.0464.261-.0423c.1014-.0067.2028.0139.2937.0596.0909.0458.1681.115.2236.2007l-.133.0892c-.0416-.0597-.0969-.1085-.1613-.1422-.0643-.0336-.1357-.0512-.2082-.0511-.1283.011-.2477.0699-.3348.1653-.0871.0953-.1354.2201-.1354.3496 0 .1294.0483.2542.1354.3495.0871.0954.2065.1544.3348.1653.0726.0007.1443-.0166.2087-.0503s.1196-.0828.1608-.143l.133.0892c-.056.0852-.1333.154-.2241.1996-.0908.0457-.1919.0666-.2932.0607-.0893.0041-.1785-.0104-.2619-.0426s-.1593-.0815-.2229-.1448c-.0635-.0632-.1133-.139-.1463-.2225-.0329-.0836-.0483-.1731-.0452-.263z"/><path d="m83.4022 33.0822c0-.133.0393-.2631.1128-.3738.0735-.1106.1779-.1969.3001-.2478.1223-.0509.2568-.0643.3865-.0383.1298.026.2489.09.3425.1841.0935.0941.1572.214.183.3446.0258.1305.0126.2658-.038.3887-.0507.123-.1364.2281-.2464.302s-.2393.1134-.3716.1134c-.0887.0031-.177-.0122-.2596-.0449-.0825-.0327-.1575-.0821-.2202-.1453-.0628-.0631-.1119-.1385-.1444-.2215-.0326-.0831-.0477-.172-.0447-.2612zm1.1567 0c-.003-.0978-.0348-.1926-.0914-.2723-.0566-.0796-.1355-.1406-.2265-.1751-.0911-.0346-.1904-.0411-.2852-.0188-.0947.0223-.1808.0723-.2473.1439-.0664.0715-.1103.1613-.1259.258-.0157.0966-.0025.1958.0379.2849.0405.089.1063.164.1891.2155.0829.0514.179.0769.2763.0732.0647-.0009.1286-.0149.1877-.0413.0592-.0263.1125-.0644.1566-.112.0442-.0475.0784-.1036.1005-.1648.0221-.0611.0317-.1262.0282-.1912z"/><path d="m87.2676 32.9781v.7658h-.1773v-.7435c0-.2788-.1404-.4238-.3696-.4238-.0614-.0032-.1229.0072-.1799.0305-.0571.0233-.1084.0588-.1503.1042-.042.0453-.0735.0994-.0924.1583-.0189.059-.0248.1214-.0171.1829v.6951h-.1774v-.7435c0-.2788-.1404-.4238-.3695-.4238-.0615-.0032-.123.0072-.18.0305-.0571.0233-.1084.0588-.1503.1042s-.0735.0994-.0924.1584c-.0189.0589-.0247.1213-.0171.1828v.6951h-.1774v-1.3234h.17v.2417c.0507-.0809.122-.1467.2065-.1905.0844-.0438.179-.064.2739-.0586.0972-.0074.1943.0154.2782.0653.0839.0498.1506.1243.1911.2135.053-.0894.1291-.1626.2202-.2117.0912-.0491.1939-.0723.2972-.0671.0718-.0032.1435.0093.2101.0368.0665.0274.1263.0692.1752.1222.0489.0531.0857.1163.1078.1851.0222.0688.0292.1417.0205.2135z"/><path d="m57.993 44.2087.3104.1784-.0555.1041-.3141-.1821v.3717h-.1145v-.3717l-.3141.1821-.0592-.1041.3141-.1784-.3141-.1747.0592-.1078.3141.1858v-.3717h.1145v.3717l.3141-.1858.0555.1078z"/><path d="m59.0091 44.2087.3104.1784-.0591.1041-.3104-.1821v.3717h-.1183v-.3717l-.3104.1821-.0628-.1041.3141-.1784-.3141-.1747.0628-.1078.3104.1858v-.3717h.1257v.3717l.3104-.1858.0591.1078z"/><path d="m60.0217 44.2087.3104.1784-.0591.1041-.3104-.1821v.3717h-.1145v-.3717l-.3105.1821-.0591-.1041.3104-.1784-.3104-.1747.0591-.1078.3105.1858v-.3717h.1145v.3717l.3104-.1858.0591.1078z"/><path d="m61.0342 44.2087.3104.1784-.0554.1041-.3141-.1821v.3717h-.1146v-.3717l-.3141.1821-.0591-.1041.3141-.1784-.3141-.1747.0591-.1078.3141.1858v-.3717h.1146v.3717l.3141-.1858.0554.1078z"/><path d="m62.0506 44.2087.3104.1784-.0591.1041-.3104-.1821v.3717h-.1183v-.3717l-.3104.1821-.0628-.1041.3141-.1784-.3141-.1747.0628-.1078.3104.1858v-.3717h.1183v.3717l.3104-.1858.0591.1078z"/><path d="m63.063 44.2087.3104.1784-.0591.1041-.3104-.1821v.3717h-.1146v-.3717l-.3104.1821-.0591-.1041.3104-.1784-.3104-.1747.0591-.1078.3104.1858v-.3717h.133v.3717l.3105-.1858.0591.1078z"/><path d="m64.0755 44.2087.3104.1784-.0554.1041-.3141-.1821v.3717h-.1146v-.3717l-.3141.1821-.0591-.1041.3141-.1784-.3141-.1747.0591-.1078.3141.1858v-.3717h.1146v.3717l.3141-.1858.0554.1078z"/><path d="m65.0919 44.2087.3104.1784-.0591.1041-.3142-.1821v.3717h-.1145v-.3717l-.3104.1821-.0628-.1041.3141-.1784-.3141-.1747.0628-.1078.3104.1858v-.3717h.1145v.3717l.3142-.1858.0591.1078z"/><path d="m66.1045 44.2087.3104.1784-.0591.1041-.3104-.1821v.3717h-.1146v-.3717l-.3104.1821-.0591-.1041.3104-.1784-.3104-.1747.0591-.1078.3104.1858v-.3717h.1146v.3717l.3104-.1858.0591.1078z"/><path d="m67.1167 44.2087.3105.1784-.0555.1041-.3141-.1821v.3717h-.1145v-.3717l-.3142.1821-.0591-.1041.3104-.1784-.3104-.1747.0591-.1078.3142.1858v-.3717h.1145v.3717l.3141-.1858.0555.1078z"/><path d="m68.1331 44.2087.3068.1784-.0555.1041-.3141-.1821v.3717h-.1145v-.3717l-.3105.1821-.0628-.1041.3141-.1784-.3141-.1747.0628-.1078.3105.1858v-.3717h.1145v.3717l.3141-.1858.0555.1078z"/><path d="m57.8266 39.1678c0 .3718-.2698.6022-.7133.6022h-.4693v.5539h-.1884v-1.7509h.6541c.4471 0 .7169.2231.7169.5948zm-.1848 0c0-.2825-.1848-.4424-.5358-.4424h-.462v.8811h.4657c.3473.0074.5321-.1524.5321-.4387z"/><path d="m59.1681 39.5135v.8179h-.17v-.2045c-.05.0732-.1184.1317-.1983.1696-.0798.0379-.1682.0538-.2562.046-.2956 0-.4767-.1524-.4767-.3717 0-.2194.1293-.3718.5063-.3718h.4175v-.078c0-.2268-.1293-.3495-.3695-.3495-.1593-.0025-.3141.053-.4361.1561l-.0812-.1338c.1523-.1208.3419-.1839.5358-.1784.0687-.0096.1388-.0036.205.0175.0661.0211.1268.0569.1774.1046.0507.0478.0901.1063.1153.1714.0253.0651.0358.135.0307.2046zm-.1774.4201v-.2156h-.4028c-.2549 0-.3362.1004-.3362.2379 0 .1376.1219.2491.3326.2491.0873.0028.1734-.0219.2462-.0705.0729-.0486.1288-.1188.1602-.2009z"/><path d="m59.4673 40.1827.0776-.1413c.1374.0972.3013.1491.4693.1487.2476 0 .3511-.0855.3511-.2193 0-.342-.85-.0707-.85-.5948 0-.2156.1848-.3718.5174-.3718.1633-.0021.3242.0403.4656.1227l-.0776.1413c-.1153-.0754-.2505-.1143-.388-.1116-.2365 0-.34.093-.34.2194 0 .3717.8499.0892.8499.5948 0 .2305-.1995.3717-.5432.3717-.1899.0062-.3767-.0499-.5321-.1598z"/><path d="m60.687 40.1827.0813-.1413c.1358.0975.2988.1495.4656.1487.2513 0 .3696-.0855.3696-.2193 0-.3421-.85-.0707-.85-.5948 0-.2157.1848-.3718.5211-.3718.1622-.0026.3221.0399.4619.1227l-.0776.1412c-.11-.072-.2383-.1108-.3695-.1115-.2402 0-.3437.093-.3437.2194 0 .3717.8499.0892.8499.5948 0 .2304-.1995.3717-.5395.3717-.2023.0143-.4034-.0421-.5691-.1598z"/><path d="m63.9943 39.0117-.4989 1.3197h-.1663l-.4139-1.0818-.4139 1.0818h-.17l-.4915-1.3197h.17l.4102 1.1152.4213-1.1152h.1552l.4176 1.1152.4176-1.1152z"/><path d="m64.0902 39.6696c0-.133.0393-.2631.1128-.3738.0735-.1106.1779-.1969.3001-.2478.1223-.0509.2567-.0643.3865-.0383.1297.026.2489.09.3425.1841.0935.0941.1572.214.183.3446.0258.1305.0126.2658-.038.3887-.0507.123-.1364.2281-.2464.302s-.2393.1134-.3716.1134c-.0887.0031-.177-.0122-.2596-.0449-.0825-.0327-.1575-.0821-.2202-.1452-.0628-.0632-.1119-.1386-.1445-.2216-.0325-.0831-.0477-.172-.0446-.2612zm1.1567 0c0-.1301-.0514-.2549-.1429-.3469-.0915-.0921-.2155-.1438-.3449-.1438s-.2534.0517-.3449.1438c-.0915.092-.1429.2168-.1429.3469 0 .1302.0514.255.1429.347s.2155.1437.3449.1437.2534-.0517.3449-.1437.1429-.2168.1429-.347z"/><path d="m66.4518 39.0005v.1673h-.0444c-.0624-.0028-.1246.0083-.1822.0324-.0577.0241-.1093.0607-.1513.1072s-.0733.1018-.0917.1618c-.0183.06-.0233.1234-.0145.1856v.6729h-.1774v-1.3197h.1884v.2565c.0446-.0858.1131-.1564.1972-.2034.0841-.0469.18-.0679.2759-.0606z"/><path d="m67.9558 38.4689v1.8588h-.1699v-.2602c-.0527.0865-.1274.1573-.2164.205-.089.0478-.1891.0706-.2899.0663-.1683-.0126-.3257-.0887-.4405-.2132-.1149-.1244-.1787-.288-.1787-.4578s.0638-.3333.1787-.4578c.1148-.1244.2722-.2006.4405-.2132.0984-.0038.1961.0182.2836.0639.0874.0456.1616.1132.2153.1963v-.7918zm-.1736 1.2008c-.0051-.0958-.0379-.188-.0945-.2652s-.1344-.136-.2239-.1692c-.0894-.0332-.1866-.0393-.2795-.0175-.0928.0218-.1773.0704-.243.14-.0656.0695-.1096.1569-.1264.2513-.0168.0945-.0058.1918.0318.2799.0376.0882.1.1633.1795.2162.0796.0528.1728.0811.2682.0812.0666.0012.1327-.0115.1941-.0374.0615-.0259.1169-.0644.1628-.113.0458-.0486.0812-.1062.1037-.1693s.0318-.1302.0272-.197z"/><path d="m70.5831 53.6661v1.7621h-.17v-1.5986h-.4138v-.1635z"/><path d="m72.1943 55.2572v.1636h-1.2269v-.1301l.7391-.7175c.1958-.1933.2365-.3123.2365-.4313 0-.2044-.1441-.3308-.4102-.3308-.0891-.0058-.1784.009-.261.0431-.0826.0342-.1564.0868-.2157.1539l-.1293-.1115c.0787-.0853.1752-.1521.2825-.1958.1072-.0437.2227-.0631.3383-.057.3695 0 .5802.1822.5802.4758-.0058.1072-.0345.2119-.0842.3069-.0498.095-.1194.178-.2041.2433l-.5949.5874z"/><path d="m73.5763 54.9152c0 .2936-.2143.5204-.6356.5204-.2304.0073-.455-.0738-.6282-.2268l.085-.1449c.1478.1365.3426.2099.5432.2044.2919 0 .4509-.1338.4509-.3531 0-.2194-.1479-.3495-.4731-.3495h-.1256v-.1338l.4841-.6097h-.8943v-.1561h1.1086v.1301l-.4915.6134c.3881.026.5765.223.5765.5056z"/><path d="m75.3132 54.956h-.3511v.4647h-.1773v-.4647h-.9867v-.1301l.9275-1.1673h.1996l-.8943 1.1227h.7576v-.4089h.1736v.4089h.3511z"/><path d="m77.32 54.9003c0 .3011-.207.5353-.6356.5353-.2304.0069-.4548-.0741-.6282-.2267l.0886-.145c.0713.0682.1554.1215.2475.1566.092.0351.19.0514.2884.0478.2993 0 .4545-.1449.4545-.3717s-.1404-.3718-.5839-.3718h-.3695l.0924-.8847h.9571v.1635h-.8019l-.0591.5577h.2254c.5247.0186.7243.2305.7243.539z"/><path d="m78.8607 54.8929c-.0007.0762-.0171.1514-.0482.2209s-.0762.1318-.1325.1828-.1225.0897-.1945.1137c-.0719.0239-.148.0325-.2234.0253-.4656 0-.7169-.3271-.7169-.881s.3252-.9108.7982-.9108c.1452-.0056.2893.0278.4176.0966l-.074.145c-.1031-.0594-.2212-.0878-.3399-.0818-.3696 0-.6209.2417-.6209.7212v.1413c.0511-.0968.1288-.1767.2238-.2301.0951-.0534.2034-.0781.3121-.071.0746-.0095.1504-.0029.2223.0192.072.0222.1384.0595.195.1093.0565.0499.102.1113.1332.1801.0313.0689.0477.1436.0481.2193zm-.1773 0c0-.2342-.17-.3718-.4398-.3718-.0541-.0067-.109-.0023-.1613.013-.0524.0153-.1011.0411-.1432.0758-.0422.0348-.0769.0778-.102.1264-.0252.0486-.0402.1019-.0443.1566 0 .1933.1589.3717.4619.3717.0526.0086.1065.0056.1578-.0087.0514-.0143.0991-.0397.1398-.0743s.0735-.0776.0961-.1262c.0227-.0486.0346-.1015.035-.1551z"/><path d="m80.2797 53.6661v.1301l-.7391 1.632h-.1958l.7205-1.5986h-.8979v.3272h-.1774v-.4907z"/><path d="m81.8135 54.93c0 .3123-.2624.5056-.68.5056s-.6725-.1933-.6725-.5056c-.0012-.1001.0315-.1976.0926-.2766.061-.079.147-.1348.2436-.1583-.0806-.0218-.1515-.0704-.2011-.1379-.0497-.0675-.0752-.15-.0723-.2339 0-.2862.2402-.4647.6097-.4647.3696 0 .6172.1785.6172.4647-.0014.084-.0293.1654-.0798.2323-.0506.0668-.121.1157-.2011.1395.0978.0227.1849.0781.2474.1571.0624.079.0963.1769.0963.2778zm-.1848 0c0-.2156-.1848-.3531-.4952-.3531s-.4915.1375-.4915.3531.1811.3718.4915.3718.4952-.1487.4952-.3755zm-.4989-.4981c.2735 0 .4361-.1227.4361-.316s-.1737-.316-.4361-.316c-.2623 0-.4323.119-.4323.316s.1626.316.4323.316z"/><path d="m83.9788 54.5248c0 .5985-.3252.9108-.8019.9108-.144.0051-.2868-.0283-.4139-.0966l.0739-.145c.1032.0594.2212.0878.34.0818.3696 0 .6171-.2454.6171-.7212.0034-.0471.0034-.0943 0-.1413-.0496.0971-.1265.1774-.2211.2309s-.2027.0779-.311.0702c-.0741.0083-.149.0009-.2201-.0217-.071-.0227-.1365-.0602-.1923-.1099-.0557-.0498-.1004-.1108-.1312-.179-.0309-.0683-.0471-.1423-.0476-.2173.0006-.0762.0171-.1514.0482-.2209s.0762-.1318.1325-.1828.1225-.0898.1944-.1137c.072-.0239.1481-.0325.2235-.0253.4471 0 .7095.3271.7095.881zm-.2476-.3494c0-.1933-.1589-.3718-.4619-.3718-.0532-.0087-.1077-.0055-.1596.0092-.0519.0148-.1.0408-.1408.0762-.0409.0354-.0735.0794-.0957.1289-.0221.0495-.0333.1032-.0326.1575 0 .2342.17.3717.4398.3717.1067.0083.2123-.0261.2939-.0957.0817-.0696.1327-.1688.1421-.276z"/><path d="m84.7178 53.6661v1.7621h-.1811v-1.5986h-.4139v-.1635z"/><path d="m85.1318 54.5397c0-.5613.2957-.8959.6985-.8959s.6984.3346.6984.8959c0 .5614-.2919.8959-.6984.8959s-.6985-.3345-.6985-.8959zm1.2121 0c0-.4684-.2069-.7435-.5136-.7435s-.5137.2602-.5137.7435.2106.7435.5137.7435c.303 0 .5136-.2751.5136-.7435z"/><path d="m87.2678 53.6661v1.7621h-.1811v-1.5986h-.4138v-.1635z"/><path d="m88.8237 53.6661v1.7621h-.1811v-1.5986h-.4138v-.1635z"/><path d="m89.7216 53.6661v1.7621h-.1773v-1.5986h-.4139v-.1635z"/><path d="m91.3327 55.2572v.1635h-1.2269v-.1301l.7391-.7175c.1959-.1933.2365-.3122.2365-.4312 0-.2045-.1441-.3309-.4102-.3309-.0891-.0057-.1783.009-.2609.0432-.0826.0341-.1564.0867-.2158.1539l-.1293-.1116c.0791-.0848.1756-.1514.2828-.195.1072-.0437.2225-.0634.338-.0577.3695 0 .5802.1821.5802.4758-.0057.1072-.0344.2119-.0842.3069-.0498.0949-.1194.178-.2041.2433l-.6097.5874z"/><path d="m92.0421 53.6661v1.7621h-.1959v-1.5986h-.4102v-.1635z"/><path d="m62.5753 53.2572v-.2677c0-.1242-.0491-.2433-.1364-.3312-.0873-.0878-.2057-.1372-.3292-.1372h-4.719c-.1235 0-.242.0494-.3293.1372-.0873.0879-.1364.207-.1364.3312v.2677z"/><path d="m56.925 53.6252v1.9703c0 .1243.0491.2434.1364.3312.0873.0879.2058.1372.3293.1372h4.719c.1235 0 .2419-.0493.3292-.1372.0873-.0878.1364-.2069.1364-.3312v-1.9703z"/><path d="m56.9951 64.0008c0-.5614.292-.8922.6984-.8922.4065 0 .6985.3308.6985.8922 0 .5613-.2957.8959-.6985.8959s-.6984-.3346-.6984-.8959zm1.2121 0c0-.4684-.2106-.7435-.5137-.7435-.303 0-.5136.2602-.5136.7435s.2069.7435.5136.7435c.3068 0 .5248-.2714.5248-.7435z"/><path d="m59.992 64.3911c0 .3123-.2624.5056-.68.5056s-.6725-.1933-.6725-.5056c-.0017-.0998.0309-.1971.0921-.2756s.1474-.1335.2441-.1556c-.0784-.0256-.1469-.0752-.1959-.1418-.049-.0667-.0761-.1471-.0775-.23 0-.2862.2402-.4647.6097-.4647.3696 0 .6172.1785.6172.4647-.0022.0832-.0301.1637-.0797.2303-.0497.0666-.1187.116-.1975.1415.0971.022.1837.0768.2456.1553.0618.0784.0951.1758.0944.2759zm-.1848 0c0-.2156-.1848-.3495-.4952-.3495s-.4915.1339-.4915.3495.1848.3717.4915.3717.4952-.1561.4952-.3754zm-.4804-.4982c.2735 0 .4361-.1226.4361-.3122s-.1737-.3197-.4361-.3197-.4324.1189-.4324.316c0 .197.1479.3159.4324.3159z"/><path d="m60.8752 62.7665h.1626l-.8278 2.3644h-.1441z"/><path d="m62.2831 64.7183v.1635h-1.2268v-.1301l.739-.7137c.1959-.1971.2329-.316.2329-.435 0-.2044-.1405-.3308-.4065-.3308-.0897-.0058-.1795.0089-.2627.043-.0832.0342-.1576.0868-.2177.154l-.1257-.1115c.0788-.085.1754-.1515.2827-.1945.1073-.0431.2228-.0617.3381-.0546.3696 0 .5765.1784.5765.4721-.0037.1072-.0312.2123-.0805.3075-.0492.0951-.1189.1781-.204.2427l-.595.5874z"/><path d="m63.6837 64.3614c0 .3011-.2069.5353-.6356.5353-.2303.0069-.4547-.0741-.6282-.2268l.0887-.1449c.0713.0682.1554.1214.2474.1566.092.0351.1901.0513.2884.0478.2994 0 .4546-.145.4546-.3717 0-.2268-.1368-.3718-.5839-.3718h-.3695l.0887-.881h.9571v.1598h-.8019l-.0592.5614h.2255c.5284.0185.7279.2267.7279.5353z"/><path d="m57.8118 61.9896v.1004h-.7686v-1.093h.7391v.1041h-.6282v.3718h.5617v.1003h-.5617v.4052z"/><path d="m58.7469 62.09-.3474-.4833-.3695.4833h-.133l.4139-.5614-.3696-.5316h.1294l.3288.4461.3252-.4461h.122l-.3696.5279.4139.5651z"/><path d="m59.8997 61.3725c0 .2305-.1699.3717-.4434.3717h-.2919v.3458h-.1146v-1.093h.4065c.2735 0 .4434.1413.4434.3755zm-.1145 0c0-.1747-.1146-.2751-.3326-.2751h-.2882v.5465h.2882c.218 0 .3326-.1004.3326-.2714z"/><path d="m60.5723 60.997h.4397c.1441 0 .2823.0576.3841.1601.1019.1025.1591.2415.1591.3864s-.0572.2839-.1591.3864c-.1018.1025-.24.1601-.3841.1601h-.4397zm.4323.9926c.1176 0 .2304-.047.3136-.1307.0832-.0836.1299-.1971.1299-.3154s-.0467-.2318-.1299-.3155c-.0832-.0836-.196-.1306-.3136-.1306h-.3178v.8922z"/><path d="m62.4459 61.5807v.5093h-.1072v-.1301c-.03.0464-.072.0837-.1215.108-.0494.0242-.1045.0344-.1594.0295-.181 0-.2956-.0966-.2956-.2379s.0813-.2342.3141-.2342h.2587v-.0483c.0032-.0306-.0006-.0615-.0112-.0904-.0106-.0288-.0276-.0548-.0497-.076s-.0488-.037-.078-.0462-.06-.0115-.0902-.0068c-.0997-.0016-.1967.0327-.2735.0967l-.048-.0818c.0944-.0753.2121-.1147.3326-.1115.0437-.0066.0883-.0029.1304.0106.0421.0136.0806.0368.1124.0677s.0561.0687.071.1106c.0149.0418.0201.0866.0151.1308zm-.1109.2602v-.1338h-.255c-.1589 0-.2106.0632-.2106.1487s.0776.1524.2069.1524c.0548.0039.1094-.0098.1559-.0393.0465-.0294.0825-.0729.1028-.1243z"/><path d="m63.1739 62.038c-.047.0409-.1078.0621-.17.0594-.032.0035-.0644-.0003-.0949-.011-.0304-.0107-.0581-.028-.0811-.0508-.023-.0227-.0406-.0503-.0517-.0808-.0111-.0304-.0154-.063-.0125-.0953v-.4981h-.1441v-.093h.1441v-.1673h.1109v.1785h.2476v.0929h-.2476v.4721c-.0029.0196-.0013.0396.0046.0584.0059.0189.016.0361.0296.0504.0135.0144.0301.0254.0485.0323.0184.007.0382.0095.0577.0076.0441.0009.0872-.0135.122-.0409z"/><path d="m64.0571 61.7145h-.6651c.0057.0803.0427.155.1029.2079.0602.053.1388.0798.2186.0747.0472.0019.0942-.0067.1377-.0254.0435-.0186.0823-.0468.1136-.0824l.0628.0743c-.0403.044-.0896.0787-.1444.1018-.0549.0231-.114.034-.1734.032-.056.0032-.1121-.0055-.1645-.0254-.0525-.0199-.1003-.0506-.1403-.0901s-.0714-.0871-.0921-.1395-.0302-.1086-.0281-.165c-.003-.0539.005-.1079.0235-.1586.0186-.0506.0473-.0969.0844-.136.037-.039.0817-.07.1312-.0909.0494-.021.1026-.0315.1563-.0309.0546-.0043.1095.0037.1607.0234s.0973.0506.1352.0904c.0378.0399.0664.0877.0836.14.0172.0524.0227.1079.0159.1626zm-.6836-.0855h.5802c-.0081-.0717-.0421-.1379-.0956-.186s-.1228-.0747-.1945-.0747c-.0718 0-.141.0266-.1945.0747s-.0875.1143-.0956.186z"/><path d="m77.6337 63.1234v1.7584h-.1773v-1.5985h-.4139v-.1599z"/><path d="m79.2451 64.7183v.1635h-1.2269v-.1301l.7391-.7137c.1958-.1971.2365-.316.2365-.435 0-.2044-.1442-.3308-.4102-.3308-.0891-.0058-.1784.0089-.261.0431-.0826.0341-.1564.0868-.2157.1539l-.1294-.1115c.0792-.0846.1758-.1508.283-.1938.1073-.043.2226-.0619.3379-.0553.3695 0 .5801.1784.5801.4721-.0057.1072-.0344.2119-.0841.3069-.0498.095-.1194.178-.2041.2433l-.595.5874z"/><path d="m80.6271 64.3762c0 .2937-.2143.5205-.6356.5205-.2304.0072-.455-.0738-.6282-.2268l.0887-.145c.0717.0687.1564.1222.2491.1574.0927.0351.1914.0511.2904.0471.2919 0 .4508-.1339.4508-.3532s-.1478-.3494-.473-.3494h-.1256v-.1339l.4841-.6096h-.8943v-.1599h1.1086v.1264l-.4952.6246c.3917.0223.5802.2193.5802.5018z"/><path d="m77.1019 61.5435c-.0011-.0748.013-.149.0414-.2181.0284-.0692.0706-.1317.1238-.1839.0533-.0522.1166-.0929.186-.1197.0694-.0267.1436-.039.2179-.0359.0733-.0025.1463.0105.2144.038s.1297.069.181.1218l-.0703.0744c-.042-.0425-.0922-.0759-.1474-.0983-.0553-.0224-.1145-.0332-.1741-.0318-.0623-.0057-.1252.0017-.1846.0218s-.1139.0525-.1602.0949c-.0462.0425-.0832.0943-.1084.1519-.0253.0577-.0384.12-.0384.183 0 .0631.0131.1254.0384.183.0252.0577.0622.1094.1084.1519.0463.0425.1008.0749.1602.095s.1223.0275.1846.0218c.0597.0023.1192-.0082.1746-.0306s.1054-.0563.1469-.0995l.0703.0743c-.0513.0539-.1135.096-.1823.1236-.0689.0276-.1428.04-.2168.0363-.0739.003-.1475-.0091-.2165-.0357-.069-.0265-.1319-.067-.1848-.1188-.0529-.0519-.0947-.114-.123-.1827-.0282-.0687-.0422-.1424-.0411-.2167z"/><path d="m79.7922 60.997-.3696 1.093h-.1219l-.3178-.9331-.3178.9331h-.122l-.3695-1.093h.1182l.3141.9405.3252-.9405h.1072l.3178.9443.3178-.9443z"/><path d="m67.9409 74.328h-.9756l-.2106.4721h-.1922l.7982-1.7584h.1848l.7982 1.7584h-.1959zm-.0702-.1487-.4139-.9442-.4213.9442z"/><path d="m68.4508 74.1384c-.0031-.0898.0123-.1794.0452-.263.033-.0835.0828-.1593.1464-.2225.0635-.0633.1394-.1126.2228-.1448.0835-.0322.1726-.0467.2619-.0426.1012-.006.2022.0153.2925.0617s.1667.1162.2212.2023l-.1294.0892c-.0414-.0602-.0966-.1095-.1609-.1438s-.1358-.0525-.2086-.0532c-.1363 0-.2669.0544-.3632.1513-.0964.0969-.1505.2284-.1505.3654 0 .1371.0541.2685.1505.3654.0963.0969.2269.1513.3632.1513.0724-.0005.1436-.0183.2078-.0519.0643-.0336.1197-.0821.1617-.1414l.1294.0892c-.0555.0849-.1322.1535-.2223.1992s-.1906.0667-.2914.0611c-.0893.0041-.1784-.0104-.2619-.0426-.0834-.0322-.1593-.0815-.2228-.1447-.0636-.0633-.1134-.1391-.1464-.2226-.0329-.0836-.0483-.1731-.0452-.263z"/><path d="m70.694 74.7184c-.078.0641-.1766.0972-.2772.0929-.0494.0033-.0989-.0041-.1452-.0216s-.0884-.0448-.1234-.08c-.0349-.0352-.0621-.0775-.0795-.1241s-.0247-.0964-.0214-.146v-.8104h-.2328v-.1525h.2291v-.2899h.1773v.2899h.4028v.1525h-.4028v.7881c-.0046.0318-.002.0643.0077.095.0097.0306.0262.0587.0483.082s.0492.0412.0792.0524.0621.0154.094.0122c.071.0012.1402-.0225.1958-.0669z"/><path d="m70.9785 73.0604c0-.0345.0136-.0676.0379-.092s.0572-.0381.0915-.0381.0672.0137.0914.0381c.0243.0244.0379.0575.0379.092s-.0136.0676-.0379.092c-.0242.0244-.0571.0381-.0914.0381s-.0672-.0137-.0915-.0381-.0379-.0575-.0379-.092zm.0407.4164h.1773v1.3234h-.1773z"/><path d="m71.5552 74.1384c0-.1329.0391-.2628.1125-.3734.0733-.1106.1776-.1968.2996-.2479.122-.051.2563-.0645.3859-.0389.1297.0257.2488.0894.3425.1832.0937.0937.1577.2132.1839.3435.0263.1303.0135.2655-.0365.3885-.0501.123-.1352.2283-.2447.3027-.1096.0744-.2385.1145-.3706.1152-.0889.0031-.1774-.0122-.2601-.0448-.0828-.0327-.158-.0821-.221-.1452-.063-.063-.1125-.1384-.1455-.2215-.0329-.083-.0486-.172-.046-.2614zm1.1567 0c-.0051-.0959-.0381-.1882-.0948-.2655s-.1348-.1361-.2245-.1692c-.0896-.033-.187-.0389-.2799-.0168-.093.0221-.1774.0711-.2429.141s-.1092.1577-.1256.2523-.0048.1921.0333.2801c.0381.0881.1011.163.1812.2154.08.0524.1736.0801.2691.0795.0663.0006.132-.0125.193-.0386s.116-.0647.1614-.1132c.0455-.0486.0805-.106.1028-.1688.0223-.0629.0315-.1296.0269-.1962z"/><path d="m74.4779 74.0343v.7658h-.1774v-.7435c.0074-.055.0024-.1109-.0145-.1637-.017-.0528-.0455-.1011-.0834-.1414-.0379-.0402-.0843-.0715-.1358-.0914-.0514-.0199-.1067-.0279-.1617-.0236-.0626-.0047-.1255.0045-.1843.027-.0587.0225-.1118.0576-.1555.103-.0438.0454-.077.0999-.0975.1597-.0204.0598-.0276.1233-.0209.1862v.6952h-.1774v-1.3235h.17v.2565c.0533-.0832.1275-.1507.2151-.1958.0877-.045.1855-.066.2838-.0607.0728-.005.1458.0058.2141.0317.0682.026.1301.0665.1813.1187.0512.0523.0906.1151.1155.1841s.0347.1426.0286.2157z"/><path d="m75.8232 73.2016v.6915h.9017v.1598h-.9017v.7435h-.1848v-1.7584h1.1973v.1599z"/><path d="m77.1165 73.0604c0-.0345.0136-.0676.0378-.092.0243-.0244.0572-.0381.0915-.0381s.0672.0137.0915.0381c.0242.0244.0378.0575.0378.092s-.0136.0676-.0378.092c-.0243.0244-.0572.0381-.0915.0381s-.0672-.0137-.0915-.0381c-.0242-.0244-.0378-.0575-.0378-.092zm.0369.4164h.1774v1.3234h-.1774z"/><path d="m79.0417 73.4767v1.1636c.0139.0896.0065.1812-.0214.2674-.028.0862-.0758.1645-.1395.2287-.0638.0641-.1416.1122-.2273.1403s-.1768.0355-.2659.0216c-.2218.0097-.4397-.0616-.6134-.2008l.0887-.1375c.1453.1208.3288.1854.5173.1821.3326 0 .4841-.1561.4841-.4795v-.1785c-.0558.0833-.1321.1507-.2215.1957-.0893.0449-.1887.0659-.2884.0608-.0878.0068-.1761-.0048-.2592-.034s-.1594-.0753-.2239-.1355c-.0646-.0602-.1161-.1332-.1514-.2144-.0352-.0811-.0534-.1688-.0534-.2573 0-.0886.0182-.1762.0534-.2574.0353-.0812.0868-.1541.1514-.2144.0645-.0602.1408-.1063.2239-.1355.0831-.0291.1714-.0407.2592-.034.1014-.0041.2022.018.2928.0642.0905.0462.1679.115.2245.1997v-.2528zm-.17.6283c.003-.0999-.0238-.1983-.0768-.2828s-.1298-.1511-.2207-.1914c-.0908-.0403-.1916-.0523-.2893-.0347-.0977.0177-.188.0643-.2592.1338-.0713.0696-.1203.1589-.1408.2567-.0205.0977-.0115.1994.0258.2919.0373.0926.1012.1719.1835.2277.0823.0559.1794.0857.2787.0857.0647.0042.1295-.0053.1904-.0276s.1165-.0571.1634-.1022.084-.0994.1089-.1596c.025-.0602.0373-.1249.0361-.1901z"/><path d="m80.7233 73.4767v1.3235h-.17v-.2417c-.049.081-.1188.1472-.202.1917-.0833.0445-.1769.0656-.271.0611-.0755.0072-.1517-.0028-.2229-.029-.0713-.0262-.1358-.0681-.1889-.1226s-.0934-.1202-.1181-.1924c-.0247-.0721-.033-.1489-.0244-.2248v-.7658h.1774v.7435c-.008.0553-.0035.1117.0132.1649.0167.0533.045.1021.083.1428s.0846.0723.1364.0924.1074.0282.1628.0237c.0621.0031.1241-.0074.1817-.0308.0577-.0235.1096-.0592.1521-.1049.0426-.0456.0747-.1.0943-.1593.0196-.0594.0261-.1224.019-.1845v-.6952z"/><path d="m81.8688 73.4655v.1748h-.0444c-.0628-.0028-.1255.0083-.1836.0327-.0581.0243-.1102.0612-.1525.108s-.0739.1025-.0924.1629c-.0186.0605-.0237.1244-.0149.1871v.6728h-.1774v-1.3234h.17v.2602c.0459-.0902.1176-.1646.2058-.2136s.189-.0704.2894-.0615z"/><path d="m83.3469 74.1942h-1.1086c.0038.0645.0202.1276.0482.1857.0281.0581.0673.11.1153.1529.0481.0428.1041.0757.1648.0967s.125.0297.1891.0257c.0757.0021.151-.0125.2205-.0427.0696-.0301.1318-.0752.1823-.132l.0997.1152c-.0943.0996-.2157.169-.349.1995-.1334.0304-.2727.0207-.4005-.0282-.1279-.0488-.2385-.1345-.3182-.2463-.0796-.1118-.1247-.2448-.1296-.3822-.0045-.0874.0088-.1748.0392-.2568.0303-.082.0771-.1568.1374-.2199.0602-.0631.1327-.113.213-.1468.0802-.0337.1665-.0506.2534-.0494.0868-.0018.1731.0147.2532.0483s.1524.0837.2122.147c.0598.0634.1059.1385.1352.2207.0293.0823.0412.1697.035.2569 0 0 .0074.0334.0074.0557zm-1.1086-.1338h.9312c0-.1243-.049-.2434-.1363-.3312-.0874-.0879-.2058-.1372-.3293-.1372s-.2419.0493-.3292.1372c-.0873.0878-.1364.2069-.1364.3312z"/><path d="m68.7242 81.8523v.7732h-.6836v-.7435c-.6108-.0191-1.2038-.2111-1.711-.5539l.3695-.8402c.3948.2774.8546.4465 1.3341.4907v-1.1524c-.765-.1896-1.6149-.4424-1.6149-1.4312 0-.7435.5284-1.3606 1.6149-1.487v-.7658h.6836v.7435c.4912.028.9688.1733 1.3932.4238l-.3437.8475c-.322-.1923-.6787-.3187-1.0495-.3717v1.1747c.7613.1785 1.6001.435 1.6001 1.409.0074.7323-.5136 1.3531-1.5927 1.4833zm-.6836-3.0484v-.974c-.3696.0818-.51.2825-.51.5093s.2069.368.51.4647zm1.1788 1.6617c0-.2416-.1996-.3717-.4952-.4758v.9517c.3437-.0744.4952-.2528.4952-.4759z"/><path d="m74.3709 80.8857v.9145h-3.6289v-.7249l1.8477-1.7621c.4286-.4089.5026-.6543.5026-.8922 0-.3717-.2624-.5985-.7687-.5985-.1924-.0075-.3836.0326-.5569.1169-.1734.0842-.3235.2101-.4371.3664l-.8093-.5242c.2187-.2972.5076-.5351.8404-.6921.3329-.1571.6993-.2284 1.0664-.2075 1.0716 0 1.7849.5539 1.7849 1.4312 0 .4684-.1331.8959-.8056 1.5242l-1.1087 1.0483z"/><path d="m74.8181 79.3838c0-1.5948.8795-2.5018 2.0583-2.5018 1.1789 0 2.0584.907 2.0584 2.5018 0 1.5949-.8721 2.4982-2.0584 2.4982-1.1862 0-2.0583-.9033-2.0583-2.4982zm3.0007 0c0-1.1152-.3696-1.5539-.9424-1.5539-.5727 0-.9312.4536-.9312 1.5539 0 1.1004.3695 1.5502.9312 1.5502s.9276-.4535.9276-1.5502z"/><path d="m79.478 79.3838c0-1.5948.8795-2.5018 2.0584-2.5018 1.1788 0 2.0583.907 2.0583 2.5018 0 1.5949-.8721 2.4982-2.0583 2.4982-1.1863 0-2.0584-.9033-2.0584-2.4982zm2.997 0c0-1.1152-.3696-1.5539-.9386-1.5539-.5691 0-.935.4536-.935 1.5539 0 1.1004.3696 1.5502.935 1.5502s.9386-.4535.9386-1.5502z"/><path d="m82.6632 94.1052h-15.3211c-.9504-.001-1.8616-.3813-2.5336-1.0573s-1.05-1.5927-1.0509-2.5487c0-.9567.3775-1.8743 1.0496-2.5512.6721-.6768 1.5839-1.0575 2.5349-1.0585h15.3211c.471 0 .9374.0934 1.3725.2748.4352.1815.8305.4474 1.1634.7827.3329.3352.5969.7332.7768 1.1711s.2723.9072.2718 1.3811c0 .9563-.3777 1.8735-1.0499 2.5498-.6722.6762-1.584 1.0562-2.5346 1.0562z"/></g><g fill="#fff"><path d="m70.0879 90.0977c0 .4536-.3252.7249-.8611.7249h-.569v.6692h-.2218v-2.119h.7908c.5359.0149.8611.2863.8611.7249zm-.2254 0c0-.3383-.2218-.5316-.643-.5316h-.5617v1.0595h.5617c.4212.0149.643-.1784.643-.5279z"/><path d="m71.7026 90.5178v.9888h-.2032v-.249c-.0596.089-.1416.1604-.2378.2068-.0961.0464-.2029.0661-.3091.0571-.3696 0-.5765-.1859-.5765-.4647s.1552-.4498.6097-.4498h.5026v-.0967c0-.2713-.1515-.42-.4472-.42-.1924-.003-.3797.0629-.5284.1858l-.0961-.1598c.1839-.1457.4127-.222.6467-.2156.0846-.0123.1708-.0051.2522.0211.0813.0263.1556.0709.2173.1304.0616.0595.109.1324.1384.213.0294.0807.0402.1671.0314.2526zm-.2143.5093v-.2602h-.4952c-.3067 0-.4065.1226-.4065.2862s.1478.3011.3991.3011c.1076.0069.2145-.0212.305-.0801s.1598-.1455.1976-.247z"/><path d="m73.5836 89.9118-.7908 1.7845c-.133.3122-.2993.4126-.5248.4126-.1404-.0002-.2754-.0548-.3769-.1524l.0998-.1599c.0372.0391.082.0702.1315.0913.0496.0211.1029.0318.1567.0314.1441 0 .2402-.0669.3289-.2677l.0702-.1561-.7095-1.5911h.2254l.595 1.3569.5802-1.3495z"/><path d="m75.3907 91.5215v.3494h-.1515v-.3457c-.2652-.002-.5209-.0996-.7206-.2751l.0886-.1747c.1747.1566.3981.2473.632.2565v-.7956c-.3326-.0817-.6689-.1858-.6689-.5873 0-.29.2069-.5428.6689-.5762v-.3495h.1515v.3309c.2164.0037.4276.0681.6097.1859l-.0739.1784c-.1616-.1016-.3457-.1616-.5358-.1747v.803c.3399.0817.6984.1784.6984.5836 0 .3086-.2217.5651-.6984.5911zm-.1515-1.1971v-.7435c-.3105.0261-.4509.1859-.4509.3718s.2033.3048.4509.3717zm.6282.6357c0-.2416-.2181-.3234-.4767-.3717v.7435c.3289-.026.4767-.1784.4767-.3718z"/><path d="m77.8259 91.3133v.1933h-1.4781v-.1524l.8758-.8662c.2365-.2342.2808-.3717.2808-.5241 0-.2454-.17-.3941-.4915-.3941-.1072-.0054-.2143.0127-.3139.0532-.0995.0404-.1891.1022-.2625.181l-.1553-.1338c.0945-.1007.2094-.1797.3369-.2317.1276-.052.2648-.0756.4022-.0694.425 0 .6984.2193.6984.5725-.0053.1293-.0392.2558-.0993.3703s-.1448.214-.248.2914l-.7169.71z"/><path d="m78.0847 90.4472c0-.6766.3511-1.0781.8389-1.0781s.8425.4015.8425 1.0781c0 .6765-.3695 1.078-.8425 1.078s-.8389-.4015-.8389-1.078zm1.4597 0c0-.5651-.2513-.8774-.6208-.8774-.3696 0-.6209.3123-.6209.8774 0 .565.255.8773.6209.8773.3658 0 .6208-.3123.6208-.8773z"/><path d="m80.0764 90.4472c0-.6766.3696-1.0781.8426-1.0781s.8425.4015.8425 1.0781c0 .6765-.3695 1.078-.8425 1.078s-.8426-.4015-.8426-1.078zm1.4782 0c0-.5651-.2513-.8774-.6172-.8774-.3658 0-.6208.3123-.6208.8774 0 .565.2513.8773.6208.8773.3696 0 .5987-.3123.5987-.8773z"/><path d="m51.8217 82.7519c.5543 8.5689-3.3924 18.1121-3.3924 18.1121l-21.3187-6.0376-3.7175-1.0558c3.6954-5.1636 5.4544-15.3347 4.4899-23.5653-.0739-.6208-.1183-1.2045-.1516-1.7621-.3695-6.7882 2.4353-8.7733 4.804-11.7734 2.5868-3.2491 8.3442-15.5169 8.3442-18.4203 0-2.9033 7.2245-10.0112 5.617-18.0782 0 0 2.184-1.3644 4.379-.2454.9978.5056 1.9919 1.5205 2.7938 3.4015 1.8809 4.4202-.7613 16.9147-3.0081 19.978l-4.3273 18.0225s1.4597 2.5316 2.8935 7.1264c1.4253 4.6455 2.2961 9.4451 2.5942 14.2976z"/></g><path d="m27.7316 68.4432c1.2084 3.3272 2.4907 5.5762 2.3798 10.238-.1108 4.6618-2.5867 11.8366-1.8809 15.5652-.4033.1197-.7797.3166-1.1086.58l-3.7176-1.0558c3.6954-5.1636 5.4544-15.3348 4.4899-23.5653-.085-.6209-.1293-1.2045-.1626-1.7621z" fill="#1eb0d9" opacity=".4"/><path d="m50.6613 43.3054-4.3273 18.0225s1.4597 2.5316 2.8935 7.1265c-2.9304-4.751-5.4211-6.1711-5.4211-6.1711 1.9512-2.3532 3.4552-19.5653 3.4552-19.5653s6.1158-7.2305 5.5431-14.7957c-.1839-2.7568-.8363-5.4614-1.929-7.9963.9977.5055 1.9918 1.5204 2.7937 3.4015 1.8809 4.4201-.7613 16.9147-3.0081 19.9779z" fill="#1eb0d9" opacity=".4"/><g stroke="#263238" stroke-linecap="round" stroke-linejoin="round" stroke-width=".5"><path d="m23.3931 93.7706c3.6954-5.1636 5.4544-15.3347 4.4936-23.5653s2.0841-10.2901 4.6524-13.5392 8.3405-15.5132 8.3405-18.4203 7.2208-10.0038 5.617-18.0745c0 0 4.6082-2.8736 7.1728 3.1562 1.8809 4.4238-.7613 16.9146-3.0081 19.9816l-4.3236 18.0188s4.6155 8.0112 5.484 21.424c.5543 8.5689-3.3924 18.1151-3.3924 18.1151"/><path d="m37.6423 107.722s4.8521 3.004 7.6827 7.755"/><path d="m51.271 113.407s-4.1795.598-7.9562-3.948c-2.4205-2.911-9.7706-4.227-11.4557-11.8407"/></g><path d="m112.016 135.92c-10.698-5.149-4.22-9.275-18.9391-15.666-14.7187-6.39-14.8665-11.851-13.0928-24.409 1.7738-12.5577.3696-25.9148 4.6488-27.0486 4.2793-1.1339-3.348-18.4537 1.6408-24.5765l24.5523 48.0451z" fill="#000" fill-opacity=".7" opacity=".2"/><path d="m151.878 135.418c-.503-1.446-1.013-3.026-1.408-4.461-.51-1.859-.909-3.346-1.848-5.074-.148-.276-.306-.566-.484-.878-1.001-1.795-2.372-4.253-3.174-7.271-.54-2.034 0-7.041.502-11.896.37-3.487.706-6.7774.606-8.6435l-.029-.6618c-.251-4.8811-.776-15.0373-1.848-17.844-1.053-2.7064-2.036-3.1116-3.828-3.8328-.185-.0818-.37-.1561-.584-.2453-.673-.2826-1.818-.8774-3.138-1.5651-2.974-1.5502-6.677-3.4796-8.558-3.7175-1.76-.1989-3.539-.1161-5.273.2453-2.317-1.7881-6.26-4.0892-7.435-4.1376-.961-.0483-3.06.5577-4.065.8737l-.507.1635c-.636-.4966-1.311-.9417-2.017-1.3308-.048-.0261-.096-.0447-.137-.0632-1.305-.5391-3.274-.5577-4.35-.5279-.325 0-.58.0334-.694.0446-2.029-3.1413-4.0245-6.2677-4.8929-7.6395-1.8108-2.8848-7.4167-14.7548-7.4721-14.8701-.0065-.0152-.0166-.0287-.0295-.0391s-.0282-.0174-.0444-.0203c-.0172-.0024-.0346-.0024-.0518 0-.436-.1264-3.6473-.948-4.937 2.1821-1.4116 3.409.6024 10.8924 2.5683 13.6099.946 1.3085 3.5291 6.6469 6.1491 12.1711-.6725.6283-6.053 5.6283-8.6657 6.5614-2.1396.7621-1.637 11.7957-1.2342 20.6545.1515 3.2714.2771 6.0854.2402 7.7774-.0739 3.271 5.8424 7.777 11.5776 12.134 5.1734 3.948 10.5394 8.026 11.1674 10.989.174.832.669 1.509 1.26 2.271.987 1.264 2.258 2.755 2.798 5.576.159.848 1.511 1.956 2.586 3.766h38.817c-.325-.881-.939-2.487-1.567-4.301zm-53.8308-58.774c1.8809 3.9629 3.0448 6.3198 3.3258 6.5838.281.2639.262 1.5204.255 2.7435-.041 1.0707-.003 2.1429.111 3.2082-.458.4052-3.3518 3.0558-3.9357 5.2045l-2.4574-2.9108-.6209-9.1339c.3696-.3941 2.8972-3.0818 3.3222-5.6953z" fill="#fff"/><g fill="#1eb0d9"><path d="m140.74 102.109c.913 8.569.924 13.216 1.947 15.695 1.73 4.186 4.276 5.034 4.276 5.034-.847-1.623-1.52-3.331-2.007-5.097-.536-2.033 0-7.041.503-11.896.369-3.487.709-6.7806.613-8.6468l-.033-.6617c-.251-4.8774-.776-15.0336-1.848-17.8441-1.049-2.7063-2.036-3.1115-3.828-3.8364-.185-.0781-.37-.1524-.584-.2417-.673-.2825-1.814-.8773-3.137-1.565-2.975-1.5502-6.678-3.4796-8.559-3.7175-1.759-.2012-3.54-.1184-5.273.2453-2.317-1.7881-6.26-4.0893-7.435-4.1376-.961-.0483-3.566.7138-4.579 1.0372 4.435 3.6394 10.82 8.1785 10.82 8.1785 5.052 1.0112 4.405 3.2157 6.449 4.461 1.847 1.1153 3.614-2.1487 5.173-2.4349 2.04-.3718 4.357 1.7918 4.254 4.4164-.318 7.2305 2.464 13.6544 3.248 21.0113z" opacity=".4"/><path d="m115.205 75.5548s-4.002-3.3457-5.913-4.461c-1.91-1.1152-2.217-4.9592-.709-5.8922.057-.0346.121-.055.188-.0595l-.137-.0632c-1.304-.5391-3.274-.5614-4.349-.5279 2.217 4.1524 3.987 7.3384 4.464 8.0372 1.607 2.3346 6.456 2.9666 6.456 2.9666z" opacity=".4"/><path d="m109.133 127.585c.17-.888-1.286-3.491-1.925-4.546-1.452-2.409-18.3144-17.398-15.8718-21.398 2.4427-4.0004 4.6747-1.041 6.2194-.781 1.1086.186 4.1534-1.6395 4.1384-1.7919-.347-3.0818 2.48-5.0855 2.48-5.0855s-.259-12.2678-.909-12.0597c-.65.2082-8.4329-18.4202-8.4329-18.4202s-8.226-11.0039-7.7604-16.1378c.4657-5.1338 4.0354-5.2231 4.0354-5.2231v-.1375c-.436-.1264-3.6473-.948-4.937 2.1822-1.4117 3.4089.6023 10.8923 2.5683 13.6098.946 1.3085 3.5291 6.6469 6.1491 12.1711-.6726.6283-6.0531 5.6283-8.6657 6.5614-2.1396.7621-1.637 11.7957-1.2342 20.6545.1515 3.2717.2771 6.0857.2402 7.7767-.074 3.272 5.8424 7.777 11.5776 12.134 5.1736 3.948 10.5396 8.026 11.1676 10.989.174.833.669 1.51 1.26 2.272-.118-.918-.151-1.846-.1-2.77zm-11.086-50.9298c1.881 3.9629 3.045 6.3198 3.326 6.5837.281.264.262 1.5205.255 2.7436-.041 1.0707-.004 2.1429.111 3.2082-.458.4052-3.352 3.0558-3.9359 5.2045l-2.4574-2.9108-.6208-9.1339c.3695-.4053 2.8972-3.093 3.3221-5.7064z" opacity=".4"/></g><g stroke="#263238" stroke-linecap="round" stroke-linejoin="round"><g stroke-width=".5"><path d="m112.91 75.5065c-1.651-.5227-3.102-1.5458-4.153-2.9294-1.689-2.2751-8.322-12.6395-10.1591-15.5615-1.8366-2.922-7.4905-14.8738-7.4905-14.8738s-3.4737-1.171-4.8262 2.093.4989 10.6395 2.5572 13.4797c2.0584 2.8402 11.8396 24.7103 12.6156 25.4166.777.7063-.388 6.5428 1.168 7.9555"/><path d="m101.876 89.2316s-3.585 3.1413-4.0063 5.435l-2.6607-3.1488-.6282-9.2268s3.2113-3.2343 3.3887-6.1116"/><path d="m95.0355 69.9786s-5.9533 5.6506-8.784 6.658c-2.8306 1.0075-.7649 22.1787-.9053 28.3094-.1405 6.13 21.4148 16.81 22.7378 23.085.525 2.498 2.697 3.008 4.024 7.807"/><path d="m103.509 64.7183s3.241-.2937 5.066.4721c1.826.7658 9.239 7.1711 11.027 8.3942 1.789 1.223 4.479 1.6877 4.989 3.0074"/></g><path d="m110.755 66.6068s3.326-1.1153 4.597-1.0521c1.272.0632 6.053 2.8997 8.197 4.7956 1.642 1.4658 3.534 2.6219 5.584 3.4127" stroke-width=".6"/><g stroke-width=".5"><path d="m122.769 69.7072c1.736-.3759 3.521-.4626 5.285-.2565 2.705.3717 9.497 4.3866 11.662 5.2937 2.166.9071 3.201 1.0744 4.339 4.0038s1.659 14.067 1.888 18.4686c.229 4.4012-2.051 17.0072-1.109 20.5542.943 3.546 2.643 6.282 3.674 8.178"/><path d="m94.5809 82.291s-.5174-2.1748-1.2564-2.4536"/><path d="m95.209 91.5178c.2492 1.2675.5863 2.5159 1.0088 3.7361.5322 1.3197-.2956 3.2305-.2956 3.2305"/><path d="m97.8697 94.6666c-.085 2.1115 2.0029 4.5799 2.5093 4.2305"/><path d="m108.501 82.2909s2.243-3.6505 4.394-3.829c2.151-.1784 4.634 2.8922 5.961 2.6023 1.326-.29 2.997-2.2528 5.229-2.6023 2.232-.3494 3.277.7212 5.048.8104 1.77.0892 1.951-2.29 4.064-2.6022 2.114-.3123 2.835.7435 4.254 1.0186s1.774-.8513 2.923-1.487"/></g></g></svg>