<svg fill="none" height="53" viewBox="0 0 53 53" width="53" xmlns="http://www.w3.org/2000/svg" xmlns:xlink="http://www.w3.org/1999/xlink"><clipPath id="a"><path d="m15.3711 21.2041h9.0261v9.0261h-9.0261z"/></clipPath><clipPath id="b"><path d="m26.7832 21.2041h11.4123v11.4123h-11.4123z"/></clipPath><circle cx="26.5" cy="26.5" fill="#fff" r="26.5"/><rect fill="#1eb0d9" height="19.0205" rx="1" width="29.4818" x="12.5176" y="17.3994"/><g clip-path="url(#a)"><path d="m0 0h9.0261v9.0261h-9.0261z" fill="#1eb0d9" transform="translate(15.3711 21.2041)"/><path d="m19.8844 29.4781c-2.0771 0-3.7609-1.6838-3.7609-3.7609 0-2.0772 1.6838-3.7609 3.7609-3.7609s3.7609 1.6837 3.7609 3.7609c0 2.0771-1.6838 3.7609-3.7609 3.7609zm0-.7522c.798 0 1.5632-.317 2.1275-.8813.5642-.5642.8812-1.3295.8812-2.1274 0-.798-.317-1.5633-.8812-2.1275-.5643-.5642-1.3295-.8812-2.1275-.8812-.7979 0-1.5632.317-2.1275.8812-.5642.5642-.8812 1.3295-.8812 2.1275 0 .7979.317 1.5632.8812 2.1274.5643.5643 1.3296.8813 2.1275.8813zm-.3761-1.5044h-1.1282v-3.0087h1.1282v-.7522h.7522v.7522h.3761c.1746 0 .3458.0486.4943.1404s.2686.2232.3466.3794c.0781.1561.1112.331.0955.5049s-.0795.34-.1842.4797c.1047.1397.1685.3058.1842.4797s-.0174.3487-.0955.5049c-.078.1562-.1981.2875-.3466.3793s-.3197.1404-.4943.1404h-.3761v.7522h-.7522zm-.3761-1.1282v.3761h1.5044c.0499 0 .0977-.0199.133-.0551.0352-.0353.055-.0831.055-.133s-.0198-.0977-.055-.133c-.0353-.0352-.0831-.055-.133-.055zm0-1.1283v.3761h1.5044c.0499 0 .0977-.0198.133-.0551.0352-.0353.055-.0831.055-.133 0-.0498-.0198-.0977-.055-.1329-.0353-.0353-.0831-.0551-.133-.0551z" fill="#fff"/></g><g clip-path="url(#b)"><path d="m0 0h11.4123v11.4123h-11.4123z" fill="#1eb0d9" transform="translate(26.7832 21.2041)"/><path d="m28.21 23.1061h8.5592v.9511h-8.5592zm0 3.3286h5.7061v.9511h-5.7061zm0 3.3286h8.5592v.951h-8.5592z" fill="#fff"/></g></svg>