<svg width="28" height="20" viewBox="0 0 28 20" fill="none" xmlns="http://www.w3.org/2000/svg">
<path d="M16.7091 5.97701V19.008H11.3368V0.992013H25.0575C26.0331 0.992013 26.8241 1.78295 26.8241 2.75862V4.98499H17.7011H16.7091V5.97701ZM2.75862 0.992013H6.82403V4.98499L0.992013 4.98499V2.75862C0.992013 1.78295 1.78295 0.992013 2.75862 0.992013ZM6.82403 11.4218H0.992013V8.57821L6.82403 8.57821V11.4218ZM0.992013 17.2414V15.015H6.82403V19.008H2.75862C1.78295 19.008 0.992013 18.2171 0.992013 17.2414ZM25.0575 19.008H21.2218V15.015H26.8241V17.2414C26.8241 18.217 26.0331 19.008 25.0575 19.008ZM21.2218 8.57821L26.8241 8.57821V11.4218H21.2218V8.57821Z" stroke="white" stroke-width="1.98403"/>
</svg>
