<svg width="128" height="105" viewBox="0 0 128 105" fill="none" xmlns="http://www.w3.org/2000/svg">
<path fill-rule="evenodd" clip-rule="evenodd" d="M73.2289 0C103.373 0 127.776 23.5372 127.776 52.5C127.776 79.9468 105.925 102.527 78.0138 104.84V105H73.2289H0.579102L7.27788 79.9468C9.59055 74.5213 14.4551 71.5691 21.4729 70.7713H46.0351H74.3454H76.0201V70.6915C85.6695 69.8936 93.3253 62.0745 93.3253 52.5C93.3253 42.4468 84.7923 34.2287 74.3454 34.2287C73.7872 34.2287 73.2289 34.3085 72.6707 34.3085H64.7757C62.463 34.3085 55.2858 36.1436 53.1326 44.2021L51.1389 51.7021H30.2451C20.8349 52.2606 15.9703 47.234 18.8412 36.7021L24.0248 16.9947C27.454 4.22872 36.1464 0.239362 42.9249 0.239362H68.3643C69.9593 0.0797872 71.634 0 73.2289 0Z" fill="white"/>
</svg>
