<svg fill="none" height="239" viewBox="0 0 343 239" width="343" xmlns="http://www.w3.org/2000/svg" xmlns:xlink="http://www.w3.org/1999/xlink"><clipPath id="a"><path d="m0 0h343v239h-343z"/></clipPath><g clip-path="url(#a)" fill="#fff"><path d="m51.4499 238.992c-1.7674-1.192-3.508-2.43-5.31-3.569-1.7727-1.123-3.3135-2.443-4.3184-4.32-.0533-.099-.1413-.179-.3679-.457-.7677 1.273-1.4874 2.433-2.1751 3.614-.2426.417-.3839.893-.6185 1.316-.869 1.555-2.5457 1.604-3.46.069-1.2129-2.04-1.9513-4.266-2.5351-6.563-.5491-2.16-1.2022-4.296-1.8926-6.413-.3225-.989-.8983-1.772-1.9512-2.291-1.802-.893-1.77-3.397-.0107-4.381.4878-.273 1.1062-.489 1.65-.463 3.7186.19 7.4692-.184 11.1558.564 1.5888.324 3.1775.674 4.7289 1.137 7.1706 2.149 14.3146 4.384 21.4933 6.504 5.134 1.515 10.388 2.216 15.73 1.521 2.5377-.332 5.0434-.947 7.5438-1.516 2.3965-.548 3.5507-2.342 4.0705-4.569.3225-1.39.4212-2.831.6291-4.247.0586-.407.0426-.88.2532-1.193.2026-.304.6398-.598.9943-.625.4665-.035.7517.366.7944.871.1146 1.401.2506 2.799.3439 4.2.2772 4.232-2.1459 7.854-6.163 9.61-7.7998 3.409-15.7914 3.949-23.9377 1.663-7.2746-2.042-14.4985-4.269-21.7358-6.44-3.5826-1.075-7.1679-2.088-10.9612-1.962-.2559.008-.5145.024-.6637.032.7064 3.088 1.4021 6.122 2.1378 9.34.7038-1.267 1.3675-2.448 2.0179-3.635.1147-.211.168-.457.2693-.677.8263-1.801 2.8362-2.272 4.2437-.879.8157.807 1.5381 1.77 2.0739 2.783.869 1.644 1.9726 3.031 3.428 4.178.989.781 1.8953 1.663 2.8416 2.497 1.946 1.708 3.8439 3.491 6.3869 4.309-2.2285-.008-4.4569-.008-6.6854-.008z"/><path d="m272.798 238.992c.355-11.578 3.386-22.335 9.994-31.924 7.424-10.77 17.628-17.389 30.404-20.027.659-.137 1.347-.201 2.018-.188 1.064.022 1.821.663 2.005 1.575.181.887-.304 1.77-1.269 2.219-.437.203-.901.358-1.365.494-15.479 4.566-25.782 14.847-32.1 29.419-2.535 5.846-3.737 12.032-3.732 18.432-1.98 0-3.966 0-5.955 0z"/><path d="m0 193.67c3.47336-1.7 7.25593-2.368 10.9559-3.328 2.2924-.596 4.5263-1.425 6.7841-2.155.2239-.072.4345-.187.6344-.275-.0053-.099.0107-.163-.0133-.187-4.2891-4.095-6.0511-9.263-6.283-15.05-.1759-4.433.6451-8.702 2.2978-12.81.4452-1.104.8477-2.227 1.3782-3.288.2905-.586.7224-1.169 1.2368-1.559.7757-.585 1.6954-.54 2.5324-.029.8637.526 1.2795 1.347 1.1809 2.339-.0613.615-.2719 1.229-.4878 1.815-1.9993 5.424-2.5084 10.949-1.1756 16.606.4932 2.098 1.3968 4.028 2.4338 5.905.6077 1.101 1.1835 2.221 1.8259 3.43.6851-.497 1.3302-.989 1.9993-1.441.6291-.425 1.3195-.503 1.9939-.118.6718.385.9436 1.019.9197 1.781-.0054.216-.008.454-.0987.641-.4585.957-.8397 1.97-1.4394 2.831-1.4022 2.013-3.3801 3.363-5.6646 4.144-3.2521 1.109-6.5255 2.189-9.8496 3.047-3.72924.965-7.33588 2.165-10.689278 4.085-.14128.08-.311882.115-.46649068.171-.00533132-2.181-.00533132-4.368-.00533132-6.555z"/><path d="m186.468 238.992c-1.748-2.548-2.324-5.461-2.615-8.463-.04-.404-.114-.805-.202-1.407-.883.329-1.706.535-2.426.931-1.207.663-2.322 1.497-3.529 2.165-.923.511-1.893 1.013-2.903 1.267-1.552.39-2.906-.542-3.3-2.101-.365-1.433-.195-2.863.242-4.24.44-1.379 1.013-2.716 1.552-4.133-.416.102-.845.206-1.274.311-1.792.427-3.594.604-5.385.066-1.805-.54-3.172-1.593-3.569-3.547-.294-1.449.213-2.711 1.228-3.716.947-.935 1.941-1.839 3.013-2.622 1.935-1.414 3.974-2.687 5.915-4.098 1.975-1.438 3.894-2.957 5.814-4.47.373-.294.674-.698.959-1.088.459-.633.384-1.034-.29-1.446-1.157-.706-2.453-.815-3.759-.853-.227 1.265-.597 1.516-1.842 1.305-1.17-.201-2.124-.992-2.292-1.96-.206-1.179.317-2.098 1.292-2.625.811-.436 1.746-.799 2.65-.869 2.317-.176 4.476.431 6.318 1.906 2.194 1.759 2.583 4.304.922 6.576-.752 1.027-1.658 1.979-2.639 2.789-1.663 1.368-3.409 2.643-5.177 3.876-2.609 1.823-5.147 3.721-7.381 6.001-.213.217-.4.46-.65.749.807.59 1.658.644 2.487.529 1.341-.184 2.665-.478 3.998-.724.712-.131 1.424-.332 2.141-.372 1.45-.08 2.471.93 2.388 2.387-.037.666-.218 1.345-.453 1.973-.53 1.433-1.144 2.834-1.706 4.256-.221.556-.397 1.128-.466 1.802.378-.23.749-.476 1.138-.687 1.506-.818 2.991-1.693 4.545-2.412.749-.347 1.631-.457 2.468-.558 2.071-.252 3.615.655 4.353 2.611.347.923.621 1.912.699 2.89.226 2.935 1.146 5.595 2.825 7.998-1.698.003-3.393.003-5.089.003z"/><path d="m113.219 238.992c.703-1.751 1.255-3.585 2.135-5.242 4.179-7.878 9.724-14.65 16.735-20.172 2.468-1.944 5.115-3.604 8.202-4.401 1.41-.363 2.783-.435 4.129.393.925.57 1.482 1.294 1.645 2.342.085.551.141 1.107.194 1.663.048.516.326.714.827.682 1.25-.083 2.26-.685 3.135-1.521.141-.134.12-.535.05-.776-.597-2.069-1.005-4.173-.725-6.319.115-.885.448-1.807.917-2.566.965-1.559 2.916-1.695 4.039-.244.645.834 1.167 1.882 1.38 2.909.36 1.748.499 3.552.608 5.343.107 1.786-.624 3.182-2.212 4.123-1.04.614-1.978 1.403-3.021 2.018-1.716 1.016-3.558 1.66-5.597 1.438-2.829-.307-4.5-2.128-4.593-4.977-.008-.281 0-.562 0-.995-.651.235-1.179.393-1.674.615-2.168.968-4.068 2.35-5.849 3.895-7.021 6.084-12.614 13.254-16.396 21.792-1.314 0-2.621 0-3.929 0z"/><path d="m0 71.5547c.109292-.0882.237244-.163.322545-.27 2.073885-2.5422 4.619595-4.4803 7.535825-5.9452 2.51903-1.2644 4.90753-2.724 7.05063-4.5792 3.2228-2.7909 5.6832-6.1591 7.5439-9.9685 1.698-3.4752 1.8793-7.0439.3438-10.6341-.3225-.7511-.7144-1.5103-1.2288-2.1359-2.1646-2.617-4.6436-4.8786-7.6745-6.4692-1.1382-.5961-1.586-1.5371-1.1782-2.5502.3945-.9731 1.4874-1.4596 2.615-1.0372.8077.3021 1.5967.7111 2.3218 1.1815 2.4124 1.5666 4.6116 3.4191 6.4349 5.6352 4.3104 5.2475 5.0941 11.0912 2.4151 17.3118-1.7353 4.0312-4.2784 7.5518-7.4772 10.5592-2.4071 2.2642-4.9794 4.3734-7.9063 5.8945-4.83287 2.5128-8.10097 6.4424-10.686663 11.0858-.127952.2299-.287891.4384-.431837.6576 0-2.9058 0-5.8222 0-8.7361z"/><path d="m322.795 238.992c.208-2.318.462-4.635.614-6.958.271-4.117.522-8.237.69-12.359.045-1.096-.16-2.227-.392-3.309-.618-2.89-.027-4.571 2.378-6.312 2.572-1.86 5.528-2.761 8.591-3.368 2.661-.527 5.326-1.021 7.989-1.526.091-.016.184-.011.331-.019 0 1.286.018 2.545-.024 3.804-.006.166-.296.404-.499.47-1.866.607-3.769 1.105-5.606 1.784-2.265.836-4.505 1.761-6.706 2.758-1.125.511-.995.61-.829 1.807.224 1.628.391 3.272.439 4.916.075 2.545.099 5.098.019 7.643-.098 3.053-.33 6.103-.504 9.153-.029.506-.066 1.011-.098 1.516-2.13 0-4.26 0-6.393 0z"/><path d="m303.901 238.992c.304-1.494.597-2.991.92-4.483.235-1.088.509-2.168.797-3.382-.451.022-.824.032-1.194.056-4.06.244-8.12.514-12.185.714-1.154.056-2.332.006-3.473-.166-2.309-.342-3.335-2.101-2.437-4.271 2.383-5.764 4.828-11.501 7.272-17.237.293-.687.693-1.34 1.114-1.957.56-.815 1.376-1.067 2.146-.749.747.308 1.213 1.113 1.035 2.043-.179.925-.427 1.847-.763 2.726-1.767 4.652-3.569 9.287-5.358 13.931-.112.288-.202.588-.32.93.206.029.342.067.477.069 3.583.043 7.166.097 10.751.118 1.21.008 2.42-.027 3.628-.107.328-.021.693-.211.952-.43.925-.778 1.882-.995 2.809-.522 1.032.527 1.453 1.444 1.336 2.537-.139 1.3-.339 2.604-.653 3.871-.528 2.117-1.171 4.205-1.765 6.304-1.698.005-3.393.005-5.089.005z"/><path d="m151.298 238.992c.16-3.727.32-7.453.482-11.241-.245.118-.544.254-.834.401-3.439 1.724-6.995 3.106-10.833 3.606-.659.086-1.368.048-2.013-.101-1.762-.409-2.954-1.906-2.844-3.89.098-1.802.522-3.587.807-5.378.019-.118.083-.228.134-.337.432-.931 1.221-1.417 2.132-1.318.859.093 1.602.722 1.746 1.703.155 1.05.147 2.125.2 3.189.019.355.003.711.003 1.184.754-.16 1.407-.232 2.015-.438 2.063-.695 4.116-1.414 6.158-2.168 1.09-.401 2.14-.907 3.22-1.337.744-.297 1.434-.609 1.999-1.243.707-.791 1.861-.901 2.818-.436.959.468 1.484 1.422 1.375 2.585-.248 2.633-.512 5.264-.768 7.897-.237 2.438-.471 4.879-.709 7.319-1.698.003-3.393.003-5.088.003z"/><path d="m16.4231 238.992c-.4904-2.05-.677-4.114-.1439-6.183.3172-1.23.9836-2.262 1.9886-3.053 1.9699-1.556 4.4196-1.433 6.3203.398 2.1058 2.027 3.0628 4.604 3.3267 7.469.0427.457.0906.912.136 1.369-1.5994 0-3.1962 0-4.7956 0-.0133-.433-.016-.869-.04-1.302-.0613-1.168-.2105-2.328-.877-3.32-.2692-.401-.6877-.703-1.0369-1.051-.2799.431-.7331.832-.805 1.294-.2239 1.449-.3039 2.917-.4372 4.379-1.2129 0-2.4257 0-3.636 0z"/><path d="m0 150.538c2.58569-.198 5.42995 1.609 6.53087 4.247 1.20488 2.888 1.02095 5.772-.4505 8.496-1.39414 2.585-3.77724 4.224-6.08037 5.908 0-2.139 0-4.275 0-6.413 1.11958-.34 2.02057-1.011 2.73497-1.914 1.76467-2.235.7997-6.253-2.460407-6.309-.090632-.003-.1812649-.054-.274563-.083 0-1.31 0-2.622 0-3.932z"/><path d="m0 16.4703c.199925-.1684.413177-.3234.594442-.5079 3.156148-3.2533 6.304288-6.5146 9.463058-9.76524.2853-.29138.6025-.57742.9543-.76989.6105-.33148 1.2316-.26197 1.7487.21921.5172.48118.6211 1.088.3492 1.73224-.1199.28604-.2985.55871-.5011.79395-4.1398 4.81443-8.29023 9.62623-12.437998 14.43543-.045316.0534-.1119575.0882-.170602.131 0-2.0905 0-4.1783 0-6.2688z"/><path d="m194.463 238.992c-.995-2.307-1.624-4.702-1.293-7.218.184-1.398.605-2.783 1.058-4.122.269-.791.96-1.275 1.874-1.238.904.041 1.589.733 1.693 1.781.069.722.066 1.454.064 2.181-.011 2.917.285 5.769 1.674 8.405.029.056.013.139.018.211-1.698 0-3.393 0-5.088 0z"/><path d="m333.552 238.992c.149-3.096.29-6.191.458-9.284.021-.377.155-.762.296-1.12.32-.805.97-1.273 1.706-1.238.848.04 1.415.516 1.658 1.299.197.642.349 1.321.381 1.989.128 2.783.203 5.568.299 8.354-1.602 0-3.199 0-4.798 0z"/><path d="m160.158 142.783c2.677-2.919 5.404-5.587 8.637-7.729-.12-.168-.184-.294-.28-.39-2.14-2.211-3.031-4.916-3.1-7.937-.005-.288.027-.585.101-.863.166-.61.547-1.029 1.192-1.131.664-.107 1.231.123 1.551.703.24.436.395.938.491 1.433.394 2.018.93 3.964 2.258 5.614.434.54.749.657 1.34.195 1.928-1.508 3.922-2.93 5.844-4.443 1.847-1.454 4.131-1.024 5.187 1.085.322.647.554 1.35.749 2.048.848 3.04 1.658 6.09 2.498 9.134.29 1.054.626 2.094.935 3.141 1.064 3.617 3.38 6.28 6.379 8.424.096.069.206.12.381.219.126-.251.243-.481.352-.714 1.32-2.839 2.501-5.753 3.988-8.501 1.706-3.149 3.639-6.183 5.566-9.206 1.04-1.633 3.343-1.497 4.332.27.642 1.149 1.119 2.432 1.442 3.713.53 2.09.898 4.226 1.295 6.349.675 3.609 1.842 7.041 3.594 10.27 1.042 1.92 2.084 3.839 3.145 5.748 1.858 3.344 4.244 6.282 7.123 8.773 1.437 1.243 3.052 2.315 4.705 3.259 2.481 1.417 5.064 2.649 7.605 3.959.128.067.261.128.397.179 1 .361 1.109.588.672 1.577-.445 1.005-1.264 1.615-2.335 1.561-1.219-.058-2.495-.16-3.626-.574-2.359-.866-4.689-1.855-6.944-2.97-4.307-2.136-7.626-5.478-10.497-9.252-2.764-3.636-5.131-7.541-7.211-11.615-1.924-3.775-2.756-7.862-3.31-12.019-.054-.409-.12-.816-.187-1.222-.005-.035-.064-.061-.149-.139-.126.209-.259.401-.36.607-1.975 4.095-3.708 8.282-4.662 12.754-.547 2.564-2.821 3.916-5.233 2.935-5.537-2.256-10.076-5.694-12.201-11.538-1.274-3.507-2.231-7.129-3.329-10.7-.078-.254-.144-.511-.245-.869-.254.157-.451.27-.64.398-1.149.77-2.255 1.607-3.447 2.299-4.819 2.799-8.706 6.611-12.078 11-.325.423-.645.853-1.013 1.238-1.477 1.551-3.684 1.494-4.884-.278-.618-.912-1.02-2.045-1.252-3.136-1.645-7.715-1.416-15.395.637-23.008.448-1.663.946-3.318 1.538-4.935 1.682-4.6 4.462-8.426 8.002-11.815 7.032-6.7316 15.512-10.8484 24.487-14.1659 3.247-1.2002 6.501-2.4005 9.668-3.7879 1.69-.7405 3.255-1.8098 4.79-2.855 1.581-1.0773 2.562-2.6225 2.909-4.5392.077-.4303.192-.8527.314-1.2724.176-.6068.517-1.0693 1.21-1.0559.683.0133 1.069.4651 1.203 1.0773.338 1.5611.399 3.1276-.059 4.6835-.6 2.0209-1.789 3.6837-3.369 5.0042-1.315 1.0961-2.706 2.1707-4.228 2.9272-3.25 1.6173-6.555 3.1384-9.924 4.483-4.809 1.9194-9.373 4.3171-13.864 6.8621-1.317.746-2.517 1.732-3.679 2.716-1.703 1.438-3.332 2.965-4.98 4.47-3.185 2.908-5.435 6.437-6.818 10.513-1.544 4.548-2.703 9.188-2.919 14.003-.096 2.149.104 4.312.176 6.469.008.131.061.265.13.567z"/><path d="m280.134 128.232c-1.338-.08-2.647-.064-3.924-.262-2.129-.326-4.094-1.173-5.904-2.339-2.447-1.58-3.553-4.036-4.193-6.747-.632-2.678-.477-5.36.224-8.004 1.263-4.761 3.745-8.76 7.506-11.9488 2.975-2.5209 6.262-4.5685 9.679-6.4157.272-.1471.541-.3048.779-.4384-.6-.9678-1.171-1.8873-1.754-2.8256-1.107.2405-2.269.5587-3.452.7404-2.215.3422-4.348.0482-6.329-1.0666-3.054-1.7215-4.155-4.6541-2.934-7.9368 1.13-3.0474 3.302-5.2823 5.811-7.2097.893-.687 1.884-.5987 2.537.0295.613.5907.685 1.5023.094 2.4807-.603.9944-1.328 1.9167-1.922 2.9165-.64 1.08-1.266 2.1813-1.757 3.3335-.402.9463-.184 1.5291.741 2.0022.781.3984 1.663.7459 2.524.81 1.293.0963 2.605-.0802 3.908-.1363.419-.0187.528-.2727.629-.6469.288-1.0506.608-2.0932.992-3.1117.157-.4143.461-.8073.784-1.1174.592-.5694 1.33-.6897 2.092-.3929.744.2887 1.163.8795 1.229 1.6627.038.4518-.032.9169-.098 1.3714-.176 1.1762-.443 2.339-.552 3.5206-.118 1.2751.221 2.4326 1.402 3.1384.245.147.685.2192.914.0989 1.967-1.0399 3.961-2.045 5.835-3.2346 1.957-1.2431 2.735-3.2507 3.007-5.44-1.117-.246-2.218-.3957-3.257-.7325-5.806-1.8739-8.466-6.7819-6.923-12.7325 1.269-4.8947 4.753-7.338 9.439-8.2603 3.833-.7538 7.323.286 10.37 2.6679 4.467 3.4885 6.685 8.2014 7.181 13.7885.189 2.1385.12 4.2664-.352 6.3756-1.138 5.0791-4.121 8.6479-8.805 10.8025-4.321 1.9889-8.882 2.4406-13.568 1.9889-.65-.0615-1.319-.0936-1.938-.2807-.871-.262-1.573-.0375-2.319.4063-3.854 2.2936-7.677 4.6327-11.113 7.5519-2.532 2.152-4.582 4.67-5.889 7.752-1.012 2.396-1.506 4.871-.935 7.464.544 2.473 1.786 4.507 3.934 5.897 2.082 1.345 4.271 2.467 6.88 3.064.163-.936.32-1.826.47-2.719.08-.479.098-.973.234-1.433.349-1.192 1.397-1.874 2.538-1.697 1.095.168 1.89 1.117 1.93 2.312.002.096.013.198-.006.291-.687 3.933-1.831 7.656-4.822 10.527-1.615 1.551-3.521 2.618-5.707 3.021-3.569.66-7.157 1.222-10.748 1.762-3.164.476-6.32.951-9.378 1.946-2.716.882-4.545 2.689-5.366 5.392-.328 1.082-.298 2.288-.33 3.44-.021.824-.197 1.144-1.04 1.184-1.189.057-2.034-.572-2.655-1.505-1.013-1.518-1.517-3.197-1.322-5.039.421-4.017 2.46-6.945 6.03-8.768 3.039-1.553 6.312-2.382 9.692-2.617 4.273-.297 8.562-.393 12.841-.617 1.034-.054 2.082-.182 3.086-.433 1.981-.492 3.245-1.816 3.98-3.631zm15.224-37.3044c3.497.0909 6.835-.4064 9.799-2.3605 2.015-1.3286 3.399-3.1384 4.126-5.456.688-2.1947.795-4.4269.557-6.6964-.418-4.0152-1.852-7.5171-5.003-10.177-2.756-2.3257-6.23-2.6064-9.317-.7645-1.46.8714-2.396 2.1225-2.679 3.7959-.677 4.0286 1.445 6.9504 5.255 8.7628 0-.2833.002-.5426 0-.7992-.008-.7272-.064-1.4596-.014-2.1814.048-.7271.405-1.2912 1.152-1.5157.666-.2005 1.413.0401 1.828.7111.299.4838.595 1.0452.648 1.5959.163 1.6841.379 3.3896.264 5.0657-.267 3.9377-2.002 7.0974-5.411 9.2253-.408.254-.803.5293-1.205.794z"/><path d="m200.495 213.802c.456.032.81.078 1.165.08 4.987.059 9.978.107 14.965.169 1.042.013 2.085.029 3.121.125.68.065 1.016-.122 1.293-.791.512-1.227 1.117-2.424 1.8-3.566.362-.607.906-1.147 1.476-1.574.864-.645 1.853-.725 2.786-.105.93.618 1.106 1.551.898 2.575-.096.473-.288.925-.421 1.392-.64 2.214-1.322 4.417-1.9 6.646-.48 1.842.133 3.358 1.527 4.643 2.207 2.035 4.804 2.473 7.642 2.035 4.628-.717 8.277-4.248 8.922-8.667.104-.711.128-1.467.006-2.17-.997-5.67-4.388-9.343-9.685-11.276-3.001-1.096-6.133-1.438-9.303-.872-1.01.182-2.018.524-2.956.949-1.602.725-2.634 1.938-2.78 3.788-.022.273-.195.693-.389.752-.216.066-.592-.134-.803-.324-2.324-2.093-2.612-5.266-.608-7.707 1.989-2.422 4.601-3.82 7.702-4.277 9.721-1.436 21.072 5.269 23.556 16.042 1.839 7.985-2.735 15.876-10.788 18.405-3.436 1.08-6.904 1.208-10.364.075-2.165-.708-4.009-1.927-5.569-3.582-1.796-1.906-2.567-4.189-2.423-6.795.014-.26.027-.519.046-.877-.355 0-.637-.014-.92.002-5.171.31-10.343.642-15.517.923-1.762.096-3.535.091-5.299.074-.672-.005-1.36-.106-2.007-.278-2.727-.719-3.684-3.127-2.234-5.536.727-1.205 1.45-2.411 2.183-3.614 3.953-6.499 7.493-13.211 10.452-20.226.312-.737.664-1.456 1.016-2.176.85-1.742 2.26-2.694 4.187-2.582 2.365.136 4.727.398 7.08.682 6.611.799 13.206 1.745 19.828 2.419 3.118.318 6.288.142 9.433.185 1.016.013 2.04-.051 3.047.042 1.426.131 2.239.931 2.234 2.032-.005 1.115-.824 1.802-2.274 1.975-4.878.591-9.775.532-14.656.18-6.834-.495-13.658-1.147-20.488-1.717-.89-.075-1.791-.101-2.684-.058-.285.013-.709.259-.811.505-3.078 7.474-7.018 14.497-11.158 21.415-.112.184-.192.38-.328.66z"/><path d="m231.425 44.8226c.314 1.4836.671 2.7454.834 4.0285.397 3.1651-.088 6.2981-.514 9.4258-.981 7.2123-2.882 14.2162-4.78 21.2227-1.08 3.9911-1.927 8.0437-1.794 12.2059.053 1.6574.301 3.3469.733 4.9455.725 2.6759 2.495 4.411 5.227 5.146 2.501.674 5.004.834 7.552.377 4.604-.824 8.842-2.5183 12.619-5.3038 3.125-2.3017 5.393-5.2476 6.254-9.089.259-1.1521.235-2.4273.053-3.6035-.421-2.7427-2.012-4.5498-4.718-5.3331-2.948-.8527-5.883-.8688-8.796.107-2.717.9089-5.06 2.4513-7.04 4.5043-1.419 1.473-2.578 3.2052-2.026 5.3492.807 3.1276 2.273 5.881 5.36 7.4128.267.131.445.4357.667.6603-.256.155-.493.3796-.773.4518-2.733.7191-5.132.0588-7.176-1.8633-1.408-1.3232-2.557-2.8577-3.41-4.5952-1.343-2.7428-1.428-5.539-.05-8.2763.583-1.1575 1.274-2.3444 2.191-3.232 5.742-5.5442 12.494-7.747 20.387-5.9131.141.0321.28.0802.418.1229 5.006 1.4382 7.957 4.7316 8.968 9.8509.629 3.1945.21 6.2366-1.117 9.1664-1.072 2.3632-2.485 4.5205-4.367 6.3088-5.531 5.2579-12.11 8.0969-19.744 8.3699-2.047.072-4.052-.318-6.003-.941-5.265-1.687-8.029-5.509-9.04-10.7677-.765-3.9911-.253-7.9502.672-11.8424 1.173-4.9347 2.551-9.8187 3.729-14.7508 1.347-5.6271 2.37-11.3158 2.368-17.13 0-1.3206-.275-2.6492-.51-3.9564-.191-1.0746-.919-1.6654-1.999-1.8231-.624-.0909-1.25-.1684-1.86-.3155-1.181-.2833-2.01-.981-2.226-2.2214-.214-1.2324.272-2.2482 1.317-2.8523.802-.4625 1.714-.8394 2.623-1.0052 5.877-1.0693 11.673-.7645 17.324 1.2832 2.663.965 4.955 2.5235 6.984 4.4856 2.86 2.7695 3.873 6.2955 4.1 10.1369.002.0241.002.0481 0 .0722-.075.5453-.019 1.2885-.664 1.3794-.352.0508-.872-.4251-1.17-.786-.568-.6897-1.056-1.4515-1.533-2.2107-3.26-5.1834-8.096-7.87-13.998-8.7976-1.65-.2513-3.353-.27-5.072-.4036z"/><path d="m145.897 164.045c-1.749 1.091-3.564 2.209-5.353 3.363-.141.091-.232.498-.149.658.584 1.139 1.114 2.323 1.858 3.35 1.024 1.411 2.236 2.681 3.332 4.041.373.466.717.992.93 1.546.35.916.147 1.788-.591 2.459-.72.655-1.544.676-2.445.355-.378-.136-.866-.192-1.245-.077-2.524.762-5.046 1.54-7.538 2.401-.856.296-1.626.847-2.429 1.293-.317.177-.605.409-.925.572-.789.407-1.588.436-2.337-.09-.731-.514-.952-1.254-.848-2.112.115-.939.304-1.877.333-2.818.08-2.644.088-5.29.133-7.937.011-.574.067-1.146.11-1.871-1.352.39-2.615.7-3.841 1.125-2.882 1-5.737 2.075-8.616 3.083-.981.345-1.988.625-3.001.86-1.81.423-3.564-.892-3.852-2.841-.192-1.289.181-2.454.823-3.548 1.072-1.817 2.429-3.408 4.055-4.728 2.655-2.152 5.305-4.323 8.09-6.293 2.828-2 5.793-3.804 8.751-5.611 1.277-.781 2.663-1.388 4.031-2.003 2.029-.914 3.9-2.045 5.507-3.6.691-.669 1.386-.778 2.037-.383.65.396.959 1.211.565 2.053-.384.821-.853 1.682-1.506 2.278-1.21 1.107-2.565 2.056-3.889 3.026-1.738 1.275-3.516 2.494-5.254 3.764-1.568 1.144-3.133 2.288-4.652 3.494-3.076 2.438-6.123 4.913-9.167 7.391-.405.329-.728.757-1.202 1.262.49-.067.861-.088 1.215-.171 3.252-.754 6.502-1.526 9.754-2.275.482-.112.669-.377.72-.847.082-.773.194-1.543.327-2.307.224-1.294 1.115-2.088 2.192-1.992 1.098.099 1.924 1.003 1.842 2.31-.102 1.644-.31 3.288-.614 4.908-.695 3.697-.677 7.439-.861 11.171-.002.04.038.086.064.137 2.981-.567 5.961-1.137 9.082-1.73-.298-.393-.469-.623-.642-.85-1.861-2.443-3.527-4.999-4.396-7.988-.136-.465-.245-.941-.306-1.419-.179-1.454.344-2.323 1.607-3.032 2.492-1.4 4.95-2.86 7.432-4.277.413-.238.56-.513.509-1-.077-.721-.101-1.454-.072-2.181.035-.874.501-1.465 1.192-1.644.719-.184 1.479.112 1.868.917.408.845.813 1.74.952 2.657.725 4.705 2.423 9.14 3.673 13.698 1.754 6.402 1.957 12.735-.357 19.038-.301.818-.658 1.62-1.061 2.393-2.386 4.582-6.182 6.966-11.308 7.405-3.63.31-7.202-.078-10.788-.511-2.476-.299-4.955-.593-7.442-.764-1.442-.099-2.903-.011-4.348.101-2.167.166-3.836 1.225-5.022 3.058-.773 1.195-1.405 2.444-1.589 3.874-.136 1.072.254 1.438 1.315 1.312.295-.034.599.011.901.019-.048.324-.032.674-.152.968-.534 1.315-1.794 1.986-3.309 1.802-1.823-.222-3.185-1.468-3.603-3.315-.36-1.577-.115-3.101.517-4.555 2.087-4.796 5.709-7.432 10.948-7.865 3.236-.267 6.434.091 9.641.38 3.087.278 6.169.689 9.261.807 1.866.069 3.756-.254 5.622-.503 1.324-.176 2.484-.818 3.446-1.756 3.988-3.879 6.099-8.535 5.593-14.173-.125-1.409-.499-2.831-.976-4.168-1.447-4.026-2.996-8.001-4.542-12.094z"/><path d="m59.0203 203.553c3.3454 2.882 7.3892 4.769 10.3161 8.186.3572-.292.7064-.54 1.0183-.832 1.8073-1.687 3.5986-3.387 5.4086-5.068.3732-.348.3546-.628.1173-1.067-1.0663-1.986-2.1032-3.991-3.1108-6.009-.2666-.535-.4718-1.128-.5678-1.717-.1813-1.09.1813-2.028 1.1116-2.665.9276-.633 1.9646-.676 2.8762-.072.7091.471 1.3995 1.088 1.8633 1.794 1.2476 1.903 2.3751 3.887 3.5374 5.849.4531.767.869 1.558 1.3888 2.494 2.0872-1.54 4.0838-3.01 6.131-4.52-.2266-.332-.3759-.575-.5491-.8-1.2476-1.612-2.5218-3.202-3.74-4.833-.5198-.695-1.0156-1.433-1.3648-2.224-.5998-1.361-.1839-2.807.901-3.593s2.5457-.69 3.6706.324c.5731.516 1.1329 1.085 1.5488 1.729 1.5621 2.425 3.1375 4.844 4.5663 7.349 1.1195 1.962.5677 4.141-1.1916 5.531-2.3005 1.82-4.6036 3.638-6.9174 5.44-2.7776 2.16-4.6409 2.109-7.3279-.163-.0906-.078-.1892-.142-.3332-.246-.3092.286-.6131.558-.909.839-2.0819 1.984-4.489 3.518-6.8454 5.143-1.9593 1.35-3.5267.765-5.2007-.28-1.7247-1.075-3.4414-2.166-5.1554-3.256-1.6767-1.064-3.3614-2.117-5.0194-3.211-2.8416-1.874-2.3805-4.881-1.0636-6.907.4585-.706 1.0449-1.345 1.65-1.933 4.3317-4.205 8.5941-8.49 13.0591-12.551 3.1321-2.85 6.4802-5.469 9.8523-8.038 5.7098-4.352 11.1024-9.009 15.4475-14.786.5518-.735 1.1729-1.422 1.802-2.093.3118-.329.6877-.626 1.0875-.834.8664-.452 1.7461-.412 2.5218.219.7753.628.9973 1.481.7383 2.427-.12.439-.325.867-.5677 1.252-1.9966 3.178-4.2651 6.135-7.1493 8.57-3.5187 2.972-6.9867 6.009-10.5827 8.883-4.6729 3.732-8.8393 8.009-13.195 12.078-3.1348 2.929-6.1657 5.969-9.2419 8.963-.1919.184-.3598.385-.5811.628z"/><path d="m120.848 98.867c.186-6.6803 1.245-12.8287 3.812-18.6403 2.532-5.7368 6.621-9.9818 12.406-12.5054 3.305-1.4408 6.645-2.6652 10.358-2.446 7.278.4304 12.51 7.3915 10.882 14.545-.47 2.0611-1.603 3.7399-3.045 5.2155-3.124 3.1945-6.379 6.2393-10.031 8.835-2.391 1.7002-4.72 3.4805-7.096 5.2021-.469.3395-.559.6362-.234 1.1281 1.069 1.617 2.082 3.275 3.175 4.876.757 1.109 1.764 1.927 3.121 2.229.211.046.421.129.608.238.354.209.912.388.992.685.231.868.415 1.823-.528 2.48-.12.083-.221.19-.347.265-4.212 2.486-7.648 5.94-11.3 9.124-.677.588-1.338 1.2-2.057 1.729-1.395 1.024-2.338.885-3.442-.43-.093-.11-.194-.222-.312-.302-1.202-.799-1.967-1.962-2.468-3.261-1.847-4.783-3.596-9.6-4.174-14.741-.176-1.521-.235-3.052-.32-4.226zm19.107 9.586c-.123-.115-.184-.187-.256-.24-2.641-1.904-4.51-4.459-5.971-7.314-1.263-2.4704-1.557-5.1356-1.074-7.8703.13-.7431.493-1.3713 1.17-1.7616.64-.3716 1.37-.2861 1.957.2085.757.6362.839.9998.511 1.9247-.069.1952-.01.4384-.01.5507 2.066-1.2805 4.052-2.6305 6.144-3.7826 3.807-2.0932 7.208-4.7289 10.476-7.5572.584-.5053 1.106-1.0907 1.594-1.6895.739-.9089 1.128-1.9648 1.181-3.149.253-5.424-4.563-9.6611-10.004-8.4153-7.216 1.6493-12.835 5.6458-15.978 12.5587-3.311 7.2765-4.598 14.946-3.401 22.8749.591 3.922 1.735 7.76 2.633 11.636.019.081.091.15.168.273 2.757-3.895 6.566-6.314 10.86-8.247z"/><path d="m315.006 122.806c.07-.131.12-.214.163-.3.339-.695.885-1.106 1.666-1.074.84.034 1.464.518 1.663 1.299.262 1.026.376 2.093.512 3.149.099.77.118 1.548.182 2.323.119 1.454.791 2.614 2.023 3.363.943.572 1.983.978 2.959 1.5.149.08.298.414.248.566-.307.941-1.085 1.321-1.978 1.495-2.821.548-5.974-1.257-7.088-4.05-.757-1.898-.84-3.882-.651-5.881.054-.578-.104-.797-.648-.96-2.111-.634-3.649-1.976-4.558-3.986-.981-2.173-.597-4.368 1.125-6.02 2.186-2.098 4.793-2.743 7.717-1.949.741.201 1.466.514 2.154.864 5.987 3.034 9.61 10.04 8.823 16.699-.733 6.229-3.534 11.327-8.05 15.556-1.693 1.585-3.644 2.726-5.904 3.291-2.746.684-5.201-.415-6.547-2.92-.851-1.579-1.122-3.306-1.152-5.065-.034-1.917.03-3.836.043-5.756.008-.866 0-1.735 0-2.628-.224 0-.307-.026-.355.003-2.596 1.641-5.08 3.408-6.685 6.132-.72 1.222-1.402 2.481-1.224 3.959.062.516.302 1.075.624 1.484.632.805.832 1.5.448 2.264-.373.743-1.224 1.203-2.127 1.11-1.2-.123-2.072-.797-2.706-1.77-1.122-1.716-1.295-3.633-1.016-5.606.099-.692.294-1.376.502-2.047.117-.377.037-.57-.24-.864-.805-.858-1.704-1.703-2.245-2.721-.861-1.62-1.599-3.334-2.146-5.082-1.615-5.173-2.977-10.409-3.534-15.825-.014-.142-.059-.284-.107-.516-.288.066-.554.141-.826.192-.765.144-1.456-.134-1.754-.722-.347-.681-.176-1.326.357-1.785.989-.856 1.991-1.711 3.079-2.428 1.202-.791 2.737-.323 3.369 1.04.421.912.701 1.92.872 2.914 1.215 7.073 2.991 14.002 5.219 20.819.051.158.115.313.192.529.123-.099.224-.155.293-.238 2.072-2.51 4.743-4.13 7.776-5.159 3.537-1.197 5.795.324 5.966 4.066.08 1.74-.147 3.491-.147 5.237 0 1.863.059 3.732.189 5.59.04.574.331 1.173.64 1.678.656 1.07 1.629 1.54 2.906 1.318 1.346-.235 2.58-.762 3.59-1.652 5.281-4.654 8.011-10.428 7.52-17.573-.026-.385-.072-.784-.197-1.147-1.4-4.015-3.9-6.991-8.002-8.426-1.168-.407-2.285-.302-3.335.393-1.983 1.31-1.791 4.189.402 5.317z"/><path d="m329.873 56.042c-1.962 1.1148-3.796 2.1333-5.595 3.2106-.192.1149-.272.5988-.235.8901.365 2.9139.792 5.8223 1.154 8.7388 1.027 8.287-.285 16.3227-2.769 24.1953-.528 1.6681-1.362 3.2881-2.309 4.7637-2.359 3.6835-5.032 7.1345-8.29 10.0945-1.381 1.256-2.658 2.627-4.041 3.878-1.256 1.137-2.535 2.265-3.919 3.235-.743.521-1.695.869-2.599 1.011-1.668.261-2.865-1.129-2.337-2.738.29-.885.85-1.764 1.511-2.424 2.21-2.214 4.449-4.406 6.806-6.459 2.985-2.601 5.509-5.5924 7.885-8.7307 1.226-1.62 2.177-3.395 2.751-5.3491 1.298-4.4296 2.5-8.8858 2.873-13.5105.323-3.9644-.115-7.8539-1.229-11.6713-.394-1.3526-.807-2.6999-1.127-4.0686-.709-3.0261.354-5.1887 3.27-6.2554 2.408-.8795 4.895-1.5371 7.366-2.2268.565-.1577.725-.3715.719-.9249-.005-.7485.027-1.513.174-2.2428.317-1.5639 1.604-2.5396 3.076-2.422 1.461.115 2.535 1.3019 2.62 2.9085.016.3154 0 .6309-.008.9463-.184 7.7256-.064 15.4432.563 23.1474.101 1.2591.261 2.5129.359 3.7693.11 1.3767-.282 2.1787-1.13 2.4086-.85.2299-1.671-.3262-2.252-1.5505-.835-1.759-1.13-3.6596-1.352-5.5656-.618-5.3545-1.199-10.7143-1.794-16.0715-.029-.2379-.069-.4731-.141-.9864z"/><path d="m282.299.038269h4.108c-.155 1.213641-.214 2.400551-.47 3.539341-1.218 5.40793-3.342 10.44699-6.44 15.03959-2.034 3.0154-4.206 5.9399-6.36 8.8697-2.916 3.9644-5.481 8.1266-7.368 12.6844-.49 1.1816-.904 2.4166-1.173 3.6677-.498 2.3284.424 3.6677 2.727 4.205 1.656.3849 3.316.3742 4.977.0508 5.784-1.1281 10.047-4.3761 12.952-9.4552.374-.655.603-1.4436.704-2.1974.181-1.3366-.576-2.2963-1.885-2.6037-1.076-.254-2.124-.1069-3.134.2994-1.866.7485-3.258 2.0584-4.34 3.7345-.269.417-.235.7859.104 1.112.346.3342.725.6363 1.096.9463.271.2273.551.4438.882.7085-.195.1764-.293.3341-.432.3822-1.703.5935-3.399.7672-4.851-.5614-1.405-1.2858-1.579-2.9619-.928-4.63 1.602-4.1007 4.593-6.5975 8.97-7.2551 1.01-.1524 2.095-.1096 3.103.0722 4.505.818 7.189 5.0818 6.208 9.7465-.376 1.7884-1.186 3.3817-2.234 4.8626-3.724 5.2796-8.93 8.2897-15.077 9.8108-2.234.5533-4.494.58-6.776.163-6.078-1.112-7.81-6.2981-6.859-10.3186.483-2.0423 1.203-4.0526 2.034-5.98 1.927-4.4563 4.553-8.5035 7.525-12.3342 2.173-2.7962 4.327-5.6111 6.398-8.4822 2.807-3.8922 4.814-8.18806 6.067-12.82877.139-.51326.219-1.04523.296-1.57185.08-.5293.115-1.06127.176-1.676111z"/><path d="m199.117 50.8159c-1.069.1444-2.042.286-3.018.4063-2.788.3422-5.571.7031-8.364.9945-.683.0722-1.416.0026-2.077-.1818-1.498-.417-2.215-1.8258-1.751-3.3201.136-.4358.354-.8501.578-1.2511 3.306-5.9052 6.632-11.7996 9.916-17.7181.893-1.6066 2.216-2.4701 3.996-2.6519 2.746-.2806 5.502-.4704 8.24-.8046 5.648-.687 11.286-1.4489 16.929-2.168.526-.0668 1.064-.1016 1.594-.0802 1.141.0481 2.01.802 2.149 1.8125.147 1.0612-.475 2.053-1.645 2.3257-1.506.3502-3.041.5827-4.571.8233-6.864 1.0747-13.731 2.1439-20.601 3.1865-.847.1283-1.327.532-1.762 1.2751-2.281 3.8922-4.635 7.7417-6.957 11.6098-.442.7378-.864 1.4917-1.381 2.3872 1.21-.1096 2.237-.2005 3.263-.294 1.978-.1791 3.953-.377 5.931-.5293.453-.0348.616-.2085.712-.6309.264-1.1843.565-2.3605.871-3.534.091-.3502.206-.7031.374-1.0212.472-.8982 1.375-1.3286 2.303-1.1388.962.1978 1.671.9677 1.687 2.0076.011.7191-.082 1.4569-.242 2.16-1.291 5.7287-2.607 11.4521-3.911 17.1781-.312 1.3714-.602 2.7454-.928 4.2424.339-.0241.59-.0267.837-.0588 3.671-.4919 7.355-.9062 10.93-1.9434.474-.1364 1.01-.1417 1.506-.0909.783.0802 1.349.5319 1.591 1.3018.251.7993.051 1.5478-.592 2.0343-.546.4117-1.202.7619-1.86.9223-3.314.8127-6.646 1.5505-9.972 2.3204-1.368.3154-2.722.711-4.106.9383-.714.1176-1.522.0935-2.207-.1203-1.175-.3663-1.802-1.3286-1.807-2.553-.003-.8367.141-1.6948.349-2.5101 1.232-4.7958 2.501-9.5808 3.756-14.3686.075-.278.139-.556.24-.957z"/><path d="m209.3 9.09495c-.643.62553-1.235 1.15485-1.77 1.73755-.739.802-1.434 1.6467-2.152 2.4701-1.828 2.1012-4.059 3.681-6.554 4.8599-.949.4491-2.005.7592-3.045.9143-2.697.4009-5-.4786-6.725-2.5984-.96-1.1789-1.73-2.5155-2.599-3.7693-.493-.711-1.013-1.4034-1.626-2.2481-.451.5774-.88.981-1.133 1.4756-.618 1.2083-1.154 2.4567-1.727 3.689-.829 1.7804-1.568 3.6115-2.514 5.3278-3.316 6.0174-8.895 6.405-13.232 4.5551-5.206-2.2214-8.906-6.0896-11.279-11.2355-.029-.0669-.051-.1364-.074-.2059-.414-1.1789-.208-2.1867.549-2.7079.765-.5267 1.796-.3983 2.705.4731 1.067 1.0212 2.032 2.1493 3.087 3.1865 1.554 1.5291 3.108 3.0608 4.737 4.5044 1.157 1.0238 2.551 1.6814 4.086 1.9541 2.061.3636 3.866-.123 5.012-1.9595.736-1.1815 1.287-2.4941 1.791-3.7986.525-1.3553.853-2.7855 1.338-4.1569.613-1.73489 1.522-3.30674 2.858-4.59791 2.666-2.56896 5.768-2.47273 8.189.31277.792.90889 1.429 1.9568 2.108 2.95924.464.6817.851 1.4168 1.32 2.0931 1.08 1.5559 2.036 1.8205 3.724.933 1.836-.9677 3.476-2.2081 4.79-3.84142.592-.73781 1.133-1.52106 1.77-2.2161 1.098-1.19493 2.167-2.4353 3.404-3.47519 2.271-1.91135 4.913-1.68947 6.931.49455.637.68969 1.143 1.50235 1.671 2.2856.611.90355 1.157 1.85255 1.773 2.75342.616.89824 1.423 1.57724 2.436 2.00764 1.576.6656 3.02.4517 4.215-.7619.845-.86079 1.572-1.84187 2.327-2.78819.746-.94097 1.53-1.24572 2.375-.86879.845.37692 1.301 1.29651.989 2.40857-1.714 6.11361-6.152 8.71471-11.497 7.10541-2.762-.8314-4.937-2.4139-6.558-4.7904-.538-.802-1.087-1.59057-1.7-2.48075z"/><path d="m51.1647 158.734c.7864-.856 1.5141-1.778 2.3778-2.545.8796-.781 1.8313-1.532 2.8682-2.077 2.0153-1.059 3.8572-.137 4.2198 2.122.6051 3.754.6744 7.542.3678 11.329-.1093 1.356-.2479 2.708-.4265 4.056-.0719.545-.2159 1.101-.4505 1.596-.3225.676-1.0716.815-1.5487.243-.4025-.481-.7624-1.104-.8664-1.711-.6211-3.633-1.1622-7.282-1.7326-10.925-.032-.212-.064-.42-.1173-.778-.2719.23-.4772.374-.6478.55-1.1089 1.155-2.1832 2.342-3.3241 3.465-.5278.518-1.1275 1.018-1.7833 1.347-1.5381.773-3.2201.048-3.7399-1.593-.2026-.636-.2719-1.334-.2799-2.005-.0267-2.232-.0027-4.467.0107-6.702.0053-.994-.3119-1.283-1.2876-1.01-3.1934.895-5.979 2.523-8.2742 4.919-3.9105 4.079-5.102 8.99-4.1078 14.462.5385 2.959 2.8123 4.312 5.7126 3.536 1.4714-.393 2.7989-1.085 3.9291-2.122.7144-.652.7331-.928.216-1.759-.0267-.04-.0454-.088-.08-.12-.4345-.393-.869-.784-1.3035-1.174-.4425.5-.9996.941-1.2929 1.518-.3145.623-.7517 1.04-1.3621.992-.4932-.037-1.0556-.337-1.4048-.698-.2772-.286-.4079-.85-.3839-1.275.0987-1.751.5598-3.405 1.7034-4.785 1.2209-1.47 3.0415-1.9 4.7982-1.2 2.9135 1.163 5.31 5.52 4.5929 8.576-.2132.906-.6717 1.871-1.3008 2.545-2.3938 2.569-5.318 4.309-8.826 4.814-4.8009.69-8.8714-1.874-10.3908-6.488-2.0019-6.068-1.1755-15.339 6.6242-21.257 3.2521-2.468 6.9307-3.943 10.9612-4.534 1.2795-.187 2.511-.03 3.6306.687.12.077.2612.128.3999.171 1.4794.449 2.0099 1.107 2.0765 2.66.0613 1.43.0826 2.863.1253 4.296.008.232.0266.467.04.7.0906.059.1839.115.2772.174z"/><path d="m108.076 13.5352c-2.591 4.1034-6.394 6.2526-10.9101 7.3594-.4478.1096-.8823.2619-1.3301.3635-4.7876 1.0746-8.3675 3.9323-11.2545 7.7524-1.538 2.0343-2.3484 4.3546-2.0712 6.9477.0587.5533.2933 1.1254.5865 1.6012.3145.5106.2052.7726-.2426 1.064-1.7647 1.1521-4.1904.3582-5.0914-1.6895-.5438-1.2297-.5331-2.5102-.2453-3.788.7384-3.2827 2.2205-6.1511 4.7636-8.4099.6877-.6122 1.3835-1.219 2.0579-1.8472 2.3751-2.2108 5.1447-3.6891 8.2609-4.5498 1.6553-.4598 3.3107-.9303 4.9528-1.4409 2.2524-.7031 4.2495-1.8739 6.0005-3.4565.877-.7913 1.559-1.6975 1.882-2.8817.12-.4491.549-.81268.839-1.21366.158-.21386.395-.40366.467-.64158.397-1.32324 1.775-1.80709 2.788-.84741.541.51059.952 1.22701 1.24 1.9274.749 1.82045.949 3.76385.954 5.71265.021 7.076-1.738 13.6441-5.712 19.5493-2.682 3.9858-5.332 7.9929-8.1147 11.9038-1.3728 1.9301-2.9695 3.7105-4.5476 5.4801-2.4577 2.7588-4.8675 5.539-6.6242 8.8244-1.3248 2.4807-2.3591 5.0791-2.8442 7.8405-.2533 1.4355-.1946 2.9406-.136 4.4081.024.5882.3892 1.1816.6691 1.7376.2852.5668.7171.9063 1.4181.5882.136-.0615.3839-.0054.5118.0908.0694.0508.024.3128-.0266.4572-.4185 1.1468-1.5701 1.8445-2.727 1.4596-.7757-.2567-1.5701-.6951-2.1538-1.2645-2.5324-2.4754-3.1349-5.5603-2.4498-8.9285 1.0396-5.1139 3.4201-9.5836 6.7788-13.5239 1.4928-1.7509 3.1108-3.4003 4.7315-5.0337 1.938-1.9541 3.6467-4.0766 5.2087-6.3435 1.8713-2.716 3.7666-5.424 5.8059-8.009 4.702-5.9613 6.683-12.7753 6.616-20.2817-.008-.3021-.035-.6095-.051-.9169z"/><path d="m119.363 36.9259c-.109-3.0796-.179-6.1618-.336-9.2387-.181-3.6088.608-4.7717 3.951-6.1003 5.963-2.3711 11.897-4.8198 17.836-7.2524 1.399-.5721 2.22-.2647 2.831 1.1254.069.1577.226.3235.381.3876 1.402.5667 2.034 1.7082 2.191 3.1063.187 1.6627.171 3.3495.381 5.0096.421 3.3228.941 6.6323 1.416 9.9471.402 2.8122-.326 4.3039-3.015 5.1833-5.574 1.8205-10.834 4.328-16.042 6.9718-1.49.7565-3.02 1.4355-4.556 2.0958-.613.2647-1.279.4919-1.938.5534-1.559.147-2.897-.8287-3.26-2.414-.186-.8153-.21-1.6841-.192-2.5288.051-2.2829.165-4.5632.256-6.8435.032 0 .064-.0026.096-.0026zm20.774-18.2875c-.214.0748-.398.1176-.563.1978-4.899 2.4353-9.796 4.8759-14.698 7.3059-.368.1818-.48.4063-.408.8046.112.6202.234 1.2484.242 1.8766.067 4.221.102 8.4394.15 12.6604.002.2887 0 .5747 0 .957.296-.0882.525-.1363.741-.2245 1.794-.7298 3.622-1.3848 5.366-2.2188 3.393-1.6227 6.872-2.9994 10.438-4.1889 2.541-.8475 2.293-.3476 1.626-2.9673-1.183-4.6728-2.676-9.2734-2.894-14.2028z"/><path d="m116.177 152.094c-1.463-.391-2.961-.687-4.385-1.195-2.476-.883-4.736-2.211-6.882-3.724-6.7817-4.785-12.3876-10.696-16.7673-17.756-1.5301-2.464-2.7803-5.065-3.1855-7.99-.0666-.479-.0906-.968-.0719-1.452.0986-2.758 1.8953-4.656 4.6516-4.643 1.3488.008 2.7482.307 4.0331.741 2.5884.871 4.9128 2.269 7.04 4.004.576.471 1.301.754 1.882 1.214 6.344 5.015 11.862 10.791 16.162 17.683 1.173 1.879 2.183 3.847 2.607 6.05.128.662.208 1.35.184 2.023-.101 3-2.127 4.86-5.217 4.844-.013.07-.032.136-.051.201zm.731-5.673c-.181-.703-.256-1.457-.563-2.099-.951-1.986-1.839-4.028-3.022-5.87-3.847-5.975-9.029-10.706-14.6163-14.962-1.8979-1.446-4.2437-2.307-6.4162-3.371-.5945-.291-1.2929-.404-1.9593-.505-.9996-.15-1.2582.109-1.0662 1.117.1386.733.3198 1.497.6717 2.142 1.0103 1.849 1.9806 3.742 3.2095 5.442 4.3077 5.978 9.5648 11.019 15.5808 15.243 1.519 1.067 3.175 1.957 4.83 2.809.778.401 1.693.551 2.562.757.501.123.786-.128.789-.703z"/><path d="m270.735 177.735c.795 1.286 1.746 2.304 2.895 3.136 4.244 3.066 8.954 3.943 14.011 2.831 4.041-.89 7.909-2.318 11.449-4.497 1.311-.807 2.532-1.788 3.705-2.796 1.834-1.58 2.7-3.689 2.98-6.06.019-.163.003-.331.003-.615-.275.185-.485.329-.698.468-2.991 1.978-5.948 4.013-8.986 5.91-1.24.776-2.639 1.313-4.007 1.856-.917.363-1.722.05-2.103-.62-.384-.674-.251-1.548.461-2.174.672-.588 1.408-1.115 2.165-1.585 1.111-.687 2.26-1.318 3.412-1.938 3.39-1.826 6.443-4.125 9.332-6.659.163-.144.328-.289.507-.414 1.618-1.142 3.761-.281 3.851 1.686.235 5.031-.554 9.867-4.515 13.401-6.254 5.582-13.523 8.945-22.045 8.937-4.311-.006-8.306-1.275-11.852-3.812-1.836-1.313-3.249-2.962-4.091-5.085-.574-1.449-.531-2.892-.078-4.346.208-.669.755-.979 1.376-1.187 1.149-.385 2.3-.759 3.441-1.163 6.048-2.144 11.502-5.328 16.415-9.455.483-.407.957-.824 1.461-1.201.72-.537 1.413-.582 2.023-.176.597.396.888 1.195.661 2.008-.13.462-.304.935-.57 1.328-.421.618-.864 1.254-1.424 1.735-5.136 4.387-10.748 7.956-17.281 9.888-.794.225-1.602.383-2.498.599z"/><path d="m50.9354 118.104c2.7456-.423 5.4486-.671 7.9756-1.751.1306-.057.2453-.153.3626-.241 1.1648-.874 2.2311-.77 3.0388.449.7197 1.088 1.2849 2.28 1.9406 3.411.3705.639.789 1.248 1.3062 2.061.1413-.601.2132-.973.3172-1.336 1.1569-4.032 2.9296-7.75 5.5659-11.036.813-1.01 1.8473-1.243 3.0522-1.071 1.4368.203 2.8709.446 4.3157.577.8183.072 1.6527-.046 2.4791-.078.0079-.069.0159-.139.0239-.208-.1013-.094-.1972-.19-.3038-.278-6.2377-5.216-10.1775-11.8077-11.7476-19.8007-.1786-.9142-.1173-1.8819-.104-2.8229.0054-.3502.1466-.7137.2932-1.0399.4346-.9677 1.2956-1.4783 2.1886-1.3366.885.139 1.3541.8207 1.5834 1.9247.4425 2.1333.8796 4.2772 1.5167 6.3543.3705 1.2083.9943 2.3925 1.7327 3.4217 2.1405 2.978 4.5103 5.7714 7.2746 8.2044 1.6874 1.483 3.532 2.716 5.5872 3.63.3972.176.7944.369 1.1462.62.7304.521 1.0903 1.249.8984 2.149-.1893.904-.8051 1.439-1.6981 1.583-1.6233.262-3.2601.452-4.8834.716-.8584.142-1.7061.356-2.5511.575-2.3484.615-4.6782.201-6.992-.176-.901-.147-1.4395.08-1.9166.828-2.0659 3.243-3.7133 6.649-4.2491 10.509-.016.12-.032.24-.056.361-.4105 2.141-1.5674 2.654-3.5826 1.818-1.6847-.698-2.8656-1.866-3.7799-3.363-.5918-.973-1.1249-1.984-1.6634-2.986-.1839-.343-.3332-.482-.781-.351-2.8123.813-5.6246 1.631-8.4635 2.339-2.1299.532-3.4414-.36-3.8039-2.539-.3066-1.842-.4558-3.711-.7331-5.558-.1252-.834-.3518-1.66-.6104-2.464-.5811-1.808.4612-3.23 2.3405-3.246 1.5407-.013 3.0788-.168 4.6169-.222.5224-.018 1.0956-.037 1.5621.15.3358.136.6904.591.7463.946.048.313-.2239.859-.5064 1.006-1.0636.553-2.1779 1.013-3.2948 1.446-.5145.2-.6797.441-.6184 1.013.1759 1.641.2745 3.291.4025 4.935.0186.259.0426.518.072.877z"/><path d="m48.142 41.072c-.4585-.8688-.8477-1.6467-1.2742-2.4032-.7278-1.2885-1.5301-2.5369-2.2072-3.8521-.8317-1.6147-1.1969-3.3282-.6904-5.1433.7357-2.6385 3.0122-4.5498 5.9977-4.7236 1.6234-.0935 3.2708.1898 4.9075.3208.6744.0535 1.3435.2032 2.0179.2192 1.0236.0241 1.2555-.2192 1.1729-1.2564-.1146-1.4275-.3545-2.847-.4265-4.2745-.048-.9597-.016-1.9568.1973-2.8844.725-3.1624 3.1534-4.9856 6.3789-4.7289 1.73.1363 3.4414.5213 5.1634.7966 1.4261.2272 1.9406-.0855 1.9406-1.5451 0-1.2939-.2826-2.5877-.4559-3.88154-.0293-.21386-.1412-.41435-.1919-.62554-.1839-.78058.04-1.47561.6265-1.87927.6504-.44376 1.3754-.46514 1.9725-.01069.5038.38227.989.8982 1.2582 1.45957 1.1169 2.3364 1.3995 4.79307.6611 7.29787-.725 2.4567-2.6017 3.788-5.1447 3.5661-1.706-.1497-3.3907-.556-5.0914-.7966-2.1939-.3074-2.8256.2486-2.8283 2.4968-.0027 1.0425.112 2.0851.1679 3.1276.04.7753.1013 1.5532.0987 2.3284-.016 3.0208-1.7487 4.9989-4.7556 5.1807-1.4288.0856-2.8815-.2138-4.3237-.3315-1.0556-.0882-2.1298-.3234-3.1641-.2085-1.8633.2059-2.6737 1.5585-2.1032 3.3522.3012.9437.7437 1.8419 1.1622 2.7428.7437 1.6066 1.5488 3.1865 2.2712 4.8038.9223 2.061.5597 3.689-1.1569 5.1513-.7544.6415-1.5808 1.2056-2.4125 1.7456-3.0521 1.9862-5.9844 4.1328-8.698 6.5654-.6851.6148-1.3435 1.2618-1.9646 1.9381-.997 1.0826-1.7807 2.2936-2.0979 3.7692-.0506.2406-.2772.5427-.4905.6175-.1466.0508-.4691-.1951-.6211-.3849-1.6473-2.0664-2.1431-4.3707-1.2981-6.9049.725-2.168 2.0152-3.9698 3.6972-5.4962 3.1615-2.8683 6.7335-4.9802 10.9346-5.9212.2026-.0481.4052-.1203.7704-.2272z"/><path d="m15.4235 138.883c.2052-.073.2825-.081.3385-.121 3.8119-2.681 8.1836-4.298 12.2594-6.485.749-.404 1.6287-.634 2.4737-.767.9597-.153 1.8393.174 2.3778 1.061.5385.888.4425 1.823-.1573 2.598-.5384.698-1.1835 1.366-1.9113 1.853-1.2448.834-2.5563 1.582-3.8998 2.245-2.9003 1.431-5.6379 3.112-8.2183 5.064-.9649.729-1.9779 1.406-3.0255 2.004-.6184.353-1.3301.615-2.0312.733-1.8047.305-3.4654-.733-4.03049-2.478-.18393-.57-.26657-1.187-.29589-1.786-.38652-7.848-.10662-15.67.72508-23.487.5251-4.945.765-9.923 1.1436-14.884.0639-.821.1466-1.647.2932-2.457.0853-.468.2452-.949.4851-1.358.5918-1.0078 1.4981-1.5184 2.6763-1.3687 1.1809.1497 1.9593.8637 2.2365 1.9997.168.695.2133 1.446.1733 2.165-.2506 4.531-.4931 9.065-.8263 13.594-.5145 6.974-1.069 13.943-.8371 20.947.0107.286.032.567.0507.928z"/><path d="m337.974 145.052c1.706-1.09 3.297-2.112 5.019-3.213 0 1.783.014 3.398-.018 5.012-.003.179-.254.385-.43.524-1.098.874-2.26 1.679-3.302 2.617-.747.674-1.376 1.495-1.994 2.297-.968 1.256-2.293 1.769-3.623 1.326-1.245-.415-2.074-1.554-2.116-3.016-.032-1.066.029-2.136.026-3.202-.005-9.455.843-18.857 1.682-28.264.552-6.186.883-12.393 1.314-18.59.038-.532.048-1.0745.179-1.5851.304-1.1789 1.098-1.8579 2.303-2.0209 1.962-.27 3.924-.524 5.977-.7966 0 .7939.024 1.6761-.022 2.5582-.008.1604-.266.3743-.453.4464-.834.3262-1.695.5828-2.519.928-.221.093-.48.411-.491.633-.266 6.231-.517 12.463-.738 18.694-.192 5.432-.344 10.867-.517 16.299-.088 2.764-.189 5.528-.28 8.295-.005.31.003.615.003 1.058z"/><path d="m251.449 23.2924c-.165.2379-.304.4999-.501.7084-1.645 1.7483-3.298 3.4886-4.953 5.2235-1.677 1.7563-4.19 1.3152-4.998-1.0399-.624-1.8178-1.064-3.7532-1.224-5.6672-.461-5.4721.051-10.8667 1.917-16.0741.784-2.18937 1.882-4.20765 3.388-5.985341.181-.213858.501-.430389.76-.4330622 2.13-.0347518 4.26-.01871252 6.627-.01871252-2.429 3.36291572-4.569 6.70978572-5.497 10.67951572-.909 3.8895-1.474 7.8031-1.317 11.9947.323-.2539.528-.3956.707-.564.879-.8341 1.746-1.6815 2.625-2.5155 1.712-1.6227 3.69-2.8283 5.878-3.681.488-.1898 1.029-.3315 1.546-.3315 1.847.008 3.031 1.4114 2.73 3.2346-.109.6629-.307 1.3366-.6 1.9407-2.247 4.6327-2.988 9.6103-3.444 14.66-.093 1.0372-.272 2.0691-.427 3.1009-.207 1.3741-1.556 1.9274-2.556.9651-.536-.5133-1.018-1.2404-1.181-1.9488-.338-1.4783-.57-3.0074-.621-4.5204-.053-1.6173.056-3.2587.269-4.8653.211-1.5772.643-3.1223.976-4.6835-.035-.0588-.069-.1176-.104-.1791z"/><path d="m171.431 190.874c.264-.225.488-.404.699-.596 6.88-6.306 13.762-12.61 20.632-18.929.837-.77 1.557-1.671 2.415-2.414.546-.473 1.213-.909 1.898-1.099.898-.248 1.719.155 2.29.92.567.764.671 1.63.248 2.473-.232.459-.595.892-.992 1.227-2.836 2.387-5.726 4.71-8.538 7.124-5.665 4.862-11.292 9.768-16.927 14.668-.381.331-.728.711-1.034 1.114-.973 1.278-2.941 1.722-3.85.171-.058-.098-.162-.187-.266-.237-1.693-.843-2.653-2.342-3.343-3.989-3.239-7.704-4.497-15.66-2.591-23.912.411-1.772 1.197-3.478 1.975-5.135.619-1.315 1.544-1.727 2.466-1.436.973.308 1.386 1.182 1.232 2.647-.043.409-.107.818-.19 1.221-1.415 7.002-.911 13.858 1.549 20.56.618 1.682 1.322 3.334 1.994 4.996.077.198.197.377.333.626z"/><path d="m281.376 155.804c-.074 2.344-.73 4.523-2.041 6.445-2.823 4.13-6.523 7.071-11.508 8.164-.283.062-.573.131-.858.134-.859.008-1.68.008-2.53.339-.824.321-1.666-.093-2.215-.756-.707-.853-1.48-1.732-1.885-2.735-1.69-4.184-3.279-8.407-4.843-12.639-.392-1.059-.635-2.192-.774-3.312-.066-.54.187-1.168.443-1.684.168-.337.568-.604.922-.794 3.708-1.973 7.608-3.323 11.857-3.229 3.62.083 6.944 1.251 9.927 3.306 2.349 1.618 3.46 3.922 3.505 6.761zm-15.186 11.046c1.058-.572 2.151-1.142 3.223-1.746 1.973-1.112 3.804-2.414 5.398-4.036 1.293-1.318 2.172-2.847 2.42-4.703.248-1.86-.317-3.357-1.999-4.32-2.292-1.309-4.739-2.119-7.4-2.034-2.538.083-4.971.733-7.341 1.623-.037.013-.059.072-.019.018 1.906 5.069 3.794 10.081 5.718 15.198z"/><path d="m330.838 180.406c-.864.668-1.578 1.296-2.365 1.812-1.831 1.206-3.702.644-4.462-1.422-.379-1.029-.576-2.165-.632-3.264-.09-1.767 0-3.542.014-5.314.002-.214 0-.425 0-.768-.299.177-.534.286-.733.436-3.775 2.82-8.48-.184-8.72-4.32-.224-3.847.445-7.594 1.509-11.276.067-.229.184-.451.312-.654.416-.674 1.085-.99 1.78-.859.686.131 1.277.677 1.328 1.457.061.987.016 1.989-.064 2.976-.163 2.007-.421 4.007-.552 6.017-.053.834.003 1.714.208 2.521.323 1.27 1.149 1.545 2.221.813 1.018-.698 1.999-1.455 2.993-2.187.253-.187.493-.39.747-.58.799-.594 1.663-.818 2.58-.321.914.497 1.226 1.355 1.151 2.342-.13 1.719-.319 3.432-.466 5.151-.117 1.379-.219 2.759-.309 4.141-.03.425-.006.85-.006 1.278.083.04.163.08.246.12.807-.821 1.631-1.625 2.417-2.467.512-.548.947-1.169 1.451-1.727.634-.703 1.426-1.027 2.356-.711.925.312 1.458 1.05 1.461 1.983.008 1.743-.099 3.489-.197 5.232-.15 2.617-.363 5.231-.483 7.848-.037.789.123 1.593.24 2.382.131.866.669 1.42 1.466 1.754 1.322.556 2.658.47 3.983.067.874-.268 1.724-.618 2.684-.966 0 .968.011 1.923-.013 2.877-.003.123-.16.305-.286.35-2.348.85-4.731 1.444-7.245.799-2.804-.716-4.401-2.472-4.622-5.71-.205-2.991-.035-6.009-.027-9.014-.003-.235.019-.465.035-.796z"/><path d="m180.074 58.9425c1.668-.0802 3.337-.1925 5.006-.2245.815-.0161 1.652.032 2.444.2058 1 .2219 1.28.8207 1.479 1.8044.312 1.5478-.05 2.9914-.442 4.4429-.954 3.5126-1.847 7.0466-2.94 10.5165-.659 2.0931-1.586 4.1114-2.517 6.1029-.242.5186-.898.9784-1.466 1.1923-3.934 1.489-8.263.3635-11.038-2.8149-2.034-2.3311-2.999-5.1166-3.383-8.1427-.458-3.6035-.176-7.1214 1.2-10.5137.405-.9971 1.103-1.4623 2.164-1.882 2.394-.9516 4.812-.6656 7.237-.7111.749-.016 1.501-.0026 2.253-.0026.003.0053.003.016.003.0267zm4.752 3.2934c-1.588.1684-3.121.3529-4.657.4919-2.647.2406-5.299.4464-7.946.6977-.17.016-.416.2887-.453.4758-.419 2.2242-.685 4.4697-.365 6.7285.402 2.8336 1.359 5.408 3.662 7.2952 1.088.8902 2.354 1.2271 3.724 1.1415.23-.0134.571-.2753.645-.4972 1.778-5.285 3.527-10.5806 5.281-15.8763.043-.1283.064-.2646.109-.4571z"/><path d="m16.8604 82.2156c-1.3621.7378-2.6577 1.4462-3.9612 2.1359-.4051.2138-.8237.425-1.2608.548-.7997.2245-1.6074-.0882-2.06058-.7218-.44516-.6255-.46382-1.5023-.00266-2.192.19992-.2967.45584-.5694.72774-.802.3865-.3288.7917-.6442 1.2262-.9035 4.5876-2.7561 9.1832-5.5015 13.7735-8.2496 2.2018-1.3179 4.3983-2.6438 6.6028-3.959.3519-.2112.7091-.4304 1.0903-.5721 1.0742-.3983 2.1858-.0695 2.7962.7806.6131.8554.6105 2.037-.1412 2.9004-.5012.5774-1.1356 1.0506-1.7461 1.5184-.5731.4384-1.1968.8073-1.8659 1.2511.2346.1844.4158.3315.5998.4731 3.7985 2.8925 4.3317 7.7551 1.2448 11.4013-2.8442 3.3629-8.0583 4.6728-12.1207 2.986-2.7883-1.1575-4.5077-3.1918-4.8036-6.2927 0-.0669-.0373-.131-.0986-.3021zm8.794 3.6035c2.4178.024 4.7289-1.219 5.8032-3.117 1.2448-2.1974.4851-4.4509-1.8687-5.3277-.8263-.3074-1.7326-.409-2.6096-.5694-.1946-.0348-.4425.0294-.6211.1283-1.8713 1.0131-3.74 2.037-5.5953 3.0769-.1546.0882-.3278.3208-.3252.4838.0107 3.7212 2.2978 5.1941 5.2167 5.3251z"/><path d="m28.1148 22.3944c.1733-1.8793.3652-3.5608.4692-5.2476.1333-2.1305.2079-4.2637.2799-6.397.056-1.68678 1.5541-2.78815 3.0868-2.03697 3.2201 1.58257 6.7361 2.09577 10.1269 3.05817.1119.0321.2319.0401.3705.0615.3812-3.94837.7624-7.86464 1.1409-11.796947h3.1934c-.0373.30742-.0719.582762-.1012.860777-.3679 3.54736-.7598 7.09473-1.0823 10.64747-.0693.7565.0426 1.5504.2026 2.2989.1679.8047.1199 1.5051-.4932 2.0745-.6371.5907-1.3861.6228-2.1698.3234-.7464-.2833-1.4715-.6522-2.2418-.8287-2.1939-.5025-4.4037-.9276-6.6082-1.3847-.4452-.0936-.8877-.1952-1.3941-.3074-.1067 1.3927-.176 2.724-.3173 4.0446-.2612 2.4353-.5597 4.8679-.853 7.3005-.0346.2861-.1146.5721-.2026.8474-.6637 2.045-2.479 2.5984-4.1531 1.2458-1.8473-1.4917-3.7186-2.9593-5.5046-4.5258-2.8495-2.5021-6.2509-3.9377-9.711-5.2876-.2719-.1043-.5437-.2086-.805-.3342-1.2555-.6068-1.35414-1.9889-.1812-2.7694.877-.5828 1.8792-.6149 2.8762-.4892 2.2738.286 4.401 1.088 6.275 2.3497 1.9592 1.3206 3.7559 2.8898 5.6059 4.3707.709.5748 1.3701 1.2003 2.1911 1.9221z"/><path d="m45.3402 67.839c-.008-1.7643.5491-2.8229 1.7247-3.4832.6264-.3529 1.3168-.6202 2.0072-.8234 3.564-1.0532 7.0054-2.3952 10.2974-4.1301.9197-.4839 1.874-.9142 2.8416-1.2885.5065-.1951 1.0796-.3074 1.6208-.2967 1.0209.0214 1.8206.7004 2.0898 1.628.2613.8955-.0426 1.8659-.821 2.47-.3225.2486-.6904.4491-1.0582.6256-3.9692 1.914-7.9357 3.8334-11.9209 5.7153-.5971.2807-.717.5721-.6131 1.2163 1.021 6.3489 1.9886 12.7032 2.9936 19.0547.1732 1.1014.5091 2.176.6637 3.2801.112.802.2079 1.6627.032 2.4326-.3545 1.5532-1.9406 2.0637-3.2601 1.1549-.8504-.5855-1.2982-1.4463-1.4981-2.4166-.3545-1.7109-.6025-3.4405-.9597-5.1513-1.0476-5.0123-2.1405-10.0139-3.1934-15.0235-.3705-1.7804-.6824-3.5741-.9463-4.9642z"/><path d="m99.9384 102.184c-2.2472-.371-5.3153-.82-8.3569-1.406-2.0845-.401-4.1451-.954-6.1949-1.5207-.6611-.1818-1.3062-.5427-1.8633-.9517-1.3809-1.0078-1.5675-2.6919-.5065-4.0312.2559-.3208.5624-.6015.8477-.8982 3.3267-3.4565 6.6721-6.8942 9.9669-10.3828.9036-.957 1.794-1.5451 3.1108-.8928.1573.0775.3785.0427.5678.0347 1.3568-.0615 2.3991.6042 2.892 1.8659.062.1578.134.3208.152.4839.496 4.2718 2.074 8.279 3.026 12.4385.173.7538.33 1.5264.354 2.2963.064 1.9171-1.261 3.1331-3.9956 2.9641zm-4.393-14.9214c-2.3431 2.7053-4.6436 5.3598-7.0027 8.0838 3.2388 1.0212 6.5069 1.3901 9.9349 1.7376-.9996-3.3469-1.9539-6.5414-2.9322-9.8214z"/><path d="m314.327 48.386c-3.114-.4037-6.174-.1551-9.229.564-2.647.6229-4.254-1.2885-3.375-3.8574.904-2.6412 1.77-5.2957 2.735-7.9128.544-1.4756 1.224-2.9031 1.909-4.3226.845-1.7509 2.231-2.3337 4.39-1.9782 1.741.2861 3.343 1.0426 4.719 2.152 3.27 2.6385 5.632 5.9319 6.821 9.9978.216.7352.336 1.5318.315 2.2937-.051 1.8445-1.299 2.9966-3.133 3.026-.871.0134-1.743.0294-2.615.0348-.845.0053-1.692.0027-2.537.0027zm-4.655-12.2247c-.938 2.6893-1.818 5.2075-2.697 7.731 3.252.1042 6.371.2058 9.602.3127-1.683-3.2292-4.14-5.603-6.905-8.0437z"/><path d="m233.032 156.32c.509-.433.888-.802 1.312-1.107.821-.596 1.626-1.235 2.516-1.711 1.367-.732 2.764-.433 3.687.816.551.748.981 1.62 1.316 2.494.723 1.879 1.328 3.801 2.024 5.691 1.364 3.713 3.26 7.143 5.558 10.356.362.508.701 1.056.933 1.633.367.909-.067 1.575-1.043 1.722-.85.128-1.62-.155-2.22-.7-1.016-.928-2.039-1.874-2.903-2.944-3.164-3.911-5.166-8.41-6.451-13.251-.117-.444-.259-.885-.392-1.323-.011-.037-.064-.062-.186-.171-.582.639-1.173 1.27-1.744 1.919-.432.492-.808 1.035-1.261 1.505-1.404 1.449-3.39 1.535-4.753.046-.765-.837-1.362-1.893-1.802-2.949-1.22-2.932-1.764-6.047-2.201-9.18-.091-.649-.187-1.302-.208-1.954-.043-1.283.589-2.307 1.642-2.756 1.103-.47 2.449-.246 3.231.77.575.748 1.063 1.652 1.287 2.561.496 2.024.797 4.093 1.186 6.143.136.757.293 1.505.472 2.39z"/><path d="m150.388 46.8863c.075-1.6414.72-3.5126 1.712-5.2609 1.818-3.2052 4.324-5.6485 7.696-7.2605 5.198-2.4887 10.62-4.1702 16.3-5.0925 1.205-.1951 2.378-.6522 3.529-1.0853 1.416-.532 2.365-1.5638 2.823-3.0288.131-.417.275-.8313.454-1.227.242-.54.615-.9463 1.268-.9089.677.0375 1.133.4732 1.208 1.0747.104.8233.173 1.7135-.024 2.5048-.605 2.4166-2.17 4.1328-4.313 5.325-2.277 1.2645-4.788 1.7991-7.304 2.3364-2.316.4946-4.67.8956-6.92 1.6093-1.853.5881-3.641 1.4569-5.347 2.4032-3.482 1.9328-5.3 5.0872-5.998 8.9259-.4 2.1921.506 3.649 3.079 4.2665.285.0695.544.2352.815.3582-.154.2646-.263.5774-.471.7886-1.136 1.1415-2.482 1.5424-4.052 1.0933-2.786-.7966-4.497-3.264-4.455-6.822z"/><path d="m249.892 119.846c2.586.043 5.372.754 7.92 2.302 1.367.832 2.7 1.716 4.073 2.534 1.328.792 2.253 1.973 3.17 3.165.365.474.136.869-.291 1.174-.944.668-2.013.783-3.055.428-1.783-.61-3.518-1.361-5.286-2.019-1.242-.462-2.482-.962-3.764-1.291-4.566-1.168-11.641 2.345-13.48 6.82-.701 1.705-.776 3.272.363 4.803.487.655.349.915-.472 1.003-2.023.216-3.62-.77-4.364-2.743-.794-2.109-.688-4.24-.067-6.365.499-1.708 1.36-3.224 2.605-4.488 3.372-3.427 7.437-5.269 12.648-5.323z"/><path d="m193.97 123.568c.117-3.927.21-7.857.362-11.784.104-2.681 1.021-3.702 3.655-4.133 3.366-.548 6.741-1.045 10.111-1.572.429-.066.853-.176 1.274-.288 2.196-.583 4.459.877 4.105 3.606-.381 2.951-.493 5.94-.675 8.915-.045.743.099 1.5.144 2.248.083 1.417-.453 2.342-1.823 2.668-1.57.374-3.193.521-4.785.821-2.804.526-5.6 1.093-8.402 1.644-.522.101-1.04.243-1.567.291-1.589.15-2.594-.823-2.399-2.416zm14.893-14.601c-1.251.307-2.479.614-3.708.911-2.093.505-4.183 1.021-6.283 1.494-.539.123-.733.337-.747.915-.077 3.103-.205 6.204-.314 9.308-.006.182 0 .363 0 .51 3.814-.55 7.56-1.09 11.252-1.625-.067-1.957-.16-3.868-.192-5.779-.035-1.906-.008-3.812-.008-5.734z"/><path d="m81.1535 139.596c-.1066 3.705-1.0796 7.076-2.9722 10.15-.4718.768-1.1516 1.439-1.8473 2.021-.8503.711-1.6634.589-2.4524-.179-.104-.101-.2053-.214-.3279-.283-3.4733-1.901-4.9288-5.068-5.206-8.8-.3865-5.197 1.2209-9.856 4.3184-14.008.6557-.879 1.7753-1.125 2.9668-.74 1.1596.371 2.0099 1.152 2.6844 2.127 1.5514 2.249 2.2711 4.804 2.639 7.475.1039.77.1386 1.545.1972 2.237zm-6.1737-6.902c-1.1035 3.47-2.0712 6.809-1.3888 10.375.2106 1.093.6051 2.122 1.2796 3.061 2.3191-3.43 2.4017-10.207.1092-13.436z"/><path d="m109.62 54.791c-.552-.8421-1.05-1.5799-1.525-2.3337-.36-.5748-.744-1.1442-1.024-1.7564-.57-1.2537-.173-2.5716.899-3.1838 1.077-.6148 2.412-.2887 3.172.8742 1.245 1.9087 2.519 3.8067 3.623 5.7982 1.62 2.9272 3.11 5.9292 4.627 8.9125.283.5561.485 1.1655.632 1.775.165.671.051 1.3206-.581 1.7457-.6.4036-1.237.3261-1.77-.0776-.653-.4918-1.365-.9917-1.813-1.6493-1.282-1.8793-2.452-3.8361-3.655-5.7689-.367-.5934-.695-1.2136-1.063-1.8605-1.245.7111-2.437 1.3553-3.583 2.0771-.202.1283-.304.5667-.298.8581.077 3.7853.213 7.5705.261 11.3558.019 1.4997-.099 3.0101-.248 4.5044-.061.6068-.277 1.2431-.584 1.7723-.602 1.0346-1.858 1.2164-2.636.3128-.491-.5694-.808-1.3713-.973-2.1225-.184-.8394-.117-1.7376-.141-2.6091-.099-3.5901-.203-7.1803-.28-10.7731-.027-1.2591-.022-2.5235.05-3.7799.072-1.2671.837-1.9809 2.026-2.3605 1.61-.5186 3.194-1.1147 4.884-1.7108z"/><path d="m62.8509 79.4969c.3412 8.7735.5171 17.5577 2.0126 26.2481.1439.84.0959 1.751-.0587 2.593-.1813 1-.8557 1.692-1.9086 1.847-1.0903.164-1.9299-.336-2.3938-1.277-.3678-.749-.6131-1.583-.7757-2.406-1.2288-6.205-1.73-12.4949-2.2071-18.7903-.2559-3.3816-.7624-6.7445-1.2103-10.1101-.2185-1.6441.4266-3.0528 1.7994-3.5928 1.3888-.548 2.9349.024 3.8119 1.4382.765 1.2323.9516 2.6224.9303 4.0499z"/><path d="m20.2937 123.546c.3652-1.951.7624-3.897 1.0849-5.857.2719-1.649.5065-3.307.6691-4.969.2213-2.249 1.658-3.165 3.8439-2.596 2.9455.767 5.4033 2.32 7.6291 4.323.901.81 1.8473 1.574 2.6843 2.448.4532.473.8451 1.088 1.037 1.708.4052 1.318-.4345 2.626-1.77 2.954-3.5827.877-6.8721 2.425-10.0149 4.326-.4345.262-.853.556-1.3062.788-1.7833.914-3.4867-.019-3.6919-2.01-.0373-.361-.0453-.727-.0667-1.088-.0293-.013-.0639-.021-.0986-.027z"/><path d="m138.303 137.423c-.528-.064-1.061-.096-1.584-.195-4.473-.85-6.661-5.01-4.414-8.972 2.095-3.697 5.121-6.445 9.679-6.771.717-.051 1.458-.013 2.164.112 4.281.762 6.363 4.51 4.791 8.571-1.579 4.074-6.281 7.271-10.636 7.255zm4.622-10.792c-1.605.019-2.898.671-4.239 1.246-.997.428-1.514 1.152-1.89 2.064-.602 1.459-.045 2.36 1.531 2.365 2.417.006 4.419-.946 5.92-2.86.464-.593.909-1.296.498-2.069-.394-.743-1.196-.716-1.82-.746z"/><path d="m57.9489 185.046c-.2773.808-.5438 1.559-.7971 2.313-.3332.991-.8636 1.836-1.706 2.475-1.3195 1.003-2.7723 1.144-4.2571.532-.8583-.355-1.4634-.155-1.9486.529-.5597.786-1.1009 1.591-1.5647 2.436-.4585.831-.9063 1.189-1.5407 1.01-.6558-.184-1.0903-.85-.8904-1.697.5625-2.388 1.8713-4.237 4.1398-5.296.8423-.393 1.698-.233 2.543.08 1.4368.527 1.6874.385 2.0339-1.128.2853-1.251.4905-2.526.8504-3.756.3438-1.176 1.1435-1.989 2.4337-2.08.4932-.034 1.0183.07 1.4928.222.5518.179.805.016 1.0823-.47.4291-.754.9249-1.484 1.4714-2.157.9117-1.126 2.0952-1.562 3.4973-1.04.6398.238.9304.037 1.1196-.559.168-.532.3732-1.053.5971-1.564.7784-1.77 2.3378-2.606 4.2358-2.288.9596.16 1.1968.024 1.2315-.96.0506-1.441.4025-2.777 1.1169-4.023.5385-.938 1.4821-1.016 1.9673-.059 1.3435 2.641 1.3941 5.694-1.1916 7.867-.957.805-2.0712 1.064-3.2681.762-.7704-.195-1.0316.089-1.2795.789-.3519 1-.805 1.981-1.3488 2.887-.7837 1.31-1.7967 1.687-3.2868 1.326-.4665-.112-.6584.04-.8317.428-.2559.574-.5144 1.157-.8423 1.692-1.1009 1.788-2.5591 2.355-4.5876 1.836-.1146-.032-.2293-.053-.4718-.107z"/><path d="m297.645.0409546h3.737c.072 1.1895854.085 2.3497654.221 3.4965754.251 2.11452 1.125 3.83072 3.173 4.79843 2.329 1.10137 4.534.7191 6.227-1.25107 1.599-1.86323 2.513-4.01518 2.479-6.517311-.003-.144354 0-.288708 0-.497219h5.768c-.035.687018-.016 1.40879-.12 2.11452-.458 3.12232-1.767 5.84633-4.017 8.06512-5.033 4.9642-11.713 3.1089-15.112-.56674-1.548-1.67343-2.14-3.78528-2.337-5.99603-.107-1.19761-.019-2.40857-.019-3.6462754z"/><path d="m305.882 211.116c-.84 1.935-1.647 3.796-2.516 5.795.93-.131 1.727-.283 2.532-.347 1.882-.155 3.764-.278 5.649-.393 1.138-.07 1.892.476 1.975 1.374.082.909-.523 1.585-1.653 1.756-2.415.366-4.838.698-7.256 1.056-.957.142-1.903.393-2.863.46-2.367.165-3.593-1.495-2.756-3.711.84-2.224 1.757-4.416 2.58-6.645.317-.858.517-1.77.693-2.671.422-2.152 2.349-3.165 4.212-2.005 2.628 1.636 5.174 3.417 7.715 5.192.909.633 1.132 1.668.727 2.512-.4.834-1.247 1.251-2.346.947-1.015-.284-2.015-.685-2.956-1.163-1.245-.639-2.428-1.396-3.737-2.157z"/><path d="m44.9219 132.269c-.0347-1.494.5544-2.382 1.8952-2.751 1.794-.494 3.6227-.863 5.4273-1.32 1.3835-.351 2.751-.757 4.1291-1.131 1.4661-.398 2.0099-.051 2.6923 1.283.7118 1.39 1.093 2.836 1.2902 4.365.0533.42.2826.821.4319 1.227.4291 1.158-.0747 2.235-1.2289 2.62-3.3481 1.123-6.6935 2.243-10.0416 3.363-.2985.099-.5971.203-.9036.27-1.5461.332-2.7376-.39-2.9802-1.962-.3146-2.034-.4958-4.093-.7117-5.964zm4.289 3.951c2.2711-.767 4.4383-1.5 6.6162-2.238-.3039-1.007-.5865-1.948-.8824-2.932-.1386 0-.3172-.037-.4691.005-1.834.532-3.668 1.072-5.4913 1.636-.1146.035-.2426.305-.2239.447.1226.986.2826 1.965.4505 3.082z"/><path d="m96.9713 179.871c-.6238-.053-1.2609-.048-1.874-.168-1.5247-.302-2.0419-1.765-1.0875-3.005.5624-.733 1.3408-1.107 2.2258-1.259 4.9024-.842 7.7384 1.999 8.2504 6.453.381 3.312-1.17 5.969-4.153 7.52-2.0049 1.042-4.0761.77-5.6782-.829-1.6687-1.665-2.3831-3.742-2.3644-6.074.008-.991.5891-1.737 1.4235-1.991.8236-.251 1.73.048 2.2684.895.5039.794.8824 1.671 1.3275 2.505.7757 1.446 1.1889 1.513 2.1592.185.4079-.559.744-1.294.786-1.968.094-1.47-.9353-2.39-2.412-2.371-.2906.003-.5811.029-.8717.046.0027.016.0027.037 0 .061z"/><path d="m89.449 156.571c-.016 3.139-.9729 5.871-3.4387 7.937-.4985.42-1.0236.823-1.5807 1.157-.7597.455-1.4608.15-2.0739-.347-1.7353-1.403-2.695-3.275-3.1561-5.427-.3253-1.523-.0827-2.991.4904-4.421.957-2.377 2.5564-4.285 4.3984-5.994 1.2528-1.16 3.1188-.614 3.6839.995.12.342.2693.676.4372.997.949 1.804 1.2608 3.074 1.2395 5.103zm-4.6782-3.561c-2.1965 2.869-2.6204 5.681-1.0876 7.745 1.8206-2.326 2.2978-5.603 1.0876-7.745z"/><path d="m64.5782 47.7096c-1.0929 1.0747-2.1672 2.0852-3.1881 3.1464-.5571.5801-1.1249 1.0185-1.9646.7459-.8477-.2754-1.1196-.9838-1.1249-1.7724-.0293-3.1758-.0613-6.3542-.008-9.53.024-1.4863 1.818-3.101 3.468-3.3014 4.2437-.5106 8.6714 2.8603 9.2339 7.0706.0879.6603.0586 1.3634-.0587 2.021-.6158 3.4618-3.6653 3.5527-5.6085 2.2134-.2159-.1443-.4105-.3208-.7491-.5935zm-3.1988-.7618c.0987.0428.1973.0855.2932.1283.5705-.6442 1.1516-1.2751 1.7061-1.9327 1.1809-1.4008 2.3831-1.2725 3.1961.3555.2372.4758.5411.8447 1.1142.8661.6611-1.5291-.0346-3.7104-1.682-4.6942-1.2235-.7297-2.6123-1.1842-3.9425-1.7696-1.1889 2.3978-.3545 4.7663-.6851 7.0466z"/><path d="m13.571 223.634c.981-1.932 1.0849-3.895.893-5.902-.2292-2.377-1.0876-4.515-2.4764-6.443-.6531-.903-1.3462-1.78-1.9753-2.7-.25319-.368-.45578-.807-.55175-1.243-.12795-.585.07464-1.192.62645-1.424.4425-.188.9996-.126 1.5061-.115.1626.002.3439.173.4825.304 4.6276 4.339 6.976 9.56 5.9524 15.986-.3705 2.321-1.1862 4.507-3.0602 6.122-.6957.599-1.2848.666-2.0126.099-.3198-.249-.5971-.57-.8343-.898-.9597-1.326-2.19652-2.323-3.64398-3.048-.44516-.222-.95697-.323-1.44745-.428-.80236-.173-1.2342-.585-1.26886-1.272-.03198-.671.3572-1.321 1.09826-1.42.83968-.112 1.78866-.2 2.5537.078 1.23153.446 2.35643 1.195 3.52133 1.828.1999.113.3785.281.6371.476z"/><path d="m13.0565 51.2142c-1.4235.0882-2.8469.2005-4.2704.262-2.19118.0936-3.0895-1.1869-2.24716-3.2159 1.49278-3.5901 3.38273-6.9717 5.48326-10.2384.3839-.5988.8903-.8154 1.6474-.794 1.3621.0375 2.4791.4759 3.4387 1.4382 1.0876 1.0854 1.7327 2.3872 1.9726 3.8869.3119 1.9514.4318 3.8895-.1653 5.8303-.5944 1.9301-1.9379 2.9673-3.9718 2.9325-.6291-.0107-1.2556-.0027-1.8846-.0027-.0027-.032-.0027-.0641-.0027-.0989zm-3.71061-2.7347c1.29021-.0615 2.34311-.1069 3.39871-.1604 2.535-.131 2.5191-.131 2.3644-2.732-.0986-1.6601-.725-3.0769-1.9139-4.475-1.2928 2.4754-2.5324 4.8466-3.84921 7.3674z"/><path d="m295.214 24.6611c.021 2.176-1.437 3.1518-3.22 2.3043-2.45-1.1628-5.022-1.8872-7.685-2.331-.048-.008-.096-.0134-.144-.0241-1.056-.2138-2.053-.5319-2.378-1.7295-.328-1.2083.379-1.9649 1.224-2.6545 1.724-1.4115 3.454-2.8203 5.152-4.2638.307-.2593.552-.6603.68-1.0453.283-.8394.704-1.5077 1.631-1.6654.955-.1657 1.666.2834 2.122 1.0773.336.5801.64 1.2137.795 1.8606.605 2.5235 1.149 5.0631 1.703 7.5973.08.3529.101.7191.12.8741zm-4.87-2.3471c-.397-1.1441-.749-2.1519-1.152-3.3094-.725.826-1.367 1.5585-2.004 2.2856.914.2967 1.956.6336 3.156 1.0238z"/><path d="m126.238.0059896c-1.117 1.8792704-1.949 3.7318204-2.141 5.8035604-.165 1.78037.173 2.07977 1.818 1.48097 1.429-.52128 2.807-1.18424 4.193-1.81512 1.013-.46247 1.978-1.03721 3.012-1.44087.584-.22989 1.272-.32078 1.901-.28068.776.04811 1.335.5587 1.578 1.32057.251.7886.035 1.48898-.538 2.06907-.168.17109-.36.3395-.574.44376-2.655 1.28849-5.31 2.58505-7.986 3.83075-.605.2807-1.287.4304-1.951.5507-2.836.5079-5.225-1.0159-5.953-3.82275-.725-2.80688.091-5.37585 1.331-7.856599.066-.133661.293-.2673221.447-.2699953 1.592-.02138576 3.186-.0133661 4.863-.0133661z"/><path d="m263.709 225.444c-.059.738-.059 1.446-.184 2.133-.232 1.251-1.192 1.882-2.405 1.553-2.612-.708-5.256-1.063-7.962-.957-.309.011-.632-.034-.933-.106-1.288-.308-1.855-1.586-1.149-2.714.525-.839 1.096-1.671 1.762-2.398 2.133-2.315 4.297-4.6 6.496-6.851.992-1.016 2.458-.757 3.14.569.358.693.576 1.503.664 2.281.245 2.167.389 4.346.571 6.49zm-4.713-4.977c-1.328 1.446-2.527 2.75-3.788 4.124 1.567.209 2.921.388 4.366.578-.189-1.535-.37-3.008-.578-4.702z"/><path d="m183.123 162.145c-4.265-.856-7.768-2.473-9.991-6.125-1.405-2.307-2.229-4.843-2.572-7.525-.179-1.406.383-2.456 1.471-2.855 1.08-.395 2.274.027 3.017 1.147.36.54.64 1.142.899 1.743.381.893.725 1.802 1.058 2.713 1.024 2.794 2.796 4.946 5.326 6.52 1.229.765 2.373 1.674 3.527 2.553.522.399.13.832-.206.976-.871.366-1.794.612-2.529.853z"/><path d="m327.786.038269h4.79c0 1.339281-.008 2.646491.002 3.953691.043 5.02566.086 10.05134.139 15.07694.005.6309.064 1.2591.091 1.89.056 1.3259-.813 2.3337-2.032 2.3578-1.188.024-2.068-.9089-2.135-2.2001-.277-5.5015-.586-11.003-.845-16.50712-.072-1.49701-.01-3.00203-.01-4.571211z"/><path d="m22.3809 210.327c-2.1378.029-4.0278-1.411-4.7635-3.604-.1439-.43-.4425-.815-.5438-1.251-.1519-.639-.3652-1.342-.2452-1.954.5304-2.71 2.6923-4.499 5.2353-4.467 2.4551.032 4.7262 2.035 5.2647 4.644.7011 3.392-1.6794 6.587-4.9475 6.632z"/><path d="m342.996 83.1111c0 1.8953.011 3.7371-.016 5.579-.003.1737-.205.4517-.37.5025-3.983 1.211-7.963 2.4246-11.967 3.5634-.615.1738-1.359.0936-1.996-.0614-.869-.2112-1.384-.8822-1.474-1.7911-.094-.9169.298-1.6681 1.114-2.037 4.718-2.1306 9.351-4.4857 14.411-5.7528.069-.016.143-.0026.298-.0026z"/><path d="m22.5488 9.17804c.12-3.04747.24-6.06286.3599-9.1263737h4.7369c.008.1229677.0346.2593027.0266.3902897-.2479 4.239724-.4958 8.476784-.7543 12.716544-.0214.3368-.0693.6763-.1493 1.0051-.2319.9517-.8024 1.6093-1.7807 1.8018-.9943.1951-1.7433-.2406-2.2951-1.048-.917-1.3392-1.762-2.7213-3.0495-3.7719-.5865-.4758-.6584-1.26173-.3119-1.85518.3759-.64425.9783-.88484 1.674-.72444.5012.11762.973.37959 1.5434.61216z"/><path d="m290.112 144.504c-.363 2.74.77 4.85 2.865 6.467 1.355 1.045 2.802 1.973 4.241 2.9.44.284.544.575.102.778-.752.345-1.565.746-2.362.775-3.961.145-8.823-3.608-9.77-7.447-.389-1.585-.471-3.203.131-4.732.296-.754.8-1.54 1.426-2.029 1.421-1.106 3.244-.179 3.362 1.618.037.553.005 1.112.005 1.67z"/><path d="m205.781 175.399c-.2.457-.307.994-.616 1.36-3.095 3.663-6.405 7.09-10.622 9.493-.56.321-1.123.5-1.701.102-.611-.42-.829-1.078-.616-1.735.312-.957.635-1.962 1.208-2.764.738-1.035 1.674-1.949 2.623-2.805 1.836-1.654 3.726-3.25 5.632-4.822.469-.385 1.064-.717 1.648-.84 1.244-.261 2.332.717 2.444 2.011z"/><path d="m264.466.00599521c-.024.15237379-.022.22722379-.051.28870779-.978 2.074417-.394 3.795977 1.149 5.341097 1.048 1.0479 2.263 1.79908 3.607 2.39521 1.479.65493 2.945 1.34997 4.393 2.07439.421.2112.813.5373 1.127.8929.451.5052.272.941-.402.9516-.795.0107-1.597-.0534-2.381-.1791-1.812-.2913-3.644-.5319-5.414-.9944-2.132-.5587-3.9-1.79907-5.334-3.48588-1.639-1.93006-2.228-4.14616-1.783-6.648298.083-.462467.237-.6549393.738-.64157323 1.426.02673223 2.853.00534644 4.351.00534644z"/><path d="m342.996 23.2657c0 1.8044.011 3.5019-.016 5.1994-.003.1791-.2.4331-.373.5213-3.258 1.6093-6.523 3.2052-9.797 4.7824-.429.2058-.911.3422-1.386.4037-.919.1229-1.78-.3636-2.175-1.1415-.4-.7886-.285-1.751.355-2.438.309-.3315.679-.6362 1.077-.8501 3.95-2.1172 7.911-4.2103 11.87-6.3088.101-.0534.218-.0828.445-.1684z"/><path d="m239.288 59.0548c.011 3.3816-.709 6.5627-2.735 9.3295-.456.6202-1.087 1.1682-1.748 1.5665-.675.4064-1.293.107-1.419-.6709-.111-.6897-.048-1.4409.094-2.1359.197-.9704.538-1.9114.823-2.8631 1.061-3.5527 1.291-7.1428.512-10.7837-.061-.2834-.101-.5748-.109-.8635-.016-.5881.123-1.1254.688-1.4195.605-.3181 1.25-.2272 1.679.2406.512.5587.986 1.2083 1.277 1.9007.757 1.8097.946 3.7452.938 5.6993z"/><path d="m116.066 80.8415c.016 1.5692-.171 3.1037-.821 4.5499-.526 1.1708-1.24 2.208-2.368 2.8737-1.01.5988-2.076.7271-3.068-.0161-.973-.7271-1.157-1.783-.853-2.8817.224-.81.579-1.5959.968-2.3444 1.143-2.1974 1.738-4.5097 1.65-6.9985-.043-1.1789.378-1.8392 1.215-2.0611.848-.2245 1.728.2326 2.186 1.2778.779 1.7777 1.061 3.6677 1.091 5.6004z"/><path d="m168.984 41.4811c2.266-.0081 4.217 1.358 4.9 3.427.629 1.9167-.006 3.8976-1.64 5.1112-1.887 1.4008-4.734 1.4168-6.685.0401-1.938-1.3687-2.476-3.6195-1.365-5.7207.984-1.8579 2.647-2.8496 4.79-2.8576zm.075 3.1009c-1.037.1443-1.823.7244-1.751 1.4275.082.7886.442 1.4328 1.181 1.7937.701.3422 1.404.3128 2.068-.1123.96-.6148 1.042-1.7456.117-2.4005-.471-.3315-1.071-.4785-1.615-.7084z"/><path d="m252.254 64.321c-.019 1.4435-.493 2.7106-1.509 3.7479-1.82 1.8605-4.776 1.7269-6.277-.3984-1.202-1.7001-1.693-3.6355-1.032-5.718 1.048-3.2961 4.852-4.1648 7.237-1.66 1.011 1.0586 1.581 2.5155 1.581 4.0285zm-3.513-.4651c-.08-.2861-.141-.7272-.328-1.1041-.408-.8207-1.144-.9009-1.618-.1283-.288.4678-.413 1.0666-.499 1.6227-.101.6656.587 1.505 1.2 1.5905.514.0722.968-.3929 1.138-1.1869.048-.2112.059-.4304.107-.7939z"/><path d="m160.755 95.9212c.248-.0989.523-.1791.765-.3127 1.613-.8876 3.215-1.7911 4.825-2.684.699-.3876 1.381-.8153 2.114-1.1254.475-.2005 1.032-.3181 1.541-.2914.978.0508 1.445 1.0667.869 1.8659-.275.3823-.661.7218-1.069.9624-2.962 1.7456-5.942 3.4672-8.922 5.1834-.333.1924-.69.3555-1.056.4785-1.346.4541-2.743-.246-2.815-1.6521-.101-1.9995.019-4.0205.2-6.0174.091-.9998 1.048-1.5745 1.946-1.4676.917.1096 1.565.8367 1.594 1.8713.032 1.0372.008 2.0744.008 3.1891z"/><path d="m340.618 161.458c-.096 3.323-3.177 5.635-6.208 4.63-1.954-.65-3.748-3.285-2.482-5.726.896-1.727 2.261-2.903 4.124-3.425 1.682-.47 3.265.3 3.913 1.928.325.823.443 1.727.653 2.593zm-3.948-.254c-.61.655-1.095 1.179-1.65 1.778 1.152.197 1.824-.514 1.65-1.778z"/><path d="m264.975 203.283c-3.761-.032-4.692-2.991-3.753-5.566.186-.51.527-.986.887-1.403 1.176-1.361 2.642-2.128 4.444-1.569 1.863.58 2.961 1.965 3.295 3.889.202 1.177-.214 2.203-1.045 3.045-1.104 1.115-2.482 1.551-3.828 1.604z"/><path d="m121.234 120.424c-.32 1.935-.618 3.871-.973 5.798-.08.439-.298.877-.549 1.254-.61.925-1.495 1.374-2.609 1.216-1.117-.16-1.88-.842-2.136-1.914-.168-.711-.176-1.494-.088-2.227.211-1.756.504-3.502.789-5.247.302-1.853 1.381-2.895 2.85-2.796 1.461.099 2.463 1.299 2.572 3.098.016.265.003.532.003.799.048.006.093.011.141.019z"/><path d="m313.676 22.4236c1.917.0134 4.153 1.1815 5.91 3.2667 1.133 1.3473 1.394 2.9031.701 4.5605-.242.5827-.509.6175-.85.0935-2.191-3.3495-5.355-4.1087-9.063-3.4698-.904.155-1.813.3208-2.725.4063-1.007.0963-1.719-.3047-1.972-1.0105-.283-.7805.05-1.5745.911-2.1679 1.299-.8875 4.209-1.6735 7.088-1.6788z"/><path d="m230.521 22.3033c.136-1.2992.248-2.601.424-3.8949.064-.4705.229-.949.448-1.3713.477-.925 1.407-1.35 2.364-1.1549.92.1872 1.661.9918 1.685 2.021.021.9383-.104 1.8846-.181 2.8229-.062.7485-.134 1.497-.224 2.2428-.219 1.7804-.077 3.4832.994 5.0097.136.1924.208.4384.283.6656.378 1.1361.016 1.6707-1.165 1.5077-.637-.0882-1.309-.3796-1.834-.7619-1.741-1.2644-2.503-3.0902-2.663-5.1887-.048-.6255-.008-1.2591-.008-1.89-.04-.0027-.083-.0053-.123-.008z"/><path d="m89.8993.00599957c1.6687 0 3.1961-.01069289 4.7209.01336613.1679.0026732.4265.1523733.4851.2967273.7304 1.825807 1.2209 3.697067.8184 5.680597-.5491 2.70262-3.1428 4.50701-6.1284 4.17821-.869-.0962-1.7406-.41966-2.5403-.79391-.4425-.20584-.8157-.679-1.077-1.11741-.3092-.51861-.1839-1.09068.2319-1.5478.3999-.44108.901-.53197 1.4608-.35553.4372.139.8717.30742 1.3222.38761 1.6207.28871 2.7696-.68702 2.4657-2.28827-.2399-1.26176-.837-2.45669-1.2928-3.67301-.0933-.235243-.2639-.443755-.4665-.78058043z"/><path d="m164.335 9.88354c.344-1.85522.656-4.04726 1.597-6.07089.552-1.18958 1.194-1.48096 2.498-1.37938 1.007.07752 2.023.09089 3.033.06416.941-.02406 1.693.70573 1.589 1.64938-.024.21385-.093.42504-.157.63355-.504 1.64136-1.042 3.27202-1.512 4.92407-.418 1.47027-.922 1.87927-2.46 1.94077-.89.0347-1.786.1069-2.666.2486-1.335.2139-1.975-.3128-1.922-2.01026zm5.5-5.30635c-.563.25663-1.144.33148-1.293.62554-.616 1.21899-1.098 2.50481-1.696 3.91894.675-.0695 1.128-.09624 1.573-.17109.136-.02405.323-.16306.357-.28603.347-1.27513.667-2.5556 1.059-4.08736z"/><path d="m111.441 104.577c-.355 3.67-1.936 6.836-4.807 9.29-.725.62-1.716.965-2.636 1.304-.672.249-1.373.048-1.802-.591-.437-.652-.269-1.326.179-1.895.765-.97 1.596-1.89 2.37-2.855.863-1.08 1.711-2.171 2.524-3.288.618-.85 1.082-1.778 1.165-2.863.021-.281.146-.564.274-.823.275-.562.693-.944 1.371-.877.709.069 1.063.55 1.21 1.181.096.42.096.864.152 1.417z"/><path d="m15.8179 72.7203c-.1386.4919-.2479.9089-.3732 1.3206-.3225 1.0586-.9916 1.5932-1.7886 1.4435-.8051-.1524-1.3036-.8822-1.1516-1.9809.1333-.9757.3625-1.9594.7144-2.8763.4798-1.2538 1.5274-1.5639 2.7216-.9677.6904.3448 1.3808.7057 2.1006.9784.2479.0935.6504.0294.8823-.1177 2.1965-1.4088 4.3664-2.855 6.5549-4.2744.2159-.139.4878-.2086.7463-.262.5438-.1096 1.0237.0321 1.3302.5159.3199.5053.2852 1.0666-.096 1.4917-.3278.3662-.7757.6362-1.1995.9008-1.5328.9651-3.0922 1.8873-4.6089 2.8764-.4772.3128-.8824.7566-1.2609 1.1923-.6184.7137-1.3381.9062-2.2125.5934-.7464-.27-1.4981-.5319-2.3591-.834z"/><path d="m224.174 120.424c-2.66.019-4.102-2.093-3.188-4.686.272-.77.57-1.529.888-2.283.629-1.5 2.633-2.307 4.385-1.786 2.396.717 3.51 3.026 2.583 5.355-.779 1.948-2.754 3.387-4.668 3.4zm.413-6.205c-.005.083-.008.163-.013.246-.096.249-.16.695-.293.717-.891.147-.867.874-.995 1.478-.191.928.288 1.374 1.227 1.2.914-.168 1.975-1.203 2.031-2.144.021-.361-.205-.89-.493-1.08-.403-.264-.968-.288-1.464-.417z"/><path d="m151.18 100.238c0 .581.128 1.198-.024 1.738-.378 1.339-1.527 1.732-2.74 1.898-2.612.358-5.283-2.55-4.694-5.1272.362-1.5826 1.418-2.5824 2.977-2.9459 1.517-.3529 2.685.3047 3.572 1.5184.632.8661.941 1.8471.909 2.9187zm-3.59-1.2587c-.099.0054-.197.0107-.296.0187-.083.2807-.293.6069-.216.8341.12.3559.373.7539.682.9359.339.2.547-.15.44-.471-.149-.4569-.402-.8793-.61-1.3177z"/><path d="m151.916 60.9955c-2.05-.147-4.041.2326-6.024.679-.211.0482-.427.0989-.64.1177-.683.0614-1.256-.1471-1.578-.7886-.307-.6095-.16-1.1896.266-1.6868.299-.3476.669-.6336.965-.9838.931-1.104 1.84-2.2214 2.754-3.3388.168-.2059.298-.4465.482-.6336.661-.6656 1.573-.4491 1.928.4143.13.3182.341.6149.559.8849.864 1.0693 1.8 2.0904 2.589 3.2105.234.3342.261 1.0399.064 1.3981-.227.409-.811.6202-1.237.9196-.043-.0642-.085-.1283-.128-.1925z"/><path d="m254.491 108.809c.765.524 1.487 1.002 2.193 1.502.749.532 1.365 1.171 1.517 2.131.107.676-.061 1.269-.672 1.638-.583.353-1.167.241-1.703-.141-1.549-1.107-3.105-2.206-4.633-3.347-.354-.265-.693-.631-.88-1.027-.397-.847.019-1.7.925-2.248 1.882-1.133 3.748-2.296 5.62-3.448.104-.065.202-.137.309-.19.68-.348 1.389-.203 1.735.355.352.562.184 1.243-.437 1.719-1.114.856-2.234 1.703-3.351 2.556-.186.144-.373.297-.623.5z"/><path d="m43.6796 94.2959c-.1066 1.0024-.2079 2.0049-.3199 3.0073-.1519 1.334-1.4768 2.152-2.6816 1.5077-1.4235-.7618-2.7857-1.66-4.0998-2.6064-.8397-.6041-.8717-1.7563-.0587-2.4059 1.4155-1.1334 2.8869-2.208 4.409-3.1918.981-.6335 2.4738.4438 2.647 1.8579.0747.5961.0134 1.211.0134 1.8151.0293.008.0586.0134.0906.0161z"/><path d="m93.1782 74.0248c-1.946-.1577-3.4147-1.7536-3.1802-3.6062.1893-1.513.8291-2.847 1.914-3.9216 1.746-1.7269 4.0145-1.1468 4.7582 1.1923.7357 2.3177.3119 4.0285-1.4501 5.3384-.5971.4437-1.3569.671-2.0419.9971z"/><path d="m126.296 128.227c-.112 1.858-.543 3.585-1.351 5.216-.064.131-.144.253-.224.374-.653.978-1.607 1.449-2.506 1.232-.943-.227-1.623-1.088-1.644-2.31-.016-.815.133-1.638.258-2.448.149-.957.379-1.901.531-2.858.247-1.553 1.106-2.451 2.391-2.443 1.263.005 2.231.949 2.463 2.416.048.281.058.575.082.821z"/><path d="m90.8618 33.1459c-.1386 2.724 1.3835 4.1568 4.0785 3.9109.1893-.016.3865.0909.5811.1417-.0666.1951-.0933.4224-.2106.5801-.8583 1.1361-2.0472 1.6948-3.4227 1.4916-1.0583-.155-2.1565-.4544-3.0841-.9703-1.9193-1.0667-2.6124-2.8684-2.3352-5.0043.112-.8795.3652-1.759.6904-2.585.3386-.8661 1.093-1.2457 1.906-1.1548.7864.0882 1.4208.6656 1.5941 1.5718.1226.6603.1386 1.3446.2025 2.0183z"/><path d="m170.378 174.086c.078-.746.091-1.505.248-2.232.248-1.165 1.168-1.866 2.221-1.802 1.026.062 1.844.824 1.954 2.005.194 2.099.309 4.208.45 6.312.014.189-.016.387-.048.577-.192 1.128-.935 1.877-1.935 1.954-1.04.08-1.986-.545-2.223-1.687-.277-1.323-.387-2.684-.555-4.028-.045-.361-.037-.727-.053-1.091-.021-.002-.04-.005-.059-.008z"/><path d="m273.777 57.7502c.823.0348 1.423.401 1.62 1.0399.222.7138-.184 1.6761-.943 2.1012-.419.2325-.896.3555-1.341.54-2.519 1.0532-5.036 2.1118-7.555 3.1624-.333.139-.669.2887-1.021.3689-.823.1871-1.61-.2085-1.924-.9303-.307-.7004-.096-1.5023.576-1.9996.306-.2272.661-.4063 1.015-.5533 2.703-1.1147 5.406-2.2215 8.12-3.3121.464-.1872.968-.2807 1.453-.4171z"/><path d="m11.2066 90.2085c-.2026 1.5317-.845 3.0367-2.56967 3.8494-1.37282.6496-2.95622.3395-3.99849-.7645-1.01829-1.08-1.19155-2.5129-.4425-3.9003.73572-1.366 1.90328-2.192 3.39872-2.4994 1.93793-.3984 3.61734 1.0559 3.61194 3.3148zm-3.13746.8046c-.08796-.0909-.17593-.1818-.26123-.2727-.23724.2273-.47715.4545-.7144.6817.10396.0855.2799.2566.29856.2406.23724-.2032.45582-.4304.67707-.6496z"/><path d="m104.339 158.587c-.218-.086-.645-.193-1.013-.401-3.089-1.759-5.4776-4.269-7.5088-7.148-.5651-.802-.4532-1.709.1972-2.224.6505-.516 1.5435-.407 2.1859.36 2.0497 2.449 4.4117 4.542 7.0347 6.349.8.551 1.069 1.275.81 1.995-.245.697-.767 1.026-1.706 1.069z"/><path d="m132.486 229.604c-.218 1.756-.424 3.515-.666 5.266-.054.374-.208.754-.395 1.085-.453.805-1.287 1.2-2.14 1.048-.901-.16-1.536-.7-1.677-1.593-.117-.727-.093-1.5.003-2.235.184-1.393.461-2.775.717-4.157.056-.307.162-.612.29-.898.416-.93 1.248-1.414 2.143-1.275.901.139 1.528.845 1.635 1.874.029.289.005.583.005.871.027.008.056.011.085.014z"/><path d="m217.049 80.7479c-.08 2.1974-.531 4.1034-1.256 5.9453-.895 2.2722-2.636 3.5981-4.902 4.2985-.978.3048-1.535-.2272-1.237-1.2216.134-.4438.453-.8394.733-1.227.168-.2326.395-.4358.632-.5988 2.525-1.7376 3.242-4.3521 3.503-7.1937.037-.409.056-.8287.152-1.2243.138-.5694.509-.9544 1.122-.9597.616-.0054 1 .3689 1.122.949.102.4678.104.957.131 1.2323z"/><path d="m5.88062 32.7396c.67441.163 1.90062.3181 2.99887.7806.61044.2566 1.10892.9703 1.46341 1.5905.3119.5454.0054 1.1335-.5091 1.5238-1.22887.9329-2.46307 1.8578-3.69461 2.7855-.15461.1176-.30655.2405-.47449.3341-.87433.4839-1.91127.1176-2.03389-.8634-.1946-1.5585-.2799-3.1411-.25324-4.7103.01599-.9971.81036-1.4783 2.50305-1.4408z"/><path d="m103.75 222.089c-.032.963-.304 1.497-.965 1.765-.68.278-1.311.136-1.791-.393-.264-.294-.491-.69-.563-1.072-.4448-2.356-.8473-4.721-1.2445-7.084-.0666-.401-.0666-.826-.0266-1.233.0959-.992.7037-1.614 1.5351-1.636.843-.021 1.458.556 1.61 1.553.099.647.11 1.31.232 1.952.259 1.379.571 2.751.848 4.127.149.757.274 1.521.365 2.021z"/><path d="m139.177 52.1338c-1.85.0187-2.847-1.6066-2.101-3.018.123-.2326.27-.5053.48-.6256 1.818-1.0345 3.623-2.1011 5.499-3.0234.779-.3823 1.613.0161 2.053.6443.427.6121.416 1.382-.077 2.1091-.23.3369-.477.7004-.803.9276-1.269.8822-2.553 1.743-3.868 2.5556-.418.254-.938.3449-1.183.4304z"/><path d="m122.33 207.795c-.035 2.42-.685 3.951-2.103 5.122-.68.562-1.472.832-2.359.76-.699-.057-1.269-.351-1.554-1.019-.272-.642-.128-1.262.325-1.759.405-.444.879-.826 1.335-1.224 1.149-1.005 1.434-2.08.931-3.521-.35-.997-.147-1.74.565-2.077.757-.358 1.674-.024 2.058.949.421 1.064.645 2.208.802 2.769z"/><path d="m40.2222 192.967c-.0319 1.623-.3225 3.187-.9756 4.678-.2452.562-.5464 1.051-1.2235 1.096-.7118.048-1.1942-.355-1.5328-.927-.6584-1.12-.9356-2.361-.8423-3.639.0826-1.106.2559-2.218.5358-3.29.2959-1.126 1.1782-1.698 2.1352-1.588.9596.109 1.6527.863 1.794 1.999.0693.554.0746 1.112.1092 1.671z"/><path d="m63.2029.00603015c-.1866.59612785-.2639 1.10938985-.4958 1.53709985-1.4234 2.59303-2.8816 5.16734-4.3344 7.74432-.1066.1898-.2399.36623-.3785.53197-.5464.65758-1.1755.84738-1.786.55608-.5944-.2834-.901-.933-.709-1.74031.1386-.58544.3145-1.19226.6211-1.70017 1.3541-2.24016 2.7589-4.44824 4.1557-6.661668.0773-.122968.2533-.2539557.3892-.256629.7891-.02138573 1.5834-.01069285 2.5377-.01069285z"/><path d="m70.6427 63.5699c1.4954.0187 2.3298 1.0906 1.8926 2.1572-.2426.5962-.6851 1.2324-1.2155 1.5666-1.9033 1.1949-3.8652 2.2989-5.8405 3.3709-.7464.4063-1.4874.163-1.8793-.4117-.3865-.5667-.2932-1.3099.2719-1.9274.2266-.2486.4852-.4758.7544-.679 1.4768-1.1013 2.9429-2.2161 4.4516-3.272.5598-.3903 1.2236-.6309 1.5648-.8046z"/><path d="m210.454 233.154c-1.13 0-1.957.061-2.772-.016-1.067-.099-1.757-.96-1.656-1.925.101-.96.899-1.54 1.941-1.561 1.996-.04 3.993-.147 5.99-.23.29-.011.578-.064.866-.064.946-.006 1.653.564 1.751 1.395.107.872-.448 1.633-1.399 1.826-.851.174-1.714.307-2.575.409-.813.093-1.637.128-2.146.166z"/><path d="m118.856 181.937c.086-.411.123-.778.24-1.117.504-1.47 1.986-1.815 3.109-.735.087.083.181.166.242.27 1.072 1.834 1.583 3.841 1.709 5.94.042.724-.427 1.275-1.112 1.561-.69.289-1.325.142-1.9-.313-.094-.075-.192-.155-.259-.254-1.098-1.638-1.685-3.467-2.029-5.352z"/><path d="m145.055.00604496c1.567 0 1.639.08554304 1.356 1.62799504-.429 2.33639-.858 4.67011-1.29 7.00651-.2 1.08265-.973 1.71355-1.908 1.56655-.96-.1497-1.544-1.03191-1.325-2.14397.44-2.23481.901-4.46695 1.41-6.68572.317-1.38205797.365-1.37136504 1.757-1.37136504z"/><path d="m38.7506 113.784c-.2319-.081-.6797-.196-1.0849-.391-1.6954-.815-2.9909-2.13-4.1851-3.539-.7357-.866-.6424-2.042.0853-2.788.7357-.751 1.9539-.824 2.8443-.11.3918.313.7144.719 1.0316 1.115.7597.944 1.5061 1.895 2.2391 2.86.2319.305.4532.639.5891.992.4052 1.045-.1786 1.855-1.5194 1.861z"/><path d="m124.441 61.8429c-.269.3743-.483.949-.88 1.1415-.37.1791-.973.0374-1.407-.131-.357-.139-.68-.4839-.906-.8153-.931-1.3527-1.893-2.692-2.701-4.1141-.624-1.0987-.245-2.2696.696-2.7855.965-.532 2.143-.1684 2.767.9623.677 1.2271 1.29 2.4942 1.866 3.7746.256.5614.352 1.1976.565 1.9675z"/><path d="m6.26706 235.717c-1.16489-.711-2.24449-1.336-3.29209-2.018-.89033-.577-.93032-1.19-.19193-1.957.78904-.823 1.58874-1.633 2.37244-2.462.42651-.452.84501-.543 1.41013-.195.73573.454 1.52476.823 2.28714 1.238.45849.248.63176.687.38119 1.106-.69307 1.153-1.44479 2.27-2.19917 3.385-.23458.347-.54379.644-.76771.903z"/><path d="m76.1581 51.9922c.3998.7939.821 1.5825 1.1995 2.3898.4558.9677.3839 1.62-.1679 1.9729-.5651.3608-1.3195.1363-1.914-.7058-.7677-1.088-1.4847-2.2134-2.1671-3.3549-.4532-.7565-.104-1.6119.8103-2.0156.885-.3903 1.8047-.695 2.7083-1.0425.6771-.262 1.3462-.548 2.0286-.7886.7597-.2647 1.3488-.0642 1.5567.4785.2213.5721-.0479 1.0559-.7943 1.4141-1.0236.4919-2.0499.9838-3.0735 1.4783-.0587.0294-.1013.0936-.1866.1738z"/><path d="m186.935 113.158c-.203-.045-.592-.091-.949-.224-1.517-.564-3.031-1.131-4.527-1.743-1.02-.42-1.412-1.155-1.148-1.968.263-.818 1.133-1.328 2.127-1.016 1.77.554 3.497 1.241 5.238 1.882.176.064.33.201.48.321.658.535.885 1.208.631 1.853-.234.588-.869.933-1.852.895z"/><path d="m315.825 204.117c.139-.47.256-1.093.506-1.657.584-1.318 1.821-1.906 2.999-1.497 1.464.508 2.362 1.978 2.05 3.352-.341 1.494-1.759 2.665-3.289 2.719-.936.032-1.717-.506-1.967-1.398-.126-.444-.182-.904-.299-1.519z"/><path d="m71.3518 27.4867c.1093-.802.1306-1.4382.2959-2.0343.2479-.8929 1.0076-1.3901 1.8446-1.326.8264.0642 1.5114.6844 1.6181 1.5986.0693.5935-.0054 1.2056-.032 1.8071-.048.9891-.1226 1.9782-.1573 2.9673-.0106.3101.0347.6336.1226.9303.2613.8982.1307 1.0826-.813.9891-1.1755-.115-1.9086-.8581-2.2391-1.9034-.3279-1.0238-.4559-2.1118-.6398-3.0287z"/><path d="m325.73 106.98c-2.159-.056-3.446-1.101-3.38-2.745.059-1.412 1.432-2.695 2.842-2.663 1.661.04 3.076 1.286 3.065 2.695-.008 1.294-1.359 2.743-2.527 2.713z"/><path d="m221.207 137.434c-1.863.064-3.324-1.441-2.911-3.056.44-1.719 2.53-2.59 4.073-1.737 1.051.58 1.792 1.331 1.746 2.611-.042 1.217-.837 2.008-2.06 2.109-.264.019-.531.043-.848.073z"/><path d="m237.041 212.204c-1.437 0-2.585-1.153-2.583-2.588.003-1.438 1.149-2.585 2.586-2.585s2.586 1.152 2.583 2.588c-.005 1.438-1.152 2.585-2.586 2.585z"/><path d="m190.038 30.4567c-.192.5426-.286 1.0051-.507 1.3954-.909 1.6012-1.842 3.1864-2.796 4.7583-.363.5988-1.016.7512-1.573.4544-.562-.2994-.808-.9329-.488-1.5611.875-1.7269 1.786-3.4378 2.714-5.1353.168-.3074.434-.6496.738-.7672.365-.1443.872-.1951 1.211-.0454.306.1363.477.5961.701.9009z"/><path d="m208.839 55.5502c.104-1.7403.853-2.7909 2.252-3.1544 1.016-.2647 1.799.1684 2.162 1.1682.813 2.2348-.496 3.3869-2.213 3.9697-1.239.4197-2.284-.5908-2.201-1.9835z"/><path d="m206.719 102.454c-.304-.037-.592.009-.77-.109-.339-.222-.803-.5-.867-.826-.074-.366.16-.864.4-1.203.171-.246.557-.4011.875-.4706 1.314-.2967 2.631-.5988 3.964-.7993.882-.1336 1.442.2353 1.575.8207.139.6152-.357 1.4652-1.077 1.6872-.92.283-1.861.502-2.802.716-.442.102-.903.131-1.298.184z"/><path d="m32.505 205.737c-.0214 1.449-.6185 2.574-1.7887 3.336-.3385.222-1.0129.313-1.2982.118-.2879-.198-.4824-.88-.3758-1.251.3918-1.38.749-2.743.749-4.195 0-.566.3492-1.01.973-1.093.6451-.085 1.1116.238 1.2848.823.2133.736.3093 1.506.4559 2.262z"/><path d="m183.667 211.442c-.043-1.214.631-2.171 1.676-2.385 1.219-.248 2.109.607 2.394 2.294.213 1.259-.44 2.283-1.557 2.446-1.578.23-2.449-.588-2.513-2.355z"/><path d="m67.9663 74.9925c-.5704-.024-1.0849-.2673-1.3408-.8661-.2772-.6442-.2106-1.3633.3679-1.7135 1.0849-.655 2.2258-1.2805 3.4227-1.6628 1.0129-.3234 1.7487.6683 1.3701 1.6414-.4051 1.0506-2.631 2.5877-3.8199 2.601z"/><path d="m197.622 6.84674c-.054-.00267-.19.02139-.291-.02673-.378-.18178-.88-.30475-1.064-.61217-.106-.1791.227-.75117.496-1.00245.845-.79128 1.565-1.628 1.85-2.79352.136-.55603.565-.93295 1.17-.90355.659.02941 1.037.46247 1.219 1.07196.581 1.95145-1.211 4.25844-3.38 4.26646z"/><path d="m335.713 35.8111c1.344.0374 2.501 1.0479 2.479 2.1653-.021 1.1255-1.029 1.9916-2.268 1.9542-1.405-.0455-2.404-.9437-2.364-2.1279.037-1.1442.988-2.0237 2.153-1.9916z"/><path d="m7.27715 179.302c1.31151.016 2.34312.951 2.31646 2.101-.02399 1.048-1.00229 1.898-2.17518 1.895-1.27685-.003-2.2818-.917-2.26315-2.058.016-1.083.96764-1.952 2.12187-1.938z"/><path d="m184.36 114.099c.922.016 1.514.305 1.626.848.109.531-.325 1.12-1.181 1.352-1.048.289-2.119.497-3.191.671-.725.118-1.274-.264-1.413-.85-.152-.647.187-1.326.939-1.505 1.055-.249 2.146-.35 3.22-.516z"/><path d="m8.28223 215.281c.69574.184 1.41813.307 2.08457.572.845.336 1.3568 1.229 1.2928 2.013-.0453.58-.3359.868-.9143.673-.4798-.163-.92232-.425-1.39681-.604-.4265-.16-.86367-.326-1.30883-.388-.98896-.136-1.4288-.47-1.37282-1.152.05864-.668.65575-1.053 1.61539-1.114z"/><path d="m69.7551 164.257c0 .556.0427 1.114-.0133 1.662-.0507.503-.2666.952-.8717.984-.5944.032-.8983-.358-.9916-.863-.1226-.661-.1573-1.34-.2186-2.011-.0427-.457-.0587-.914-.104-1.371-.0586-.62.1813-1.042.8024-1.181.5411-.123 1.1382.237 1.2529.836.1199.636.1252 1.294.1786 1.944-.0107-.003-.0214-.003-.0347 0z"/><path d="m159.495 197.33c.01.82-.432 1.47-1.139 1.673-.671.193-1.356-.112-1.786-.796-.026-.04-.045-.086-.072-.129-.429-.732-.666-1.486-.077-2.237.453-.578 1.074-.725 1.765-.511.773.244 1.295 1.059 1.309 2z"/><path d="m56.9385 233.635c-1.2769-.054-2.0606-.719-2.0099-1.714.0453-.919 1.0876-1.745 2.1219-1.681.829.051 1.5993 1.024 1.5647 1.978-.0347.877-.7197 1.454-1.6767 1.417z"/><path d="m85.6583 145.501c-.9223-.002-1.6233-.705-1.61-1.612.016-1.021.8637-1.874 1.8526-1.86.949.013 1.7167.829 1.7087 1.815-.008.912-.8877 1.657-1.9513 1.657z"/><path d="m3.24146 6.48857c.20792-1.25909.64242-2.09848 1.55141-2.60907.58911-.3288 1.3275-.17376 1.70336.33148.41584.55603.36786 1.12275-.03199 1.67611-.21059.29138-.40518.59613-.6131.89018-.40785.57207-1.25553.94098-1.77267.63356-.38119-.22188-.62643-.679-.83701-.92226z"/><path d="m35.5945 5.40323c-1.2236-.03742-1.69-.39563-1.682-1.29383.0106-1.07464.8716-1.98621 1.8473-1.95413.9116.02941 1.73.91692 1.7007 1.8472-.0294.95968-.6665 1.43819-1.866 1.40076z"/><path d="m172.263 15.1605c-.005.8902-.941 1.7536-1.887 1.7483-.835-.0054-1.493-.7298-1.496-1.6387 0-1.0506.832-1.9648 1.757-1.9381.848.0268 1.634.9089 1.626 1.8285z"/><path d="m188.518 83.8034c-.757.0294-1.197-.5426-.997-1.1949.142-.4571.4-.8741.605-1.3126.318-.6763.632-1.3553.947-2.0343.234-.5106.618-.7592 1.165-.564.493.1764.663.6362.487 1.0666-.514 1.2457-1.087 2.4674-1.679 3.6783-.099.2005-.416.2887-.528.3609z"/><path d="m53.6438 147.087c.104-.463.0826-.872.2746-1.094.2692-.315.6877-.66 1.0609-.684.3412-.021.8877.278 1.0343.585.4345.909.5651 1.906.1039 2.866-.4345.901-1.3515.986-1.8526.123-.3305-.561-.4425-1.251-.6211-1.796z"/><path d="m55.3098 35.6828c-.8317-.0053-1.5115-.6897-1.5195-1.5291-.008-.8848.7598-1.66 1.6581-1.6734.869-.0134 1.5541.6309 1.5567 1.4649.0054.8956-.8237 1.743-1.6953 1.7376z"/><path d="m77.9013 79.112c.885-.0081 1.5674.6255 1.5647 1.4488-.0026.8341-.733 1.5371-1.5994 1.5398-.8236.0054-1.538-.7191-1.562-1.5852-.024-.7966.6557-1.3954 1.5967-1.4034z"/><path d="m260.827 69.0366c.792-.008 1.365.516 1.386 1.2698.019.7458-.576 1.366-1.309 1.3633-.768-.0026-1.509-.7217-1.519-1.4756-.014-.7405.496-1.1468 1.442-1.1575z"/><path d="m322.873 191.77c.528-.006.959.507.949 1.154-.008.594-.304.965-.904 1.021-.546.051-.989-.419-.994-1.01-.003-.634.426-1.16.949-1.165z"/><path d="m144.967 75.7784c1.226.0348 2.593.4251 3.649 1.5692.952 1.0346 1.079 2.4246.362 3.4779-.386.5667-.885.7111-1.567.5988-2.338-.3903-4.617-.0962-6.811.7913-.253.1015-.48.3288-.661.5453-.397.4758-.693.3368-.949-.1123-.469-.8287-.469-1.7215-.253-2.6144.568-2.3578 3.217-4.2397 6.23-4.2558z"/><path d="m132.851 36.6665c-.288-.1203-.943-.2513-1.415-.6175-1.469-1.1441-2.89-2.3551-4.284-3.5901-.626-.5534-1.042-1.2778-1.037-2.168.005-1.3393 1.24-2.3712 2.41-1.7724 2.164 1.1094 4.265 2.3685 6.283 3.7319.994.6709 1.135 1.9675.698 2.9672-.4.9036-1.298 1.4676-2.655 1.4489z"/></g></svg>