<svg width="36" height="36" viewBox="0 0 36 36" fill="none" xmlns="http://www.w3.org/2000/svg">
<path d="M33.807 12.8758C34.8034 12.8758 35.32 12.3435 35.32 11.3855V7.30484C35.32 3.79194 33.4564 2 29.7476 2H25.5037C24.5074 2 23.9538 2.53226 23.9538 3.47258C23.9538 4.39516 24.5074 4.92742 25.5037 4.92742H29.6554C31.3345 4.92742 32.2939 5.79677 32.2939 7.5V11.3855C32.2939 12.3435 32.829 12.8758 33.807 12.8758ZM2.51303 12.8758C3.50942 12.8758 4.04452 12.3435 4.04452 11.3855V7.5C4.04452 5.79677 4.98555 4.92742 6.6831 4.92742H10.8347C11.8126 4.92742 12.3662 4.39516 12.3662 3.47258C12.3662 2.53226 11.8126 2 10.8347 2H6.57239C2.88206 2 1 3.79194 1 7.30484V11.3855C1 12.3435 1.55355 12.8758 2.51303 12.8758ZM16.7577 21.321H16.9237C18.6951 21.321 19.6546 20.3984 19.6546 18.6952V13.4258C19.6546 12.7516 19.1933 12.3081 18.5106 12.3081C17.791 12.3081 17.3481 12.7516 17.3481 13.4258V18.8194C17.3481 18.979 17.2374 19.0855 17.0714 19.0855H16.4994C15.8535 19.0855 15.3554 19.5468 15.3554 20.1677C15.3554 20.8952 15.872 21.321 16.7577 21.321ZM11.5543 17.3823C12.3846 17.3823 12.9751 16.8145 12.9751 15.9984V13.7097C12.9751 12.8935 12.3846 12.3258 11.5543 12.3258C10.724 12.3258 10.1335 12.9113 10.1335 13.7097V15.9984C10.1335 16.8145 10.724 17.3823 11.5543 17.3823ZM24.7288 17.3823C25.5406 17.3823 26.1311 16.8145 26.1311 15.9984V13.7097C26.1311 12.9113 25.5406 12.3258 24.7288 12.3258C23.88 12.3258 23.2895 12.8935 23.2895 13.7097V15.9984C23.2895 16.8145 23.88 17.3823 24.7288 17.3823ZM18.0677 26.9274C20.1712 26.9274 22.3116 26.0581 23.8246 24.6032C24.0461 24.3903 24.1568 24.1242 24.1568 23.7694C24.1568 23.1306 23.6401 22.6694 22.9943 22.6694C22.6437 22.6694 22.4039 22.7758 22.0717 23.1306C21.1307 24.071 19.5992 24.7274 18.0677 24.7274C16.5916 24.7274 15.0786 24.0887 14.0822 23.1306C13.787 22.8645 13.5471 22.6694 13.1227 22.6694C12.4769 22.6694 11.9603 23.1306 11.9603 23.7694C11.9603 24.071 12.071 24.3194 12.3108 24.5855C13.7132 26.129 15.9274 26.9274 18.0677 26.9274ZM6.57239 35H10.8347C11.8126 35 12.3662 34.4855 12.3662 33.5452C12.3662 32.6048 11.8126 32.0903 10.8347 32.0903H6.6831C4.98555 32.0903 4.04452 31.221 4.04452 29.5177V25.6145C4.04452 24.6742 3.49097 24.1419 2.51303 24.1419C1.5351 24.1419 1 24.6742 1 25.6145V29.7129C1 33.2258 2.88206 35 6.57239 35ZM25.5037 35H29.7476C33.4564 35 35.32 33.2081 35.32 29.7129V25.6145C35.32 24.6742 34.7849 24.1419 33.807 24.1419C32.8106 24.1419 32.2939 24.6742 32.2939 25.6145V29.5177C32.2939 31.221 31.3345 32.0903 29.6554 32.0903H25.5037C24.5074 32.0903 23.9538 32.6048 23.9538 33.5452C23.9538 34.4855 24.5074 35 25.5037 35Z" fill="white"/>
</svg>
