<svg width="36" height="36" viewBox="0 0 36 36" fill="none" xmlns="http://www.w3.org/2000/svg">
<path d="M18 1.50001C21.5804 1.50001 25.0142 2.92233 27.546 5.45407C30.0777 7.98581 31.5 11.4196 31.5 15V21C31.5007 23.1725 30.9771 25.3131 29.9736 27.2399C28.9701 29.1668 27.5164 30.823 25.736 32.0679C23.9556 33.3128 21.901 34.1097 19.7468 34.3907C17.5925 34.6718 15.4023 34.4289 13.362 33.6825C13.554 33.417 13.7385 33.147 13.9155 32.8695L14.1705 32.4495C15.6251 30.0227 16.4261 27.2605 16.4955 24.432L16.5 24V13.5H19.5V24C19.5032 26.5749 18.9949 29.1247 18.0045 31.5015C19.163 31.5009 20.3134 31.3094 21.4095 30.9345C22.0725 28.893 22.449 26.7225 22.4955 24.4695L22.5 24V19.4985H25.5V24C25.5 25.632 25.347 27.2295 25.053 28.7775C26.0948 27.8355 26.9363 26.6934 27.5275 25.4194C28.1187 24.1453 28.4474 22.7653 28.494 21.3615L28.5 21V15C28.5 13.0513 27.9577 11.1411 26.9338 9.48302C25.9099 7.82499 24.4448 6.48461 22.7025 5.61187C20.9601 4.73914 19.0093 4.3685 17.0683 4.54142C15.1272 4.71435 13.2726 5.42402 11.712 6.59101L9.57452 4.45201C11.9647 2.53694 14.9372 1.49547 18 1.50001V1.50001ZM10.5 15C10.5 13.0109 11.2902 11.1032 12.6967 9.69671C14.1032 8.29019 16.0109 7.50002 18 7.50002C19.9891 7.50002 21.8968 8.29019 23.3033 9.69671C24.7098 11.1032 25.5 13.0109 25.5 15V16.5H22.5V15C22.5011 13.8287 22.0455 12.703 21.2299 11.8623C20.4142 11.0216 19.3029 10.532 18.1321 10.4976C16.9612 10.4632 15.8231 10.8868 14.9596 11.6782C14.096 12.4696 13.5751 13.5666 13.5075 14.736L13.5 15V24C13.5 26.3505 12.9 28.56 11.844 30.4845L11.808 30.5445C11.463 31.1655 11.0715 31.7565 10.635 32.313C9.9754 31.8829 9.35454 31.396 8.77952 30.858L8.31602 30.408C5.86429 27.8906 4.49469 24.514 4.50002 21V15C4.50002 11.8125 5.60402 8.88301 7.45202 6.57451L9.59102 8.71202C8.30452 10.4269 7.5766 12.4959 7.50602 14.6385L7.50002 15V21C7.50002 23.5125 8.38202 25.818 9.85502 27.6255C10.2423 26.579 10.4581 25.4768 10.494 24.3615L10.5 24V15Z" fill="white"/>
</svg>
