<svg fill="none" height="53" viewBox="0 0 53 53" width="53" xmlns="http://www.w3.org/2000/svg" xmlns:xlink="http://www.w3.org/1999/xlink"><clipPath id="a"><path d="m15.3711 21.2041h9.0261v9.0261h-9.0261z"/></clipPath><clipPath id="b"><path d="m26.7832 21.2041h11.4123v11.4123h-11.4123z"/></clipPath><circle cx="26.5" cy="26.5" fill="#fff" r="26.5"/><rect fill="#1eb0d9" height="19.0205" rx="1" width="29.4818" x="12.5176" y="17.3994"/><g clip-path="url(#a)"><path d="m0 0h9.0261v9.0261h-9.0261z" fill="#1eb0d9" transform="translate(15.3711 21.2041)"/><path d="m21.0123 21.9563c.2641 0 .5236.0695.7523.2015.2288.1321.4187.322.5507.5508.1321.2287.2016.4882.2015.7523 0 .2642-.0696.5236-.2017.7523l1.7059-.0004v.7522h-.7522v3.7609c0 .0997-.0396.1954-.1101.2659-.0706.0705-.1662.1102-.266.1102h-6.0174c-.0997 0-.1954-.0397-.2659-.1102s-.1102-.1662-.1102-.2659v-3.7609h-.7521v-.7522l1.7059.0004c-.1866-.3231-.2465-.704-.168-1.0688.0785-.3647.2898-.6873.5927-.9051.303-.2177.6761-.3151 1.0468-.2733.3708.0419.7128.2201.9595.4999.1409-.1604.3145-.2889.5091-.3768.1945-.0879.4057-.1332.6192-.1328zm-.7522 3.0087h-.7522v3.7609h.7522zm-1.5043-2.2565c-.1952-.0009-.3831.0741-.524.2092s-.2237.3197-.231.5147c-.0074.1951.0614.3853.1918.5306.1303.1453.3121.2342.5068.2479l.0564.0019h.7521v-.7521c.0001-.1798-.0643-.3536-.1814-.49s-.2791-.2263-.4568-.2536l-.0579-.0067zm2.2565 0c-.1898-.0001-.3725.0716-.5117.2006-.1391.1291-.2244.3059-.2386.4951l-.0019.0565v.7521h.7522c.1898.0001.3725-.0716.5117-.2006.1391-.129.2244-.3059.2386-.4951l.0019-.0564c0-.1995-.0793-.3909-.2203-.5319-.1411-.1411-.3324-.2203-.5319-.2203z" fill="#fff"/></g><g clip-path="url(#b)"><path d="m0 0h11.4123v11.4123h-11.4123z" fill="#1eb0d9" transform="translate(26.7832 21.2041)"/><path d="m28.21 23.1061h8.5592v.9511h-8.5592zm0 3.3286h5.7061v.9511h-5.7061zm0 3.3286h8.5592v.951h-8.5592z" fill="#fff"/></g></svg>