<svg fill="none" height="118" viewBox="0 0 141 118" width="141" xmlns="http://www.w3.org/2000/svg"><rect fill="#86cee6" height="80" rx="10" transform="matrix(.93578476 .35257182 -.35257182 .93578476 1.912808 -9.933976)" width="120" x="28.2275" y=".284119"/><path d="m18.1295 21.1738 104.0375.4806c2.047.0094 4.006.8315 5.446 2.2854 1.441 1.4539 2.245 3.4205 2.235 5.4672l-.275 59.4805c-.009 2.0467-.831 4.0058-2.285 5.4463s-3.421 2.2445-5.467 2.2351l-104.0376-.4806c-1.8892-.0087-3.6976-.7676-5.0273-2.1097-1.3298-1.342-2.0719-3.1574-2.0632-5.0466l.2803-60.6736c.0087-1.8893.7676-3.6977 2.1097-5.0274 1.342-1.3297 3.1574-2.0719 5.0466-2.0631z" fill="#1eb0d9"/><path d="m10.8139 65.6654 119.0521-37.6556-.045 9.2551-119.0631 41.032z" fill="#000" opacity=".2"/><path d="m75.8752 21.4534 12.7268 28.8216 13.803 46.2309 11.023.0534-21.8029-53.5693-5.8697-21.4914z" fill="#000" opacity=".2"/><g fill="#fff"><path d="m28.2699 83.8096 1.4356.0097-.0108 2.7513c-.8062.5626-1.7684.8587-2.7515.8466-2.1321-.0103-3.6867-1.5052-3.6856-3.5235s1.5848-3.5023 3.7465-3.4943c.5308-.0215 1.0598.0739 1.5497.2793.4899.2055.9287.5161 1.2854.9098l-1.0133.9226c-.2183-.2477-.4879-.4449-.7899-.5782-.3021-.1332-.6295-.1992-.9596-.1935-.2909-.0118-.5812.035-.8536.1376-.2725.1025-.5215.2588-.7324.4595s-.3793.4418-.4952.7088c-.1159.2671-.1769.5547-.1795.8458s.0534.5798.1646.8488c.1111.2691.2752.513.4825.7174s.4536.3651.7242.4725.56.1592.851.1526c.425.0107.8458-.0869 1.2227-.2836z"/><path d="m31.1764 80.5401 1.5662.0058-.0311 6.7833-1.5662-.0057z"/><path d="m35.9177 81.8221-.0069 1.7866 3.1383.011-.005 1.2625-3.1388-.017-.0141 2.4718-1.5662-.0057.0311-6.7834 5.1215.0208-.005 1.2625z"/><path d="m41.9936 81.8654-2.1677-.0075.0037-1.2803 5.9138.0259-.0037 1.2802-2.1736-.0071-.0274 5.5031-1.568-.0294z"/><path d="m49.0451 84.0134c-.0059-.4605.0822-.9174.2589-1.3426.1768-.4252.4385-.8099.7691-1.1305s.7232-.5703 1.1537-.7339c.4305-.1635.8898-.2375 1.3499-.2173.4446-.016.8878.06 1.3018.2231.4139.1631.7898.4098 1.1041.7248l-.3089.3212c-.2736-.2698-.5989-.4814-.9565-.622s-.74-.2072-1.124-.1959c-.7898-.0038-1.5487.3063-2.1098.862-.5612.5558-.8785 1.3117-.8823 2.1015-.0038.7897.3062 1.5487.862 2.1098s1.3117.8785 2.1014.8823c.3843.0148.7675-.0487 1.1265-.1866.3589-.1378.6861-.3472.9616-.6154l.3099.3157c-.3163.315-.6942.5611-1.1102.7229-.4159.1618-.8608.2358-1.3068.2173-.4585.0159-.9155-.0617-1.3432-.2279-.4276-.1662-.817-.4177-1.1444-.7392-.3274-.3214-.586-.7061-.7601-1.1306s-.2601-.88-.2527-1.3387z"/><path d="m60.6403 85.5474-3.9364-.0158-.8729 1.9061-.5304-.0072 3.1503-6.7887.4939-.0019 3.09 6.8016-.5359-.0009zm-.1864-.4145-1.7458-3.9273-1.7922 3.9051z"/><path d="m67.9798 87.4888-1.6068-2.259c-.2196.0316-.4411.0484-.663.0505l-1.9358-.0133-.0094 2.2214-.494.0019.0306-6.7893 2.4299.0114c1.7096.0127 2.7274.8699 2.7231 2.299.0212.4877-.1301.9672-.4271 1.3545-.2971.3873-.7211.6577-1.1976.7637l1.6878 2.3838zm-2.2685-2.661c1.4528.0024 2.2351-.6704 2.2419-1.8318s-.7658-1.8468-2.2191-1.8552l-1.9354-.0073-.0174 3.6805z"/><path d="m70.2743 80.7177 2.6857.0097c2.1503.0149 3.598 1.4347 3.5938 3.4115-.0043 1.9769-1.4745 3.3867-3.6244 3.3778l-2.6862-.0157zm2.6208 6.3491c1.9177.0088 3.1529-1.2046 3.1642-2.9319.0113-1.7274-1.2188-2.9494-3.1365-2.9581l-2.1558-.0085-.0277 5.8901z"/><path d="m96.0938 91.1879c.0063.0829-16.3267.1242-36.4582.0858-20.1314-.0385-36.4849-.1087-36.493-.2152-.0081-.1066 16.3267-.1243 36.4696-.0926 20.1428.0316 36.4872.1382 36.4816.222z"/></g><path d="m85.1809 43.1117c-2.0402.6495-4.2537.4311-6.3335-.0654-2.0799-.4965-4.0903-1.2542-6.1834-1.6901-5.1621-1.0473-10.5294-.0849-15.006 2.6907-.2228.1112-.405.2896-.5208.51-.0782.2729-.0559.5648.0626.8228l6.4366 17.9118c.1613.6362.5169 1.2064 1.0172 1.6312.7791.536 1.8046.2435 2.7099-.0635 2.8791-.9087 5.6544-2.1178 8.2804-3.6074 2.6323-1.5104 4.8298-3.6752 6.3797-6.2845.6852-1.2429 1.1797-2.5665 1.9032-3.7766.6668-1.2578 1.7663-2.2318 3.0953-2.7421z" fill="#1eb0d9"/><path d="m122.445 46.4175c-1.918-7.6767-3.845-15.3944-6.988-22.6504-5.175.287-9.879 3.1754-13.741 6.6309-3.8627 3.4554-7.1666 7.5232-11.0751 10.9226l.4843 5.5772c1.4945-.6366 3.1545-.7735 4.733-.3903 1.5586.3771 3.0816.8886 4.5518 1.5287 3.395 1.4243 6.986 2.3251 10.652 2.6715 3.662.2509 7.47-.4082 10.571-2.3768.413-.1988.734-.5495.895-.9791.05-.3135.021-.6345-.083-.9343z" fill="#1eb0d9"/><path d="m85.1809 43.1117c-2.0402.6495-4.2537.4311-6.3335-.0654-2.0799-.4965-4.0903-1.2542-6.1834-1.6901-5.1621-1.0473-10.5294-.0849-15.006 2.6907-.2228.1112-.405.2896-.5208.51-.0782.2729-.0559.5648.0626.8228l6.4366 17.9118c.1613.6362.5169 1.2064 1.0172 1.6312.7791.536 1.8046.2435 2.7099-.0635 2.8791-.9087 5.6544-2.1178 8.2804-3.6074 2.6323-1.5104 4.8298-3.6752 6.3797-6.2845.6852-1.2429 1.1797-2.5665 1.9032-3.7766.6668-1.2578 1.7663-2.2318 3.0953-2.7421z" fill="#000" opacity=".3"/><path d="m85.1811 43.1117.1323.3293c.0899.2431.2108.5792.3743 1.0073l1.4321 3.9512.0054.071-.071.0054c-.9341.3392-1.7503.9409-2.3506 1.7329-.7066.9627-1.2946 2.0069-1.7516 3.1101-.5457 1.2786-1.2546 2.4812-2.1088 3.5779-.961 1.219-2.0795 2.3052-3.3261 3.2301-2.5875 1.9831-5.8448 3.3801-9.3355 4.6045-.8657.2803-1.7307.7272-2.7864.623-.2586-.0287-.5085-.1108-.7337-.2413-.2251-.1304-.4207-.3063-.5742-.5164-.2738-.4159-.4867-.8688-.6323-1.3449-.657-1.8253-1.3294-3.6971-2.0154-5.5916-1.0046-2.793-1.9805-5.5228-2.9314-8.1592-.4693-1.3156-.9373-2.6136-1.3907-3.8769-.1649-.3312-.2225-.7055-.1649-1.0709.1651-.3279.4405-.587.7777-.732.5689-.347 1.1388-.6821 1.7144-.9403 2.2148-1.0653 4.6018-1.7269 7.0489-1.9537 2.1529-.2199 4.3271-.0941 6.4403.3727 1.9096.4499 3.5668 1.0262 5.054 1.4011 1.2624.3753 2.562.6117 3.8758.705.8305.0556 1.6646.0101 2.4841-.1356.5574-.1079.8657-.2029.8547-.1901-.0688.0334-.1404.0607-.214.0818-.2051.0661-.4135.1218-.6243.1666-.8227.1731-1.6645.2372-2.5038.1907-1.3273-.0722-2.6423-.2935-3.92-.66-1.4999-.3858-3.1622-.9498-5.0599-1.4006-4.4703-.9455-9.128-.3814-13.2433 1.604-.5739.2818-1.146.5873-1.7153.9284-.2847.1705-.5698.3351-.6524.5795-.0364.3013.0201.6064.1618.8747.4577 1.267.9254 2.561 1.403 3.882.9446 2.6309 1.9264 5.3602 2.9368 8.1528.6806 1.9009 1.3505 3.7649 2.0095 5.592.1323.4508.3315.8791.591 1.2707.128.1769.2917.325.4805.4347.1889.1097.3986.1786.6158.2021.8941.0927 1.7622-.3128 2.6511-.6007 3.4798-1.2117 6.7125-2.6188 9.2749-4.5404 1.2306-.9009 2.3389-1.9579 3.2969-3.1445.8471-1.0811 1.557-2.263 2.1134-3.5187.4685-1.1083 1.0728-2.1542 1.7989-3.1137.6271-.8143 1.4784-1.4275 2.4494-1.7642l-.052.0992c-.576-1.7005-1.028-3.0235-1.3355-3.9347l-.3466-1.0333c-.1032-.1827-.1373-.317-.1373-.317z" fill="#263238"/><path d="m122.445 46.4175c-1.918-7.6767-3.845-15.3944-6.988-22.6504-5.175.287-9.879 3.1754-13.741 6.6309-3.8627 3.4554-7.1666 7.5232-11.0751 10.9226l.4843 5.5772c1.4945-.6366 3.1545-.7735 4.733-.3903 1.5586.3771 3.0816.8886 4.5518 1.5287 3.395 1.4243 6.986 2.3251 10.652 2.6715 3.662.2509 7.47-.4082 10.571-2.3768.413-.1988.734-.5495.895-.9791.05-.3135.021-.6345-.083-.9343z" fill="#000" opacity=".3"/><path d="m122.445 46.4175c.08.204.127.4196.138.6384.012.2771-.083.5482-.264.7583-.247.2704-.54.4944-.866.6613-2.031 1.233-4.312 1.9966-6.676 2.235-3.014.3783-6.718-.0301-10.651-1.2487-.985-.3219-1.985-.6644-3.001-1.0276-1.023-.3746-2.0503-.8083-3.1149-1.1857-1.077-.4034-2.2016-.6659-3.3458-.781-1.1828-.127-2.3781.0605-3.4652.5437l-.1954.0923-.0162-.2131c-.1352-1.7757-.32-3.6549-.4902-5.5768l-.0059-.0769.0615-.0523c1.8424-1.6049 3.6318-3.4379 5.4348-5.3255 2.9549-3.1006 5.8673-6.1383 9.1503-8.3709 3.282-2.2325 6.862-3.6958 10.307-3.8749l.095-.0072.036.0806c2.188 5.3107 3.972 10.7791 5.336 16.3585.517 2.0146.899 3.5988 1.16 4.6744.124.5323.22.9417.285 1.2404.01.1303.053.2341.071.3161.008.0369.011.0747.009.1124 0 0-.003-.0355-.038-.1043l-.089-.3146c-.078-.2918-.186-.7003-.326-1.2255-.286-1.0974-.703-2.6671-1.23-4.669-1.409-5.554-3.217-10.9993-5.409-16.2934l.125.0798c-3.391.1868-6.937 1.6178-10.155 3.8513-3.217 2.2335-6.15 5.2312-9.0921 8.3427-1.8089 1.8881-3.6037 3.7274-5.4634 5.3396l.0556-.1293c.1465 1.9237.3254 3.8033.4784 5.5777l-.2116-.1209c1.1349-.498 2.3801-.6914 3.6127-.5609 1.1698.1188 2.3192.3895 3.419.8053 1.077.3824 2.0984.8225 3.1154 1.1975s2.002.7286 2.984 1.0348c3.39 1.159 6.984 1.603 10.554 1.3038 2.345-.2183 4.614-.9458 6.648-2.1317.321-.1686.611-.3921.855-.6604.173-.1938.269-.445.268-.705-.022-.1975-.053-.3938-.093-.5883z" fill="#263238"/><path d="m87.9303 49.5046s-1.3971.3386-2.2256 4.3905-1.7117 22.6283-1.7117 22.6283l17.956 3.3655-9.9159-30.1372z" fill="#1eb0d9"/><path d="m93.2236 49.0479 11.8684 19.1115 8.235-12.4031s-12.353-9.305-19.7027-8.5607z" fill="#1eb0d9"/><path d="m87.9303 49.5046s-1.3971.3386-2.2256 4.3905-1.7117 22.6283-1.7117 22.6283l17.956 3.3655-9.9159-30.1372z" fill="#000" opacity=".3"/><path d="m93.2236 49.0479 11.8684 19.1115 8.235-12.4031s-12.353-9.305-19.7027-8.5607z" fill="#000" opacity=".3"/><g fill="#263238"><path d="m87.9302 49.5047c.086-.0145.1732-.0212.2604-.0199l.7822.0298 3.0717.153.0473-.0036.0036.0473c1.8376 5.4444 5.5706 16.7038 9.9846 30.1081l.078.2441-.253-.0462-5.0071-.9403-12.9361-2.4142-.1243.0095-.0095-.1243c.42-8.087.8623-15.0207 1.4006-19.9137.1084-1.9269.5569-3.8193 1.3245-5.59.218-.4722.5227-.8993.8983-1.2591.1016-.0879.214-.1625.3344-.2219.0806-.0359.1275-.0455.128-.0395l-.1203.0627c-.1101.0669-.212.1466-.3034.2374-.3564.3643-.6446.7895-.851 1.2555-.7225 1.7756-1.1366 3.6615-1.2243 5.5764-.485 4.889-.8859 11.8195-1.2881 19.9051l-.1187-.1517 12.9484 2.4192 5.0066.9403-.169.1975c-4.4026-13.4052-8.0719-24.6873-9.8224-30.1621l.0568.0433-3.0584-.2136-.7849-.0652z"/><path d="m93.2235 49.0479s-.0027-.0355-.0085-.1125l.0622-.356.2869-1.3911-.0027-.0355.0592-.0045c1.7681-.2359 4.7835.2727 8.2184 1.7554 4.099 1.811 7.985 4.0708 11.587 6.738l.113.0865-.08.1193-3.776 5.6814-4.466 6.7162-.134.1948-.122-.1991-8.4649-13.7447-2.4286-3.9825-.6412-1.0704c-.0802-.1184-.1477-.245-.2014-.3775 0 0 .0928.1239.2542.3676l.6758 1.0558c.5962.9488 1.447 2.2712 2.5115 3.9761 2.135 3.4095 5.1036 8.1545 8.5396 13.6378l-.248.019 4.481-6.7472 3.783-5.6759.015.2012c-3.579-2.6593-7.432-4.9284-11.494-6.7688-3.4296-1.495-6.3649-2.0454-8.1129-1.8587l.0446-.0391-.3365 1.3651c-.037.1398-.0635.2608-.0923.3523-.0049.0329-.0124.0653-.0224.097z"/><path d="m85.7509 47.2356c.0032.0415-.7838.2622-2.0511.6623-1.2674.4002-3.002.9966-4.8716 1.776-1.8695.7794-3.5028 1.6123-4.6684 2.2547-.613.3722-1.2448.7125-1.8929 1.0194.1344-.1393.2876-.2592.4551-.3562.3047-.2197.7589-.5103 1.3278-.8572 1.498-.8877 3.0556-1.6707 4.6616-2.3435 1.6014-.6777 3.2468-1.2466 4.9248-1.7027.6476-.1743 1.1676-.3032 1.5373-.3731.1869-.0575.3819-.0844.5774-.0797z"/><path d="m84.9725 45.3779c-.6589.1086-1.3231.181-1.9898.217-1.5976.1548-3.1849.4009-4.7543.7372-1.8328.4015-3.4686.8893-4.6672 1.2544-.6291.2214-1.2713.4036-1.923.5454.149-.0999.3114-.1784.4823-.2332.3229-.1377.7915-.3163 1.3712-.5212 1.5235-.546 3.0801-.9946 4.6605-1.3432 1.5809-.3451 3.1865-.5649 4.802-.6575.5919-.045 1.1218-.0437 1.4674-.0403.1846-.0139.3703.0001.5509.0414z"/><path d="m109.244 36.9211c.004.0532-.938.119-2.449.3651-1.961.3143-3.885.8279-5.742 1.5327-1.851.7199-3.6195 1.6371-5.2745 2.7355-1.2627.8522-1.9903 1.4613-2.0294 1.4166.1445-.1711.3062-.3271.4825-.4653.4527-.4036.929-.7798 1.4264-1.1267 1.6329-1.1707 3.4086-2.1282 5.284-2.8493 1.882-.7173 3.844-1.2084 5.842-1.463.761-.0937 1.382-.1469 1.811-.1379.215-.0263.433-.0289.649-.0077z"/><path d="m108.731 42.3063c-.166.1013-.344.1809-.53.2368-.34.1391-.845.3144-1.479.5115-1.65.5137-3.335.9028-5.043 1.164-1.7081.2624-3.4336.3939-5.1616.3931-.6616-.0091-1.1929-.0282-1.5703-.059-.1924.0009-.3843-.0225-.5709-.0696.7101-.0667 1.4231-.0971 2.1363-.0913 1.7142-.0611 3.4234-.2211 5.1195-.4792 1.693-.2656 3.371-.6219 5.026-1.0674.682-.215 1.373-.3949 2.073-.5389z"/></g><path d="m94.6658 45.235c-.3015-1.0496-.7671-2.0449-1.3795-2.949-.5075-.8008-.7186-1.6182-1.9363-1.972-.5407-.1088-1.0993-.0906-1.6317.0533-.5325.1438-1.0243.4094-1.4366.7757-.824-.6576-2.0715-.1518-2.851.5565-.3774.3741-.6618.8315-.8302 1.3355s-.2162 1.0404-.1395 1.5663c.1717 1.0445.5898 2.0331 1.2198 2.8838.8309 1.3116 2.0381 2.3422 3.4639 2.9569.6455.2503 1.3438.3335 2.03.2416.6862-.0918 1.338-.3555 1.895-.7667.7132-.5232 1.2487-1.2528 1.5342-2.09.2854-.8373.307-1.742.0619-2.5919z" fill="#1eb0d9"/><path d="m94.6658 45.235c-.3015-1.0496-.7671-2.0449-1.3795-2.949-.5075-.8008-.7186-1.6182-1.9363-1.972-.5407-.1088-1.0993-.0906-1.6317.0533-.5325.1438-1.0243.4094-1.4366.7757-.824-.6576-2.0715-.1518-2.851.5565-.3774.3741-.6618.8315-.8302 1.3355s-.2162 1.0404-.1395 1.5663c.1717 1.0445.5898 2.0331 1.2198 2.8838.8309 1.3116 2.0381 2.3422 3.4639 2.9569.6455.2503 1.3438.3335 2.03.2416.6862-.0918 1.338-.3555 1.895-.7667.7132-.5232 1.2487-1.2528 1.5342-2.09.2854-.8373.307-1.742.0619-2.5919z" fill="#000" opacity=".3"/><g fill="#263238"><path d="m94.6659 45.235c.0509.1028.0873.2123.1081.3252.0698.3139.1081.6341.1144.9557.0152 1.0285-.3395 2.0282-.9995 2.8171s-1.5814 1.3146-2.5964 1.4813c-.9576.1433-1.9358-.0333-2.7828-.5025-.9272-.5029-1.7414-1.1906-2.3924-2.0206-.7333-.861-1.2888-1.8587-1.6345-2.9355-.2019-.6134-.2441-1.2682-.1226-1.9025.1215-.6342.4026-1.2271.8169-1.7225.4209-.4352.9418-.761 1.5173-.949.2781-.1045.578-.1378.8723-.0968.2942.0411.5736.1551.8125.3316l-.1953.0149c.5084-.493 1.164-.8064 1.8669-.8923.6239-.1348 1.2752-.052 1.8456.2345.4877.2802.8774.7036 1.1163 1.2128.2301.4409.4788.8149.6857 1.1861.3279.5594.5964 1.1515.8014 1.7667.0571.1619.1035.3274.1389.4954.0086.1125.0131.1717.0131.1717s-.0827-.2259-.245-.6362c-.2377-.5972-.5265-1.1728-.8632-1.7203-.211-.3471-.4789-.7375-.7203-1.1716-.2249-.469-.5892-.8572-1.0432-1.1112-.5291-.2517-1.1278-.3173-1.699-.1861-.6474.0829-1.2514.3709-1.7234.8218l-.0875.102-.1015-.0816c-.2044-.1447-.4414-.2365-.6899-.2674-.2486-.031-.5009 0-.7345.0901-.5242.1746-.9979.4743-1.3802.8731-.3741.4559-.6272.9986-.7361 1.5782-.1088.5795-.0698 1.1772.1135 1.7377.334 1.0363.8683 1.9969 1.5727 2.8271.6233.799 1.4008 1.4646 2.2863 1.9572.7932.4504 1.7125.6272 2.6162.5033.7855-.1167 1.5192-.4625 2.1092-.9941.4316-.3839.7792-.8527 1.0209-1.3772.2418-.5246.3726-1.0934.3841-1.6708.0058-.4161-.0159-.8321-.065-1.2453z"/><path d="m88.1862 49.9733c-.0441-.0323.2621-.4665.6024-1.2365.4485-.9953.6897-2.0715.7089-3.163s-.184-2.1755-.5971-3.186c-.3154-.7797-.6106-1.2156-.5655-1.2488.3311.332.592.7272.7672 1.162.4856 1.0221.7298 2.1422.7137 3.2736-.0158 1.1333-.2958 2.2473-.8179 3.2534-.1927.4313-.4685.8205-.8117 1.1453z"/><path d="m93.7491 42.9711c.0723.4261.0692.8616-.0092 1.2866-.1187 1.0327-.4126 2.0376-.8691 2.9715-.4527.9428-1.0713 1.7966-1.8262 2.5204-.2935.3162-.6432.575-1.0314.7632 1.0371-.9874 1.9085-2.1352 2.5809-3.3995 1.0501-2.1577 1.0449-4.1815 1.155-4.1422z"/></g><g fill="#fff"><path d="m80.0287 44.5637c-.2877-.016-.5735-.0559-.8545-.1194l-2.318-.4188c-2.5382-.5068-5.1095-.8302-7.6941-.9679-2.5859-.1335-5.1768.1402-7.6777.811-.7534.21-1.4934.4651-2.216.7641-.2625.1237-.5328.2299-.8093.3176.236-.1707.4907-.314.7593-.4269.7107-.3457 1.4469-.6366 2.2019-.8702 2.5082-.7404 5.1241-1.0483 7.7356-.9107 2.6.1381 5.184.4929 7.725 1.0608.9742.2056 1.7562.3901 2.2961.5217.2904.0544.5753.1343.8517.2387z"/><path d="m77.2668 47.5424c-.7494.2481-1.5175.436-2.2969.5619-.7565.2273-1.5305.3918-2.3141.4918 1.4366-.6981 3.0138-1.0585 4.611-1.0537z"/><path d="m76.415 51.4413c.0413.0743-.3304.3526-.8278.6227-.4973.27-.9322.4222-.9736.348-.0414-.0743.3303-.3526.8277-.6227.4974-.27.9341-.3986.9737-.348z"/><path d="m86.0847 46.2994c-.0296.0022-.2357-.2024-.4476-.6387-.2701-.5813-.402-1.2171-.3856-1.8579.0114-.6338.1676-1.2566.4567-1.8208.2353-.4287.4521-.6298.4817-.632-.357.7752-.5718 1.6082-.6342 2.4594.0319.8542.2109 1.6965.529 2.49z"/><path d="m90.2522 46.8511c-.052-.4495-.0647-.9028-.0377-1.3545-.0765-.4456-.111-.8975-.1028-1.3496.2328.4095.3647.8684.385 1.3389.0204.4705-.0716.9391-.2682 1.367z"/><path d="m101.648 32.3261c-1.246 1.3259-2.563 2.5829-3.9458 3.7654-1.3167 1.2525-2.7016 2.4313-4.1485 3.5308 1.244-1.3278 2.5614-2.5849 3.9461-3.7654 1.3166-1.2526 2.7012-2.4313 4.1482-3.5308z"/><path d="m99.1284 40.5134c-.7574.6808-1.6456 1.2002-2.6104 1.5264.3465-.3774.7644-.6824 1.2295-.8973.4122-.3023.8823-.5165 1.3809-.6291z"/><path d="m86.7772 57.4271c-.2474-1.127-.2754-2.2912-.0825-3.4288.0946-1.1521.4136-2.2745.939-3.3042.0856.0292-.3872 1.4821-.6149 3.3391-.2277 1.8569-.1528 3.3872-.2416 3.3939z"/><path d="m99.008 55.3466c-1.0607-1.459-1.9498-3.0354-2.6498-4.6979.5717.6983 1.0612 1.4601 1.4588 2.2703.4869.7619.8864 1.5763 1.191 2.4276z"/><path d="m39.4772 27.9583c.0068.0888-3.6664.0114-8.1745-.1632-4.5082-.1747-8.1681-.39-8.1685-.4734-.0004-.0833 3.6665-.0113 8.1805.1628 4.5141.1742 8.1681.39 8.1625.4738z"/></g></svg>