<svg fill="none" height="261" viewBox="0 0 230 261" width="230" xmlns="http://www.w3.org/2000/svg"><path clip-rule="evenodd" d="m1.6634 27.6989c.02261 9.0869.0405 13.4601 5.09221 19.0951 4.36249 4.866 9.52609 7.098 18.09519 7.0968l180.3962-.0014c13.089.0035 22.478-5.2622 24.337-17.1976 2.136-13.6993-7.683-19.9009-14.491-26.87858-10.605-10.87116-13.503-9.023857-32.018-9.023857-21.702.001191-160.418-.8890272-165.9863.410797-3.9388.92012-9.66412 5.55871-11.90073 8.82134-3.34717 4.8791-3.55195 10.1832-3.52457 17.6774z" fill="#1eb0d9" fill-rule="evenodd"/><path clip-rule="evenodd" d="m17.5906 87.8429c-22.23033 6.6622-21.51736 41.9201-4.259 50.1621 8.1299 3.882 65.7067 1.97 77.0243 1.97 10.3031 0 44.4991 1.304 52.1101-.61 13.685-3.441 20.07-20.455 11.356-32.02-3.025-4.016-9.089-9.5937-12.909-13.2908-6.059-5.8647-9.273-6.7981-19.309-6.816-15.56-.0286-95.9561-1.8093-104.0134.6047z" fill="#1eb0d9" fill-rule="evenodd"/><circle cx="47.5444" cy="213.222" fill="#09099f" r="47.5"/></svg>