<svg width="45" height="36" viewBox="0 0 45 36" fill="none" xmlns="http://www.w3.org/2000/svg">
<path d="M16.417 2.97417H28.5842V24.8367H16.417V2.97417Z" fill="#FF5F00"/>
<path d="M8.18974 35.8409V33.5234C8.18974 32.6348 7.64886 32.0556 6.72175 32.0556C6.25829 32.0556 5.75612 32.2101 5.40843 32.7123C5.13816 32.2873 4.75194 32.0556 4.17253 32.0556C3.78613 32.0556 3.40009 32.1714 3.09094 32.5963V32.1328H2.27979V35.8409H3.09094V33.7937C3.09094 33.1372 3.43862 32.828 3.9795 32.828C4.52004 32.828 4.79065 33.1757 4.79065 33.7937V35.8409H5.6018V33.7937C5.6018 33.1372 5.98785 32.828 6.49002 32.828C7.03091 32.828 7.30117 33.1757 7.30117 33.7937V35.8409H8.18974ZM20.2023 32.1328H18.8892V31.0127H18.078V32.1328H17.3441V32.8666H18.0779V34.5663C18.0779 35.4162 18.4255 35.9182 19.3526 35.9182C19.7003 35.9182 20.0864 35.8024 20.357 35.6479L20.1251 34.9525C19.8934 35.107 19.6231 35.1457 19.4299 35.1457C19.0437 35.1457 18.8892 34.914 18.8892 34.5276V32.8666H20.2023V32.1328ZM27.0779 32.0554C26.6145 32.0554 26.3055 32.2873 26.1123 32.5963V32.1328H25.3011V35.8409H26.1123V33.7551C26.1123 33.1372 26.3825 32.7895 26.8847 32.7895C27.0392 32.7895 27.2324 32.8282 27.3869 32.8668L27.6186 32.0943C27.4641 32.0556 27.2324 32.0556 27.0779 32.0556V32.0554ZM16.6875 32.4418C16.3011 32.1714 15.7604 32.0556 15.1809 32.0556C14.254 32.0556 13.6361 32.5191 13.6361 33.253C13.6361 33.8711 14.0995 34.2186 14.9107 34.3346L15.2969 34.3733C15.7218 34.4503 15.9536 34.5663 15.9536 34.7595C15.9536 35.0298 15.6446 35.223 15.1037 35.223C14.563 35.223 14.1381 35.0298 13.8676 34.8367L13.4814 35.4547C13.9063 35.7637 14.4857 35.9182 15.065 35.9182C16.1466 35.9182 16.7647 35.4162 16.7647 34.7208C16.7647 34.0641 16.2625 33.7164 15.4899 33.6007L15.1037 33.562C14.756 33.5232 14.4857 33.4462 14.4857 33.2144C14.4857 32.944 14.756 32.7895 15.1809 32.7895C15.6446 32.7895 16.108 32.9825 16.3398 33.0985L16.6875 32.4418ZM38.241 32.0556C37.7774 32.0556 37.4684 32.2873 37.2752 32.5963V32.1328H36.464V35.8409H37.2752V33.7551C37.2752 33.1372 37.5456 32.7895 38.0476 32.7895C38.2023 32.7895 38.3955 32.8282 38.55 32.8668L38.7817 32.0943C38.6272 32.0556 38.3955 32.0556 38.241 32.0556ZM27.8891 33.9869C27.8891 35.107 28.6615 35.9182 29.8591 35.9182C30.3998 35.9182 30.786 35.8024 31.1722 35.4934L30.786 34.8367C30.477 35.0685 30.168 35.1843 29.8203 35.1843C29.1637 35.1843 28.7002 34.7208 28.7002 33.9869C28.7002 33.2917 29.1637 32.828 29.8203 32.7895C30.168 32.7895 30.477 32.9053 30.786 33.1372L31.1722 32.4805C30.786 32.1714 30.3998 32.0556 29.8591 32.0556C28.6615 32.0556 27.8891 32.8668 27.8891 33.9869ZM35.3826 33.9869V32.1328H34.5715V32.5963C34.301 32.2488 33.9148 32.0556 33.4126 32.0556C32.3698 32.0556 31.5586 32.8668 31.5586 33.9869C31.5586 35.107 32.3698 35.9182 33.4126 35.9182C33.9533 35.9182 34.3397 35.7251 34.5715 35.3774V35.8409H35.3826V33.9869ZM32.4083 33.9869C32.4083 33.3302 32.8332 32.7895 33.5284 32.7895C34.1851 32.7895 34.6487 33.2917 34.6487 33.9869C34.6487 34.6435 34.1851 35.1843 33.5284 35.1843C32.8332 35.1455 32.4083 34.6435 32.4083 33.9869ZM22.7132 32.0556C21.6316 32.0556 20.859 32.828 20.859 33.9869C20.859 35.1457 21.6314 35.9182 22.7517 35.9182C23.2924 35.9182 23.8333 35.7637 24.2583 35.4162L23.8719 34.8367C23.5629 35.0685 23.1767 35.223 22.7904 35.223C22.2883 35.223 21.7861 34.9912 21.6701 34.3344H24.4127V34.0256C24.4515 32.828 23.7561 32.0556 22.713 32.0556H22.7132ZM22.7132 32.7508C23.2152 32.7508 23.5631 33.06 23.6401 33.6394H21.7088C21.7861 33.1372 22.1338 32.7508 22.7132 32.7508ZM42.8375 33.9869V30.665H42.0263V32.5963C41.7559 32.2488 41.3696 32.0556 40.8675 32.0556C39.8246 32.0556 39.0134 32.8668 39.0134 33.9869C39.0134 35.107 39.8246 35.9182 40.8675 35.9182C41.4084 35.9182 41.7946 35.7251 42.0263 35.3774V35.8409H42.8375V33.9869ZM39.8633 33.9869C39.8633 33.3302 40.2881 32.7895 40.9834 32.7895C41.6401 32.7895 42.1035 33.2917 42.1035 33.9869C42.1035 34.6435 41.6401 35.1843 40.9834 35.1843C40.2881 35.1455 39.8633 34.6435 39.8633 33.9869ZM12.7475 33.9869V32.1328H11.9363V32.5963C11.6659 32.2488 11.2797 32.0556 10.7775 32.0556C9.73462 32.0556 8.92347 32.8668 8.92347 33.9869C8.92347 35.107 9.73462 35.9182 10.7775 35.9182C11.3184 35.9182 11.7046 35.7251 11.9363 35.3774V35.8409H12.7475V33.9869ZM9.73462 33.9869C9.73462 33.3302 10.1596 32.7895 10.8547 32.7895C11.5114 32.7895 11.975 33.2917 11.975 33.9869C11.975 34.6435 11.5114 35.1843 10.8547 35.1843C10.1596 35.1455 9.73462 34.6435 9.73462 33.9869Z" fill="white"/>
<path d="M17.1893 13.9055C17.1893 9.46353 19.2751 5.52356 22.481 2.97416C20.1249 1.12013 17.1508 0 13.9062 0C6.21924 0 0.000488281 6.21876 0.000488281 13.9055C0.000488281 21.5921 6.21924 27.811 13.906 27.811C17.1506 27.811 20.1247 26.6909 22.481 24.8367C19.2751 22.326 17.1893 18.3475 17.1893 13.9055Z" fill="#EB001B"/>
<path d="M45 13.9055C45 21.5921 38.7812 27.811 31.0945 27.811C27.8499 27.811 24.8757 26.6909 22.5195 24.8367C25.7641 22.2874 27.8114 18.3475 27.8114 13.9055C27.8114 9.46353 25.7254 5.52356 22.5195 2.97416C24.8756 1.12013 27.8499 0 31.0945 0C38.7812 0 45.0002 6.25747 45.0002 13.9055H45Z" fill="#F79E1B"/>
</svg>
