<svg width="10" height="13" viewBox="0 0 10 13" fill="none" xmlns="http://www.w3.org/2000/svg">
<path d="M1.29459 12.6754V8.47635H0.308594V7.21835H1.29459V5.99435H0.308594V4.73635H1.29459V0.537354H3.96359L5.28959 4.73635H6.83659V0.537354H8.72359V4.73635H9.69259V5.99435H8.72359V7.21835H9.69259V8.47635H8.72359V12.6754H6.03759L4.67759 8.47635H3.18159V12.6754H1.29459ZM3.18159 7.21835H4.30359L3.92959 5.99435H3.14759L3.18159 7.21835ZM6.88759 10.0234H6.97259L6.90459 8.47635H6.44559L6.88759 10.0234ZM3.11359 4.73635H3.58959L3.09659 3.10435H3.02859L3.11359 4.73635ZM6.08859 7.21835H6.87059L6.83659 5.99435H5.69759L6.08859 7.21835Z" fill="#088360"/>
</svg>
