<svg width="32" height="32" viewBox="0 0 32 32" fill="none" xmlns="http://www.w3.org/2000/svg">
<path fill-rule="evenodd" clip-rule="evenodd" d="M23.6919 14.1506H29.3334C29.3334 10.2681 26.6193 8 22.0208 8H9.97934C5.38082 8 2.66675 10.2681 2.66675 14.1011V22.4703C2.66675 26.3033 5.38082 28.5714 9.97934 28.5714H22.0208C26.6193 28.5714 29.3334 26.3033 29.3334 22.4703V22.1138H23.6919C21.0737 22.1138 18.9512 20.34 18.9512 18.152C18.9512 15.964 21.0737 14.1902 23.6919 14.1902V14.1506ZM23.6919 15.8542H28.3379C28.8877 15.8542 29.3334 16.2267 29.3334 16.6862V19.5782C29.327 20.0355 28.885 20.4049 28.3379 20.4102H23.7986C22.4731 20.4251 21.3141 19.6667 21.0134 18.5878C20.8629 17.918 21.0742 17.2269 21.5908 16.6997C22.1075 16.1724 22.8765 15.8629 23.6919 15.8542ZM23.8934 18.8948H24.3319C24.8949 18.8948 25.3512 18.5135 25.3512 18.0431C25.3512 17.5726 24.8949 17.1913 24.3319 17.1913H23.8934C23.6242 17.1886 23.3649 17.2762 23.1734 17.4343C22.9819 17.5925 22.8741 17.8081 22.8742 18.0332C22.8741 18.5052 23.3286 18.8894 23.8934 18.8948ZM8.98379 14.1506H16.5097C17.0726 14.1506 17.529 13.7693 17.529 13.2989C17.529 12.8284 17.0726 12.4471 16.5097 12.4471H8.98379C8.42546 12.447 7.97102 12.8224 7.96453 13.2889C7.96449 13.761 8.41895 14.1452 8.98379 14.1506Z" fill="white"/>
<path d="M15.2059 0.31016L10.9906 4.24779C10.5561 4.65234 10.5561 5.31311 11.0051 5.71766C11.4397 6.12221 12.1495 6.12221 12.584 5.71766L14.8872 3.56005L14.8872 9.14286L17.1179 9.14286L17.1179 3.56005L19.4211 5.71766C19.8557 6.12221 20.5654 6.12221 21 5.71766C21.2173 5.51538 21.3332 5.24568 21.3332 4.97598C21.3332 4.71977 21.2173 4.45007 21 4.24779L16.7848 0.310159C16.582 0.107884 16.2923 3.60392e-06 16.0026 3.61477e-06C15.6984 3.62617e-06 15.4232 0.107884 15.2059 0.31016Z" fill="white"/>
</svg>
