<svg width="64" height="21" viewBox="0 0 64 21" fill="none" xmlns="http://www.w3.org/2000/svg">
<path d="M33.0993 6.71359C33.0628 9.63883 35.6649 11.2713 37.6251 12.2419C39.6392 13.2378 40.3157 13.8763 40.308 14.7668C40.2926 16.1298 38.7013 16.7313 37.2119 16.7547C34.6137 16.7957 33.1031 16.0419 31.902 15.4717L30.9661 19.9221C32.171 20.4864 34.4023 20.9785 36.7161 21C42.1471 21 45.7006 18.2759 45.7198 14.0521C45.7409 8.69174 38.4227 8.39492 38.4726 5.99888C38.4899 5.27246 39.1722 4.49721 40.6673 4.29998C41.4072 4.20039 43.4501 4.12423 45.7659 5.20801L46.6749 0.902176C45.4296 0.441324 43.8287 0 41.8358 0C36.7238 0 33.1281 2.7612 33.0993 6.71359ZM55.4095 0.371023C54.4179 0.371023 53.5819 0.958805 53.2091 1.86098L45.4507 20.6837H50.8779L51.958 17.651H58.5901L59.2166 20.6837H64L59.8258 0.371023H55.4095ZM56.1686 5.85828L57.7349 13.4858H53.4454L56.1686 5.85828ZM26.519 0.371023L22.2411 20.6837H27.4126L31.6887 0.371023H26.519ZM18.8683 0.371023L13.4853 14.1966L11.3079 2.44095C11.0523 1.12869 10.0434 0.371023 8.92295 0.371023H0.122996L0 0.960758C1.8065 1.35912 3.85899 2.00158 5.1024 2.68895C5.86343 3.1088 6.0806 3.47591 6.33043 4.47378L10.4546 20.6837H15.9202L24.2993 0.371023H18.8683Z" fill="white"/>
</svg>
