<svg fill="none" height="112" viewBox="0 0 488 112" width="488" xmlns="http://www.w3.org/2000/svg"><path clip-rule="evenodd" d="m.869966 11.5529c.00923 3.7089.016531 5.4938 2.078424 7.7938 1.7806 1.9861 3.88814 2.8971 7.38571 2.8966l73.6301-.0006c5.3423.0015 9.1746-2.1478 9.9334-7.0193.8716-5.59147-3.136-8.12271-5.9146-10.97068-4.3288-4.437159-5.5113-3.683166-13.0685-3.683166-8.8577.000486-65.47583-.362863-67.74857.167671-1.60764.375555-3.94449 2.268835-4.85738 3.600515-1.366178 1.99144-1.449759 4.15632-1.438584 7.21516z" fill="#10b6e8" fill-rule="evenodd"/><path clip-rule="evenodd" d="m7.37131 36.1011c-9.0735 2.7193-8.7825 17.1103-1.73834 20.4742 3.31827 1.5843 26.81873.8041 31.43803.8041 4.2054 0 18.1626.5321 21.269-.2492 5.5857-1.4045 8.1917-8.3486 4.6354-13.069-1.235-1.6392-3.7098-3.9159-5.2689-5.4249-2.4734-2.3937-3.7852-2.7747-7.8812-2.782-6.3509-.0116-39.1654-.7384-42.45399.2468z" fill="#10b6e8" fill-rule="evenodd"/><circle cx="20.4458" cy="90.9135" fill="#09099f" r="20"/><g fill="#2a3342"><path d="m68.8247 83.7137c0-5.5417.9881-10.4068 2.9642-14.5954 2.0379-4.1885 4.786-7.4104 8.2442-9.6658 3.4583-2.2553 7.3179-3.383 11.5789-3.383 3.6435 0 6.8239.7733 9.541 2.3198 2.779 1.5465 4.91 3.5763 6.392 6.0894v-7.6359h15.84v53.9352h-15.84v-7.636c-1.544 2.513-3.706 4.543-6.485 6.089-2.7167 1.547-5.8971 2.32-9.5406 2.32-4.1993 0-8.028-1.127-11.4863-3.383-3.4582-2.32-6.2063-5.574-8.2442-9.7623-1.9761-4.2529-2.9642-9.1503-2.9642-14.692zm38.7203.0967c0-4.1241-1.112-7.3783-3.335-9.7625-2.161-2.3842-4.8169-3.5764-7.9664-3.5764s-5.8358 1.1922-8.0589 3.5764c-2.1614 2.3198-3.2421 5.5417-3.2421 9.6658s1.0807 7.4105 3.2421 9.8591c2.2231 2.3843 4.9094 3.5764 8.0589 3.5764s5.8054-1.1921 7.9664-3.5764c2.223-2.3842 3.335-5.6384 3.335-9.7624z"/><path d="m156.242 95.3127 11.208-38.4699h16.859l-18.341 53.9352h-19.545l-18.341-53.9352h16.952z"/><path d="m237.848 82.9404c0 1.5466-.092 3.1575-.278 4.8329h-35.848c.247 3.3509 1.266 5.9284 3.057 7.7327 1.852 1.7398 4.106 2.6098 6.762 2.6098 3.952 0 6.7-1.7399 8.244-5.2196h16.859c-.865 3.5441-2.439 6.7339-4.724 9.5688-2.223 2.836-5.033 5.059-8.43 6.67-3.396 1.611-7.194 2.416-11.393 2.416-5.064 0-9.572-1.127-13.525-3.383-3.952-2.255-7.04-5.477-9.263-9.6656-2.223-4.1885-3.334-9.0859-3.334-14.692 0-5.6062 1.08-10.5035 3.242-14.6921 2.223-4.1885 5.31-7.4104 9.263-9.6658 3.952-2.2553 8.491-3.383 13.617-3.383 5.002 0 9.448 1.0955 13.339 3.2864 3.89 2.1909 6.916 5.3162 9.077 9.3758 2.224 4.0596 3.335 8.7959 3.335 14.2087zm-16.21-4.3496c0-2.8353-.927-5.0906-2.779-6.766-1.853-1.6754-4.169-2.5132-6.948-2.5132-2.655 0-4.909.8055-6.762 2.4165-1.791 1.611-2.902 3.8985-3.334 6.8627z"/><path d="m260.192 65.832c1.852-2.9642 4.168-5.284 6.947-6.9594 2.779-1.7399 5.867-2.6098 9.263-2.6098v17.4951h-4.353c-3.953 0-6.917.9022-8.893 2.7064-1.976 1.7399-2.964 4.833-2.964 9.2792v25.0345h-15.84v-53.9352h15.84z"/><path d="m330.845 82.9404c0 1.5466-.093 3.1575-.278 4.8329h-35.848c.247 3.3509 1.266 5.9284 3.057 7.7327 1.852 1.7398 4.106 2.6098 6.762 2.6098 3.952 0 6.7-1.7399 8.244-5.2196h16.859c-.865 3.5441-2.439 6.7339-4.724 9.5688-2.224 2.836-5.033 5.059-8.43 6.67-3.396 1.611-7.194 2.416-11.394 2.416-5.063 0-9.571-1.127-13.524-3.383-3.952-2.255-7.04-5.477-9.263-9.6656-2.223-4.1885-3.335-9.0859-3.335-14.692 0-5.6062 1.081-10.5035 3.243-14.6921 2.223-4.1885 5.31-7.4104 9.263-9.6658 3.952-2.2553 8.491-3.383 13.616-3.383 5.003 0 9.449 1.0955 13.339 3.2864 3.891 2.1909 6.917 5.3162 9.078 9.3758 2.223 4.0596 3.335 8.7959 3.335 14.2087zm-16.21-4.3496c0-2.8353-.927-5.0906-2.779-6.766-1.853-1.6754-4.169-2.5132-6.948-2.5132-2.655 0-4.909.8055-6.762 2.4165-1.791 1.611-2.902 3.8985-3.335 6.8627z"/><path d="m403.302 56.2628c6.423 0 11.518 2.0298 15.285 6.0895 3.828 4.0596 5.743 9.698 5.743 16.9151v31.5106h-15.748v-29.2874c0-3.4797-.895-6.1539-2.686-8.0227-1.729-1.9331-4.137-2.8997-7.225-2.8997s-5.527.9666-7.318 2.8997c-1.729 1.8688-2.594 4.543-2.594 8.0227v29.2874h-15.747v-29.2874c0-3.4797-.896-6.1539-2.686-8.0227-1.73-1.9331-4.138-2.8997-7.226-2.8997-3.087 0-5.527.9666-7.318 2.8997-1.729 1.8688-2.593 4.543-2.593 8.0227v29.2874h-15.84v-53.9352h15.84v6.766c1.605-2.2553 3.705-4.0274 6.299-5.3162 2.593-1.3532 5.527-2.0298 8.8-2.0298 3.89 0 7.348.8699 10.374 2.6098 3.088 1.7398 5.497 4.2207 7.226 7.4427 1.791-2.9642 4.23-5.3807 7.318-7.2494 3.087-1.8687 6.453-2.8031 10.096-2.8031z"/><path d="m441.522 51.2366c-2.779 0-5.064-.8377-6.855-2.5131-1.729-1.7399-2.594-3.8663-2.594-6.3795 0-2.5775.865-4.704 2.594-6.3794 1.791-1.7398 4.076-2.6098 6.855-2.6098 2.717 0 4.94.87 6.669 2.6098 1.791 1.6754 2.686 3.8019 2.686 6.3794 0 2.5132-.895 4.6396-2.686 6.3795-1.729 1.6754-3.952 2.5131-6.669 2.5131zm7.873 5.6062v53.9352h-15.84v-53.9352z"/><path d="m487.83 96.7625v14.0155h-8.059c-5.743 0-10.22-1.45-13.431-4.35-3.212-2.964-4.817-7.7645-4.817-14.4017v-21.4581h-6.299v-13.7254h6.299v-13.1455h15.84v13.1455h10.374v13.7254h-10.374v21.6514c0 1.611.37 2.7709 1.111 3.4797s1.976 1.0632 3.705 1.0632z"/></g></svg>